<?xml version="1.0" encoding="UTF-8"?>
<svg width="373px" height="212px" viewBox="0 0 373 212" version="1.1" xmlns="http://www.w3.org/2000/svg" xmlns:xlink="http://www.w3.org/1999/xlink">
    <!-- Generator: Sketch 56.3 (81716) - https://sketch.com -->
    <title>huojian</title>
    <desc>Created with Sketch.</desc>
    <g id="Page-1" stroke="none" stroke-width="1" fill="none" fill-rule="evenodd">
        <g id="huojian" fill-rule="nonzero">
            <path d="M372.9,98.3 C372.9,67.4 314.7,48.7 258.7,41.2 C242.5,16.7 216.4,0.7 186.8,0.7 C157.2,0.7 131.1,16.7 114.9,41.2 C59.3,48.6 0.7,67.4 0.7,98.3 C0.7,120.6 36.8,143.8 105.1,154.3 C119.7,189.3 151.8,211.9 186.8,211.9 C221.5,211.9 253.4,189.6 268.2,155.1 C268.3,154.8 268.3,154.5 268.4,154.3 C336.8,143.8 372.9,120.5 372.9,98.3 Z M186.8,11.2 C230.5,11.2 266,50.2 266,98.2 C266,105.3 238,119.1 186.8,119.1 C135.6,119.1 107.6,105.3 107.6,98.2 C107.7,50.3 143.2,11.2 186.8,11.2 Z M186.9,201.3 C157.6,201.3 130.8,183.7 116.7,155.8 C137.4,158.4 160.8,159.9 186.8,159.9 C212.9,159.9 236.3,158.4 257.1,155.8 C243.1,183.7 216.1,201.3 186.9,201.3 Z M186.8,149.4 C82.8,149.4 10.4,122.5 10.4,98.3 C10.4,83.1 41.2,62.9 108.3,52.8 C101.8,66.4 98,81.9 98,98.3 C98,118.9 142.7,129.7 186.8,129.7 C230.9,129.7 275.6,118.9 275.6,98.3 C275.6,81.9 271.9,66.4 265.3,52.8 C332.4,62.9 363.200103,83 363.200103,98.3 C363.3,122.5 290.8,149.4 186.8,149.4 Z" id="形状" fill="#6E767D"></path>
            <path d="M185.9,90.2 C198.3,90.2 208.5,80.1 208.5,67.6 C208.5,63.6 207.4,59.6 205.4,56.1 C201.4,49.3 193.9,45 186,45 C173.6,45 163.4,55.1 163.4,67.6 C163.4,74.1 166.2,80.4 171.2,84.7 C175.3,88.3 180.5,90.2 185.9,90.2 Z M185.9,54.7 C190.5,54.7 194.7,57.1 197,61.1 C198.2,63.1 198.8,65.4 198.8,67.7 C198.8,74.8 193,80.6 185.9,80.6 C182.8,80.6 179.8,79.5 177.4,77.4 C174.6,74.9 172.9,71.4 172.9,67.6 C173,60.5 178.8,54.7 185.9,54.7 Z" id="形状" fill="#E0245E"></path>
        </g>
    </g>
</svg>