<?xml version="1.0" encoding="UTF-8"?>
<svg width="120px" height="152px" viewBox="0 0 120 152" version="1.1" xmlns="http://www.w3.org/2000/svg" xmlns:xlink="http://www.w3.org/1999/xlink">
    <!-- Generator: Sketch 56.3 (81716) - https://sketch.com -->
    <title>Upload File</title>
    <desc>Created with Sketch.</desc>
    <defs>
        <linearGradient x1="0%" y1="50%" x2="99.9966111%" y2="50%" id="linearGradient-1">
            <stop stop-color="#070707" offset="0%"></stop>
            <stop stop-color="#060606" offset="55%"></stop>
            <stop stop-color="#030303" offset="100%"></stop>
        </linearGradient>
        <linearGradient x1="99.9683864%" y1="49.9603489%" x2="-0.0379362671%" y2="49.9603489%" id="linearGradient-2">
            <stop stop-color="#090F1E" offset="0%"></stop>
            <stop stop-color="#0C1428" offset="100%"></stop>
        </linearGradient>
        <linearGradient x1="100%" y1="50%" x2="-0.0504540868%" y2="50%" id="linearGradient-3">
            <stop stop-color="#1B2A51" offset="0%"></stop>
            <stop stop-color="#3B4A6E" offset="100%"></stop>
        </linearGradient>
        <linearGradient x1="99.96754%" y1="49.9999366%" x2="0.0036066709%" y2="49.9999366%" id="linearGradient-4">
            <stop stop-color="#081024" offset="0%"></stop>
            <stop stop-color="#0D1730" offset="100%"></stop>
        </linearGradient>
        <linearGradient x1="100.027404%" y1="50.0076161%" x2="1.38997968%" y2="50.0076161%" id="linearGradient-5">
            <stop stop-color="#02030C" offset="0%"></stop>
            <stop stop-color="#000210" offset="39%"></stop>
            <stop stop-color="#000514" offset="81.3555743%"></stop>
            <stop stop-color="#000413" offset="100%"></stop>
        </linearGradient>
        <linearGradient x1="99.9805195%" y1="50.0572738%" x2="0.260047042%" y2="50.0572738%" id="linearGradient-6">
            <stop stop-color="#0E1B3C" offset="0%"></stop>
            <stop stop-color="#0F1C3D" offset="100%"></stop>
        </linearGradient>
        <linearGradient x1="100%" y1="50%" x2="0.387985642%" y2="50%" id="linearGradient-7">
            <stop stop-color="#111C3A" offset="0%"></stop>
            <stop stop-color="#152449" offset="100%"></stop>
        </linearGradient>
        <linearGradient x1="34.3020853%" y1="23.7439255%" x2="62.9148901%" y2="76.4557776%" id="linearGradient-8">
            <stop stop-color="#1C9BEE" offset="0%"></stop>
            <stop stop-color="#004C8E" offset="100%"></stop>
        </linearGradient>
        <linearGradient x1="7.14185694%" y1="43.1385758%" x2="96.1437695%" y2="55.0264398%" id="linearGradient-9">
            <stop stop-color="#085093" offset="0%"></stop>
            <stop stop-color="#022D5E" offset="100%"></stop>
        </linearGradient>
        <linearGradient x1="50%" y1="0%" x2="50%" y2="90.7479935%" id="linearGradient-10">
            <stop stop-color="#FF0000" offset="0%"></stop>
            <stop stop-color="#FF0000" stop-opacity="0" offset="100%"></stop>
        </linearGradient>
    </defs>
    <g id="Page-1" stroke="none" stroke-width="1" fill="none" fill-rule="evenodd" opacity="0.550000012">
        <g id="画板" transform="translate(-579.000000, -95.000000)">
            <g id="Upload-File" transform="translate(579.000000, 95.000000)">
                <ellipse id="Oval" fill="url(#linearGradient-1)" opacity="0.5" cx="60.0527919" cy="133.766497" rx="59.9147208" ry="18.1969543"></ellipse>
                <ellipse id="Oval" fill="#0D111A" cx="58.5746193" cy="10.1725888" rx="32.1137056" ry="8.15431472"></ellipse>
                <path d="M90.680203,10.3553299 C90.7126904,9.47817259 90.680203,8.4751269 90.680203,8.15431472 C90.680203,3.65076142 76.3248731,0.113705584 58.5989848,0.113705584 C40.8730964,0.113705584 26.4852792,3.76852792 26.4852792,8.2680203 L26.4852792,10.1847716 C26.4852792,5.68121827 40.8649746,2.03045685 58.5989848,2.03045685 C76.3329949,2.03045685 90.7126904,5.68527919 90.7126904,10.1847716" id="Path" fill="url(#linearGradient-2)"></path>
                <ellipse id="Oval" fill="url(#linearGradient-3)" cx="58.5949239" cy="10.2659898" rx="4.02436548" ry="1.17766497"></ellipse>
                <ellipse id="Oval" fill="#060D1C" cx="59.1756345" cy="122.825381" rx="31.2649746" ry="8.46700508"></ellipse>
                <path d="M27.9187817,122.654822 C27.8862944,123.568528 27.9187817,124.608122 27.9187817,124.941117 C27.9187817,129.619289 41.9005076,133.286294 59.1878173,133.278186 C76.4751269,133.270051 90.4568528,129.473096 90.4568528,124.798985 L90.4568528,122.805076 C90.4568528,127.483249 76.4629442,131.280203 59.1878173,131.284264 C41.9126904,131.288325 27.9187817,127.507614 27.9187817,122.833503" id="Path" fill="url(#linearGradient-4)"></path>
                <path d="M59.2406091,131.118782 C75.484264,131.118782 88.6944162,126.736147 88.8609137,123.783214 L88.8893401,111.118782 L29.6812183,111.118782 L29.6446701,123.421295 C29.6220497,123.521987 29.6125379,123.623823 29.6162437,123.725636 C29.6162437,126.703245 42.8791878,131.118782 59.2406091,131.118782 Z" id="Path" fill="url(#linearGradient-5)" opacity="0.699999988"></path>
                <ellipse id="Oval" fill="#0C1429" cx="59.0253807" cy="107.017259" rx="31.2649746" ry="8.46700508"></ellipse>
                <path d="M27.7604061,107.005076 C27.7604061,111.679188 41.7583756,115.46802 59.0294416,115.46802 C76.3005076,115.46802 90.2984772,111.679188 90.2984772,107.005076 L90.2984772,108.994924 C90.2984772,113.673096 76.3005076,117.461929 59.0294416,117.461929 C41.7583756,117.461929 27.7847716,113.807107 27.7847716,109.11269 C27.7847716,108.779695 27.7441624,107.740102 27.7847716,106.826396" id="Path" fill="url(#linearGradient-6)"></path>
                <path d="M83.0416244,109.754315 L83.0416244,109.754315 C83.5984717,109.744705 84.1286847,109.51424 84.5155797,109.113636 C84.9024748,108.713032 85.1143465,108.175119 85.1045685,107.618274 L85.1045685,11.9796954 C85.1224564,11.3244055 84.826612,10.6999064 84.3082156,10.2986708 C83.7898191,9.89743514 83.1110914,9.76762141 82.4812183,9.94923858 L82.4812183,9.94923858 C81.6054388,10.2355136 81.0178876,11.0584145 81.0314721,11.9796954 L80.9786802,107.634518 C80.9673522,108.787804 81.8884568,109.734293 83.0416244,109.754315 L83.0416244,109.754315 Z" id="Path" fill="#07090E"></path>
                <path d="M35.2243655,108.958376 L35.2243655,108.958376 C34.6675182,108.948766 34.1373052,108.718301 33.7504101,108.317697 C33.3635151,107.917093 33.1516433,107.379179 33.1614213,106.822335 L33.1614213,11.2365482 C33.1503695,10.5722621 33.4568255,9.94254221 33.986396,9.54135241 C34.5159666,9.1401626 35.2051342,9.0156221 35.8416244,9.20609137 L35.8416244,9.20609137 C36.714203,9.49823954 37.3016162,10.3163637 37.2994924,11.2365482 L37.2994924,106.822335 C37.3092604,107.38126 37.0957242,107.921003 36.7062023,108.321959 C36.3166804,108.722915 35.7833396,108.951973 35.2243655,108.958376 L35.2243655,108.958376 Z" id="Path" fill="#07090E"></path>
                <rect id="Rectangle" fill="#07090E" x="56.5522843" y="15.1350254" width="4.80406091" height="86.0142132" rx="0.763451777"></rect>
                <ellipse id="Oval" fill="#0A0D20" cx="59.3380711" cy="102.31066" rx="20.4588832" ry="5.36040609"></ellipse>
                <ellipse id="Oval" fill="#111B2E" cx="59.3380711" cy="101.388832" rx="20.4588832" ry="5.36040609"></ellipse>
                <ellipse id="Oval" fill="url(#linearGradient-7)" cx="58.9847716" cy="10.9563452" rx="14.0060914" ry="2.10761421"></ellipse>
                <g id="huojian" transform="translate(44.000000, 85.000000)" fill-rule="nonzero">
                    <path d="M29.9919571,7.90616622 C29.9919571,5.42091153 25.4397831,4.22252011 20.9357616,3.61930295 C19.6328126,1.64879357 17.4048257,0.0563002681 15.0241287,0.0563002681 C12.6434316,0.0563002681 10.3632606,1.64879357 9.06031155,3.61930295 C4.58846168,4.21447721 0.0563002681,5.42091153 0.0563002681,7.90616622 C0.0563002681,9.6997319 2.95978552,11.5656836 8.45308311,12.4101877 C9.62734584,15.2252011 12.2091153,17.0428954 15.0241287,17.0428954 C17.8150134,17.0428954 20.3806971,15.2493298 21.5710456,12.4745308 C21.5790885,12.4504021 21.5790885,12.4262735 21.5871314,12.4101877 C27.0884718,11.5656836 29.9919571,9.69168901 29.9919571,7.90616622 Z" id="路径" fill="#010D17"></path>
                    <path d="M15.0241287,0.0563002681 C19.7041838,0.0563002681 22.0241287,3.85440421 22.0241287,8.3029677 C22.0241287,8.96098438 19.5493812,10.2399464 15.0241287,10.2399464 C10.4988762,10.2399464 8.02412869,8.96098438 8.02412869,8.3029677 C8.03296707,3.86367205 10.3440736,0.0563002681 15.0241287,0.0563002681 Z" id="路径" fill="url(#linearGradient-8)"></path>
                    <path d="M15.0241284,13.1313673 C4.53091492,13.1313673 0.0597429092,9.90359093 0.0241328413,7.89948323 C5.4151128e-14,6.54130518 1.13659779,4.4771362 9.06031155,3.61930295 C8.50759062,4.74559694 8.02412869,6.54130518 8.02412869,7.89948323 C8.02412869,9.60548738 12.35289,10.2399464 15.0253807,10.2399464 C17.6978714,10.2399464 22.0241287,9.60548738 22.0241287,7.89948323 C22.0241287,6.54130518 21.496986,4.74559694 20.9357616,3.61930295 C28.6263461,4.32197954 30.0243348,6.63240249 30.0243348,7.89948323 C30.0326275,9.90362402 25.517342,13.1313673 15.0241284,13.1313673 Z" id="路径" fill="url(#linearGradient-9)"></path>
                    <path d="M14.9517426,6.95469169 C15.7863603,6.95469169 16.469437,6.27369754 16.469437,5.43699732 C16.469437,5.17041425 16.3960769,4.8996806 16.261527,4.66417038 C15.993463,4.20846158 15.4883742,3.91930295 14.9597855,3.91930295 C14.1251679,3.91930295 13.4420912,4.6002971 13.4420912,5.43699732 C13.4420912,5.87769412 13.633134,6.29943015 13.9673773,6.58690037 C14.2393771,6.82572946 14.586181,6.95469169 14.9517426,6.95469169 Z" id="形状" stroke="#B3083E" stroke-width="0.6" fill="#E0245E"></path>
                </g>
                <path d="M44.9786802,11 C45.7412446,9.72523956 50.2732243,9.08785934 58.5746193,9.08785934 C66.8760143,9.08785934 71.6814289,9.71068795 72.9908629,10.9563452 L80.9785768,106.749239 L37.2998133,106.749239 L44.9786802,11 Z" id="矩形" fill="url(#linearGradient-10)" opacity="0.25999999"></path>
            </g>
        </g>
    </g>
</svg>