<?xml version="1.0" encoding="UTF-8"?>
<svg width="42px" height="66px" viewBox="0 0 42 66" version="1.1" xmlns="http://www.w3.org/2000/svg" xmlns:xlink="http://www.w3.org/1999/xlink">
    <!-- Generator: Sketch 56.3 (81716) - https://sketch.com -->
    <title>Upload File备份</title>
    <desc>Created with Sketch.</desc>
    <defs>
        <linearGradient x1="34.3020853%" y1="23.7439255%" x2="62.9148901%" y2="76.4557776%" id="linearGradient-1">
            <stop stop-color="#1C9BEE" offset="0%"></stop>
            <stop stop-color="#004C8E" offset="100%"></stop>
        </linearGradient>
        <linearGradient x1="7.14185694%" y1="43.1385758%" x2="96.1437695%" y2="55.0264398%" id="linearGradient-2">
            <stop stop-color="#085093" offset="0%"></stop>
            <stop stop-color="#022D5E" offset="100%"></stop>
        </linearGradient>
        <linearGradient x1="50%" y1="0%" x2="50%" y2="90.7479935%" id="linearGradient-3">
            <stop stop-color="#FF0000" offset="0%"></stop>
            <stop stop-color="#FF0000" stop-opacity="0" offset="100%"></stop>
        </linearGradient>
    </defs>
    <g id="Page-1" stroke="none" stroke-width="1" fill="none" fill-rule="evenodd" opacity="0.550000012">
        <g id="画板" transform="translate(-617.000000, -273.000000)">
            <g id="Upload-File备份" transform="translate(616.000000, 273.000000)">
                <g id="huojian" transform="translate(7.000000, 0.000000)" fill-rule="nonzero">
                    <path d="M29.9919571,7.90616622 C29.9919571,5.42091153 25.4397831,4.22252011 20.9357616,3.61930295 C19.6328126,1.64879357 17.4048257,0.0563002681 15.0241287,0.0563002681 C12.6434316,0.0563002681 10.3632606,1.64879357 9.06031155,3.61930295 C4.58846168,4.21447721 0.0563002681,5.42091153 0.0563002681,7.90616622 C0.0563002681,9.6997319 2.95978552,11.5656836 8.45308311,12.4101877 C9.62734584,15.2252011 12.2091153,17.0428954 15.0241287,17.0428954 C17.8150134,17.0428954 20.3806971,15.2493298 21.5710456,12.4745308 C21.5790885,12.4504021 21.5790885,12.4262735 21.5871314,12.4101877 C27.0884718,11.5656836 29.9919571,9.69168901 29.9919571,7.90616622 Z" id="路径" fill="#010D17"></path>
                    <path d="M15.0241287,0.0563002681 C19.7041838,0.0563002681 22.0241287,3.85440421 22.0241287,8.3029677 C22.0241287,8.96098438 19.5493812,10.2399464 15.0241287,10.2399464 C10.4988762,10.2399464 8.02412869,8.96098438 8.02412869,8.3029677 C8.03296707,3.86367205 10.3440736,0.0563002681 15.0241287,0.0563002681 Z" id="路径" fill="url(#linearGradient-1)"></path>
                    <path d="M15.0241284,13.1313673 C4.53091492,13.1313673 0.0597429092,9.90359093 0.0241328413,7.89948323 C5.4151128e-14,6.54130518 1.13659779,4.4771362 9.06031155,3.61930295 C8.50759062,4.74559694 8.02412869,6.54130518 8.02412869,7.89948323 C8.02412869,9.60548738 12.35289,10.2399464 15.0253807,10.2399464 C17.6978714,10.2399464 22.0241287,9.60548738 22.0241287,7.89948323 C22.0241287,6.54130518 21.496986,4.74559694 20.9357616,3.61930295 C28.6263461,4.32197954 30.0243348,6.63240249 30.0243348,7.89948323 C30.0326275,9.90362402 25.517342,13.1313673 15.0241284,13.1313673 Z" id="路径" fill="url(#linearGradient-2)"></path>
                    <path d="M14.9517426,6.95469169 C15.7863603,6.95469169 16.469437,6.27369754 16.469437,5.43699732 C16.469437,5.17041425 16.3960769,4.8996806 16.261527,4.66417038 C15.993463,4.20846158 15.4883742,3.91930295 14.9597855,3.91930295 C14.1251679,3.91930295 13.4420912,4.6002971 13.4420912,5.43699732 C13.4420912,5.87769412 13.633134,6.29943015 13.9673773,6.58690037 C14.2393771,6.82572946 14.586181,6.95469169 14.9517426,6.95469169 Z" id="形状" stroke="#B3083E" stroke-width="0.6" fill="#E0245E"></path>
                </g>
                <path d="M15.5766057,12.7224188 C17.6861237,12.9950511 19.8125098,13.1313673 21.9557641,13.1313673 C24.0990183,13.1313673 26.2745079,12.9950511 28.4822329,12.7224188 L43.9785768,71.7492386 L0.299813343,71.7492386 L15.5766057,12.7224188 Z" id="矩形" fill="url(#linearGradient-3)" opacity="0.300000012"></path>
            </g>
        </g>
    </g>
</svg>