<?xml version="1.0" encoding="UTF-8"?>
<svg width="118px" height="81px" viewBox="0 0 118 81" version="1.1" xmlns="http://www.w3.org/2000/svg" xmlns:xlink="http://www.w3.org/1999/xlink">
    <!-- Generator: Sketch 56.3 (81716) - https://sketch.com -->
    <title>Scene/Home</title>
    <desc>Created with Sketch.</desc>
    <g id="Page-1" stroke="none" stroke-width="1" fill="none" fill-rule="evenodd">
        <g id="画板" transform="translate(-771.000000, -131.000000)">
            <g id="Scene/Home" transform="translate(769.000000, 131.000000)">
                <path d="M115.41464,17.1663409 C115.341104,17.112865 115.16664,17.0939032 115.085477,17.0778838 C114.748111,17.0113775 114.400576,16.9824211 114.056639,16.9824211 C112.996094,16.984009 111.918327,17.088112 110.875387,17.2682955 C110.213223,17.3826732 109.412717,17.7676065 108.754008,17.55856 C107.606447,17.1943166 106.446654,17.2122041 105.357902,17.732205 C104.362499,18.207697 103.606844,19.110763 103.165866,20.0865468 C103.099333,20.2338508 102.829411,20.7759893 102.752997,21.1414471 C102.72033,21.2161732 102.688958,21.2914132 102.660657,21.367774 C102.580357,21.5845733 102.508355,21.8052024 102.441438,22.0262518 C102.412849,22.1205469 102.340944,22.3287527 102.426328,22.3690115 C102.289905,22.620792 102.168975,22.8802787 102.06824,23.1481721 C101.775294,23.9272859 101.455005,24.78192 101.352064,25.607691 C101.313928,25.9134612 101.312489,26.2210062 101.34789,26.5273835 C101.365399,26.6787975 101.358156,26.9833067 101.460809,27.0984317 C101.678684,27.3427396 101.790548,27.0007272 101.765988,26.8378241 C101.578429,25.5962486 101.940595,24.4303333 102.369821,23.2632504 C102.647369,22.5085626 103.10341,21.8181394 103.614279,21.192868 C104.027724,20.6867382 104.471244,20.2881674 105.037998,19.9526002 C105.731053,19.54226 106.472029,19.2105224 107.206194,18.8777574 C107.689049,18.6588097 108.17248,18.4457466 108.668815,18.2571097 C108.779192,18.2151229 108.952839,18.1075172 109.075208,18.1070969 C109.334,18.1061628 109.700723,18.2971349 109.950689,18.3681715 C110.772877,18.6019244 111.60557,18.9012027 112.455292,19.0205778 C113.000315,19.0972189 113.510944,19.0109568 114.020662,18.8293722 C114.072757,18.8108775 114.16006,18.7631928 114.267031,18.6950986 C114.645458,18.5495226 115.00345,18.3663034 115.315152,18.1020062 C115.494748,17.9497049 115.657699,17.7528948 115.806306,17.572758 C115.850774,17.5189084 115.870441,17.4571659 115.871112,17.3985059 C115.904787,17.3808985 115.92714,17.3603488 115.932177,17.336343 C115.969257,17.1590551 115.631124,17.1557859 115.41464,17.1663409" id="Twisted-Leaf" fill="#1E3032" opacity="0.400000006"></path>
                <path d="M12.7423389,30.2209878 C12.4746074,30.2209878 12.2076921,30.2263378 11.9402967,30.240182 C11.7364731,30.2507882 11.4249999,30.2087391 11.2525301,30.3351678 C11.0733382,30.4664771 11.085678,30.7352905 11.1136708,30.9251212 C11.2616529,31.9289946 11.6228216,32.8191574 12.3783854,33.5303771 C13.5417404,34.6255289 14.8754045,35.1819745 16.4535609,35.4297633 C17.5621308,35.6038256 18.5855221,35.3621376 19.4015847,34.5776137 C19.9978348,35.6789132 20.4501839,36.8976308 20.6771507,38.1276586 C20.7891217,38.7346005 20.8233083,39.3342214 20.8036222,39.9522388 C20.7909462,40.3480909 20.7690034,40.7430044 20.7263661,41.1369794 C20.7078803,41.308179 20.6201569,41.5673248 20.687522,41.7290915 C20.7665546,41.919063 21.0330858,41.9374595 21.1527391,41.7754581 C21.2523222,41.640629 21.2340285,41.3758516 21.2544829,41.2162906 C21.2883814,40.9512316 21.3197832,40.6859848 21.3422542,40.4197057 C21.3787456,39.9887032 21.4057301,39.5564806 21.4038626,39.1238356 C21.3992,38.1517804 21.1820283,37.175924 20.8849596,36.2531921 C20.3150698,34.4829564 19.3903972,32.9096848 17.9523005,31.6752926 C17.0680566,30.9162515 16.0560449,30.6088618 14.9078626,30.443857 C14.1930156,30.3411278 13.4665009,30.2209878 12.7423389,30.2209878" id="Fill-16" fill="#2E363C" opacity="0.400000006" transform="translate(16.250616, 36.053184) rotate(-39.000000) translate(-16.250616, -36.053184) "></path>
                <path d="M18.2714408,32.3935707 C18.0543171,30.6646332 17.8244693,28.9455979 17.4038101,27.2502621 C17.1558607,26.2512224 16.8380976,25.2732072 16.5493835,24.2855245 C16.5752636,24.409419 16.5981667,24.5341112 16.6180449,24.659132 C16.5175976,24.3645542 16.3078201,24.0827882 16.1871585,23.7892428 C16.0525725,23.4618612 15.9443467,23.1218085 15.8415466,22.7837738 C15.640844,22.1240359 15.4514729,21.4631717 15.2256105,20.8109895 C14.9739159,20.0843768 14.6840975,19.369825 14.4140132,18.6495947 C14.1847897,18.0383352 13.9701147,17.3965715 13.6717016,16.8132351 C13.5090749,16.4952863 13.3632534,16.1537788 13.2036036,15.8296823 C13.1501629,15.7212277 12.6916198,14.5096433 12.6950769,14.5096433 C12.7708925,14.5096433 13.0552373,15.0482087 13.10234,15.1273322 C13.2399989,15.3584141 13.3569634,15.5988819 13.4751763,15.8398191 C13.5262162,15.5537356 13.6070254,15.273659 13.7343131,15.0106649 C13.7735894,14.9294765 14.0492914,14.3307473 14.1390794,14.3307473 C14.1839254,14.3307473 13.7695081,15.4613779 13.7171238,15.5606342 C13.6745825,15.6412595 13.5948776,15.7434724 13.567125,15.8292599 C13.522279,15.9677964 13.5453742,15.9331623 13.5823937,16.0581361 C13.6502389,16.2872 13.8003818,16.511524 13.8948752,16.7314836 C13.9467314,16.8489017 14.0745473,17.2558762 14.1989061,17.4381512 C14.519118,18.0640527 14.746661,18.8272237 14.9904331,19.5021668 C15.0428654,19.1705615 15.1335177,18.8508293 15.2590769,18.5387937 C15.2888462,18.4646917 15.5257521,17.7771245 15.5939814,17.7771245 C15.6707573,17.7771245 15.3767616,18.8783301 15.3368132,18.9734567 C15.26263,19.150147 15.1460016,19.3211589 15.0843024,19.5009936 C15.0166012,19.6983799 15.1355344,19.8760558 15.211302,20.0779474 C15.490029,20.820704 15.7343772,21.5708754 15.9576469,22.3311367 C17.2542914,21.7632403 17.5121319,20.0918386 17.5967343,18.8592767 C17.6576653,17.9709442 17.5201504,17.0663271 17.3045631,16.2046037 C17.0168574,15.0545442 16.5328183,13.9442342 16.0192501,12.8752692 C15.4208394,11.6297078 14.5979106,10.517239 13.605681,9.5420865 C13.0867351,9.0320544 12.4957187,8.59002345 11.8954354,8.17582182 C11.6022079,7.97346091 11.3009619,7.80549947 10.9586631,7.69291509 C10.8043429,7.642231 10.6459415,7.60553197 10.4858116,7.57742107 C10.3641416,7.55606806 10.1159041,7.44324903 10.0150247,7.47201694 C9.19127964,7.69990762 8.57207844,8.0789589 8.09202466,8.78360851 C7.63756286,9.45062049 7.35547484,10.2480501 7.19865791,11.0303215 C7.02407544,11.9014308 6.9819663,12.7797203 7.13182106,13.6564143 C7.24614473,14.3253034 7.44334226,14.9810523 7.64082787,15.6303718 C8.34319102,17.9398298 9.57429515,20.4157944 11.7833204,21.682662 C12.4983595,22.0927807 13.2917591,22.3324977 14.1062372,22.4595833 C14.2981531,22.4895245 14.4898769,22.5180108 14.6840975,22.5289454 C14.8150343,22.5363603 15.2454887,22.4493996 15.3402222,22.505856 C15.4701027,22.5832431 15.544718,23.0222706 15.6013277,23.1814561 C16.0314459,24.391351 16.4160939,25.6149494 16.7651148,26.8494824 C17.1364147,28.1629511 17.4313707,29.4891847 17.6770634,30.8302012 C17.781544,31.400585 17.8833357,31.9700301 17.9700028,32.5435111 C17.9902171,32.6769323 17.9693305,33.0965778 18.0995472,33.2144183 C18.1818929,33.2889427 18.2982812,33.2583914 18.3472565,33.1671601 C18.432435,33.0085376 18.2936717,32.5705896 18.2714408,32.3935707" id="Leaf" fill="#283031" opacity="0.400000006" transform="translate(12.707406, 20.361827) rotate(-37.000000) translate(-12.707406, -20.361827) "></path>
                <path d="M114.066893,23.5544598 C113.596676,23.4517364 113.077485,23.4595983 112.598513,23.4680723 C110.029786,23.5030039 107.50734,24.7191604 105.865672,26.6623839 C104.468109,28.3166919 104.083815,30.3734666 103.807718,32.4526032 C103.780344,32.6590386 103.768605,32.8641559 103.753162,33.071015 C103.749843,33.1154092 103.744888,33.1550015 103.739596,33.192287 C103.631014,33.2893611 103.574053,33.4025357 103.638326,33.5268677 C103.399129,34.0503239 103.196783,34.587056 103.023158,35.1406419 C102.512145,36.770093 101.992329,38.4305211 102.312541,40.1439586 C102.387351,39.2010407 102.544715,38.2368437 102.732917,37.3094143 C102.743741,37.2561695 102.755432,37.2033484 102.767603,37.1507156 C102.768854,37.1451605 102.770009,37.1396053 102.77126,37.1340972 C102.837891,36.8500779 102.924487,36.5745796 103.029797,36.3034124 C103.030903,36.3004465 103.031962,36.2975277 103.033116,36.2946089 C103.04702,36.258924 103.061789,36.2234275 103.076366,36.187931 C103.106531,36.1144428 103.137513,36.0410958 103.170371,35.9681255 C103.181484,35.9432685 103.192165,35.9181761 103.202412,35.8928954 C103.355735,35.5171218 103.420489,35.0937055 103.55784,34.7048914 C103.590699,34.6164796 103.625048,34.5283973 103.661034,34.4407858 C103.663151,34.4356544 103.665316,34.4305229 103.66748,34.4253914 C103.764757,34.1896267 103.872232,33.9567336 103.985865,33.7262886 C104.047637,33.67987 104.08064,33.5647182 104.133896,33.4600646 C104.144913,33.4394446 104.231028,33.3019308 104.25667,33.2226991 C104.32359,33.0932357 104.390269,32.9637251 104.457669,32.834497 C104.455649,32.8352502 104.453628,32.8360035 104.451607,32.8367567 C104.519056,32.7126601 104.586697,32.5890813 104.653809,32.4660204 C104.668579,32.4389978 104.683492,32.4119282 104.698358,32.3848114 C104.722461,32.3416412 104.746563,32.2985181 104.770618,32.2554892 C104.995623,31.8528342 105.234195,31.4582295 105.481956,31.0685208 C105.57038,30.9294535 105.781626,30.7300326 105.822134,30.5738761 C105.823625,30.5680385 105.823962,30.5626716 105.824876,30.5570694 C106.362493,29.8019912 106.981414,29.1055247 107.723638,28.5536807 C107.633915,28.6506606 107.443211,28.9797804 107.392793,29.0449358 C107.238508,29.2444508 107.070993,29.4301721 106.902852,29.6181531 C106.601739,29.9548994 106.307745,30.3023323 106.046514,30.6697262 C105.568792,31.3416182 105.156643,32.0487242 104.767057,32.7700477 C104.763353,32.7742847 104.759312,32.7782863 104.7558,32.7826174 C104.559997,33.0239845 104.436742,33.388789 104.295783,33.6648994 C104.853605,33.4065373 105.47041,33.2382348 106.042906,33.0088255 C106.613814,32.7801223 107.169183,32.5254323 107.705357,32.2263481 C108.417994,31.8288717 109.157235,31.3800806 109.830567,30.8722071 C110.602186,30.3935688 111.250598,29.7347644 111.822949,29.0434293 C112.50013,28.2254555 113.120735,27.4003258 113.504548,26.407129 C113.693087,25.9190751 113.841406,25.4101659 113.929349,24.8953249 C113.933198,24.8728689 113.938105,24.8485298 113.943445,24.8232491 C114.033409,24.6454369 114.113847,24.463623 114.181344,24.2776193 C114.288531,23.9826309 114.54168,23.6581247 114.066893,23.5544598" id="Fill-10" fill="#111E21" opacity="0.400000006"></path>
                <path d="M12.2433792,27.6375468 C12.1861721,27.4280987 12.151822,27.2115423 12.1677057,26.9924172 C12.1717412,26.9370288 12.2181977,26.534707 12.2631693,26.534707 C12.3678983,26.534707 12.2236537,27.5730444 12.2433792,27.6375468 M10.4207406,28.5437919 C10.4270872,28.5463364 10.5423978,28.7679694 10.5802243,28.8323204 C10.6605818,28.9692092 10.7462754,29.102779 10.8343056,29.2330668 C10.6691385,29.0184036 10.5209586,28.8113003 10.4207406,28.5437919 M16.6070148,21.9498261 C16.7051172,21.8670758 16.6514462,21.6603432 16.5350852,21.7744828 C16.4411425,21.8669684 16.4383448,21.8578058 16.3202537,21.8519001 C16.2243599,21.8471041 16.1223555,21.8173254 16.0259831,21.8054784 C15.8215692,21.7803526 15.6182965,21.7697225 15.412631,21.784075 C14.9717773,21.8147842 14.5428137,21.9197969 14.1345749,22.0831142 C13.4221633,22.3681589 12.7030151,22.7375287 12.1362663,23.2518905 C11.2351225,24.0697297 10.5114465,25.1892209 10.0844339,26.3054909 C9.81994376,26.9968066 9.67755714,27.6906635 9.91797261,28.409682 C10.0380883,28.7690302 10.2282194,29.1109836 10.5041579,29.38096 C10.5763083,29.4515053 10.6713922,29.5061592 10.7389044,29.5802121 C10.8427126,29.6940653 10.8189324,29.6575937 10.7514571,29.820052 C10.6777606,29.9974354 10.6047267,30.1750335 10.5321714,30.3528822 C10.3422612,30.8185674 10.1552959,31.2895139 10.0174003,31.772737 C9.97197498,31.9317593 9.93704093,32.0932154 9.91171466,32.2564253 C9.8924991,32.379835 9.78096046,32.8493498 9.8780322,32.9755154 C10.039524,33.185505 10.1083245,32.863058 10.1135149,32.7527482 C10.1180427,32.6561107 10.1264726,32.5592585 10.1385467,32.4631937 C10.168953,32.2213137 10.2239492,31.9838719 10.2954002,31.750582 C10.3725938,31.4984656 10.4671992,31.2510737 10.5612156,31.004505 C10.6489372,30.7745795 10.7407449,30.5461572 10.8343564,30.3184865 C10.8863341,30.1919988 10.9389377,30.0657616 10.9915412,29.9395245 C11.0095052,29.8963955 11.0187449,29.806308 11.0663052,29.8432807 C11.1702607,29.5737338 11.3395197,29.3177519 11.4798449,29.064705 C11.6517543,28.7547851 11.8271607,28.4455094 12.0247277,28.1502283 C12.1672247,27.937268 12.3173049,27.7287817 12.4815207,27.5309254 C12.5774882,27.4153184 12.6800816,27.3066549 12.7890803,27.2025012 C12.8489725,27.1453062 13.05346,26.8999544 13.1359544,26.8999544 C13.100505,26.8999544 12.9401544,27.2115565 12.9151594,27.2483503 C12.81529,27.3955972 12.7068803,27.5358647 12.5962252,27.6755953 C12.390891,27.9349058 12.200355,28.2036295 12.0280039,28.4847371 C12.0777361,28.5143368 12.2845428,28.3779706 12.3462019,28.3516637 C12.4845025,28.2927149 12.6266682,28.2423202 12.7723311,28.2034505 C13.0289067,28.1349453 13.3425033,28.0569195 13.5958028,28.0569195 C13.5211492,28.0569195 13.3478778,28.1787543 13.2701689,28.2118615 C13.1456358,28.264869 13.0179369,28.3132235 12.8884711,28.3535965 C12.7689444,28.3908556 12.6472458,28.4192742 12.5247374,28.4454379 C12.4021553,28.4715658 12.1806609,28.4725679 12.0691223,28.5378519 C12.0623858,28.541789 12.06938,28.604997 12.0429862,28.6219265 C12.0164083,28.6389991 11.9402823,28.6334156 11.9340979,28.6381043 C11.8427688,28.7066811 11.7789009,28.9053963 11.7239415,29.0031433 C11.581334,29.256584 11.4424076,29.5119932 11.3021193,29.7666508 C11.258645,29.8455356 11.2008142,29.8995094 11.2390613,29.9634691 C11.2798852,30.0316522 11.4727403,30.0739579 11.5480933,30.0987973 C11.827897,30.191104 12.1114186,30.2216701 12.4031492,30.1732082 C12.9495781,30.0825121 13.4238566,29.8460009 13.8514582,29.5112058 C15.4892724,28.2288626 16.8325952,26.6152318 17.2426746,24.5664104 C17.4124121,23.7181841 17.5952913,22.395289 16.6070148,21.9498261" id="Leave-the-Leaf!" fill="#243032" opacity="0.300000012" transform="translate(13.586001, 27.392957) scale(-1, 1) rotate(-302.000000) translate(-13.586001, -27.392957) "></path>
                <g id="Background-Shape-2" opacity="0.6" transform="translate(3.579692, 42.488444)" fill="#111111">
                    <path d="M115.562357,23.4826465 C117.247611,33.978391 76.3773288,40.824406 41.1993294,36.0467372 C6.0213301,31.2690684 -10.1166681,12.6117329 6.66968674,2.67037115 C23.4560415,-7.27099062 113.877103,12.986902 115.562357,23.4826465 Z" id="Background-Shape"></path>
                </g>
                <g id="Mobile3" transform="translate(23.770665, 0.649363)">
                    <rect id="Container" fill="#202022" x="0" y="0" width="21.9189413" height="41.6322029" rx="1.10283981"></rect>
                    <g id="Camera" transform="translate(8.822719, 2.205680)" fill="#232323">
                        <circle id="Lens" cx="0.275709953" cy="0.275709953" r="1"></circle>
                        <rect id="Sensor" x="1.24069479" y="0" width="2.89495451" height="1" rx="0.275709953"></rect>
                    </g>
                    <g id="Rows" transform="translate(1.929970, 3.859939)">
                        <g id="Row">
                            <rect id="Background" fill="#000000" x="0" y="0" width="18.0590019" height="7.44416873" rx="0.551419906"></rect>
                            <g id="Text" transform="translate(5.376344, 2.233251)" fill="#232323">
                                <rect id="Name" x="0" y="0" width="10.0634133" height="1.11662531" rx="0.41356493"></rect>
                                <rect id="Name" x="0" y="1.86104218" width="6.75489385" height="1.11662531" rx="0.41356493"></rect>
                            </g>
                            <circle id="Avatar" fill="#202223" cx="2.89495451" cy="3.72208437" r="1.65425972"></circle>
                        </g>
                        <g id="Row" transform="translate(0.000000, 8.547009)">
                            <rect id="Background" fill="#000000" x="0" y="0" width="18.0590019" height="5.78990902" rx="0.551419906"></rect>
                            <g id="Text" transform="translate(5.376344, 1.736973)" fill="#232323">
                                <rect id="Name" x="0" y="0" width="10.0634133" height="1" rx="0.41356493"></rect>
                                <rect id="Name" x="0" y="1.44747725" width="6.75489385" height="1" rx="0.41356493"></rect>
                            </g>
                            <circle id="Avatar" fill="#202223" cx="2.89495451" cy="2.89495451" r="1.65425972"></circle>
                        </g>
                        <g id="Row" transform="translate(0.000000, 15.439757)">
                            <rect id="Background" fill="#000000" x="0" y="0" width="18.0590019" height="5.78990902" rx="0.551419906"></rect>
                            <g id="Text" transform="translate(5.376344, 1.736973)" fill="#232323">
                                <rect id="Name" x="0" y="0" width="10.0634133" height="1" rx="0.41356493"></rect>
                                <rect id="Name" x="0" y="1.44747725" width="6.75489385" height="1" rx="0.41356493"></rect>
                            </g>
                            <circle id="Avatar" fill="#202223" cx="2.89495451" cy="2.89495451" r="1.65425972"></circle>
                        </g>
                        <g id="Row" transform="translate(0.000000, 22.332506)">
                            <rect id="Background" fill="#000000" x="0" y="0" width="18.0590019" height="5.78990902" rx="0.551419906"></rect>
                            <g id="Text" transform="translate(5.376344, 1.736973)" fill="#232323">
                                <rect id="Name" x="0" y="0" width="10.0634133" height="1" rx="0.41356493"></rect>
                                <rect id="Name" x="0" y="1.44747725" width="6.75489385" height="1" rx="0.41356493"></rect>
                            </g>
                            <circle id="Avatar" fill="#202223" cx="2.89495451" cy="2.89495451" r="1.65425972"></circle>
                        </g>
                    </g>
                </g>
                <g id="Mobile3" transform="translate(27.854907, 4.826845)">
                    <g id="Group" transform="translate(0.000000, 30.052385)" fill="#20292A" opacity="0.5">
                        <path d="M1.67354052,0 C1.49090669,0 1.30882967,0.00366725429 1.12642511,0.013157079 C0.987386256,0.0204272498 0.774913931,-0.00839608219 0.657263153,0.0782669271 C0.535026878,0.168275502 0.543444542,0.352538945 0.562539866,0.482662135 C0.663486329,1.17078702 0.909858586,1.78096666 1.42526856,2.2684863 C2.2188545,3.01917968 3.1286173,3.4006063 4.20516122,3.57045808 C4.96137535,3.68977252 5.65948466,3.5241027 6.21616412,2.98633524 C6.62289779,3.74124275 6.93146905,4.57663685 7.08629512,5.41978364 C7.16267641,5.83582399 7.18599695,6.24684599 7.17256799,6.6704782 C7.16392105,6.94182285 7.14895267,7.21252412 7.11986752,7.48258201 C7.1072574,7.59993415 7.04741665,7.7775708 7.09336989,7.88845699 C7.14728224,8.01867669 7.32909724,8.03128689 7.4107191,7.92023986 C7.47864998,7.82781862 7.46617088,7.6463217 7.48012389,7.53694745 C7.5032479,7.35525752 7.52466873,7.17343891 7.53999739,6.99091259 C7.5648901,6.69547343 7.5832976,6.39919789 7.58202371,6.10263283 C7.57884311,5.43631846 7.43069877,4.76739841 7.22805251,4.13489355 C6.83930054,2.92145057 6.20853254,1.84302046 5.22753075,0.996881958 C4.62434124,0.476582213 3.93399452,0.265875936 3.15075871,0.152770093 C2.66312375,0.082352377 2.16752967,0 1.67354052,0" id="Fill-16"></path>
                        <path d="M4.49011131,4.82492418 C2.51893708,4.82492418 1.19134899,6.41358734 0.56364509,8.06473605 C0.327025417,8.68711477 0.271566672,9.37053684 0.180372868,10.0240486 C0.151094008,10.2337656 0.161940422,10.5533417 0.0768154449,10.7401713 C0.0459225353,10.8079241 -0.0249019619,10.832285 0.00896079905,10.9245868 C0.0294592292,10.9804884 0.0696813456,11.0147253 0.130079082,11.0258241 C0.254070374,11.0486487 0.429388443,10.9136134 0.535689751,10.8603142 C1.41741278,10.4181183 1.99672746,9.73438275 2.46932119,8.89783501 C2.7622712,8.37932716 3.05951457,7.84106723 3.2335414,7.27183101 C3.33984271,6.9241003 3.40172537,6.5578716 3.43807377,6.19712959 C3.45237425,6.05507136 3.4662228,5.90962705 3.46538349,5.76669095 C3.46454419,5.62488353 3.39856184,5.54991968 3.35114106,5.42648484 C4.00886628,5.17751453 4.75126454,5.1096677 5.41751194,5.36766752 C6.0337238,5.60629149 6.5456035,6.06742425 6.83222643,6.64675597 C6.90669868,6.79734209 6.96412657,6.95620527 7.00596273,7.11823505 C7.03333701,7.22436331 7.03466053,7.36206354 7.08540625,7.45800223 C7.2084614,7.69060652 7.46735495,7.53509806 7.44249859,7.31857761 C7.3731913,6.71457146 7.02765556,6.10818251 6.5860193,5.68824696 C6.02901078,5.15864032 5.27399065,4.82492418 4.49011131,4.82492418" id="Fill-18"></path>
                    </g>
                    <rect id="Container" fill="#202022" x="6.61703888" y="0" width="21.9189413" height="41.6322029" rx="1.10283981"></rect>
                    <circle id="Touch" fill="#121212" cx="17.507582" cy="36.9451337" r="2.06782465"></circle>
                    <g id="Camera" transform="translate(15.439757, 2.205680)" fill="#232323">
                        <circle id="Lens" cx="0.275709953" cy="0.275709953" r="1"></circle>
                        <rect id="Sensor" x="1.24069479" y="0" width="2.89495451" height="1" rx="0.275709953"></rect>
                    </g>
                    <g id="Rows" transform="translate(8.547009, 3.859939)">
                        <g id="Row">
                            <rect id="Container" fill="#000000" x="0" y="0" width="18.0590019" height="7.44416873" rx="0.551419906"></rect>
                            <g id="Text-Stuff" transform="translate(1.240695, 2.233251)" fill="#232323">
                                <rect id="Label" x="0" y="0" width="10.0634133" height="1.11662531" rx="0.41356493"></rect>
                                <rect id="Label" x="0" y="1.86104218" width="6.75489385" height="1.11662531" rx="0.41356493"></rect>
                            </g>
                            <g id="Check" transform="translate(15.164047, 2.757100)">
                                <circle id="Background" fill="#DDE3E9" cx="0.964984836" cy="0.964984836" r="1"></circle>
                                <circle id="Indicator" fill="#F2F2F2" cx="0.964984836" cy="0.964984836" r="1"></circle>
                            </g>
                        </g>
                        <g id="Row" transform="translate(0.000000, 8.547009)">
                            <rect id="Background" fill="#000000" x="0" y="0" width="18.0590019" height="5.78990902" rx="0.551419906"></rect>
                            <g id="Text" transform="translate(5.376344, 1.736973)" fill="#232323">
                                <rect id="Name" x="0" y="0" width="10.0634133" height="1" rx="0.41356493"></rect>
                                <rect id="Name" x="0" y="1.44747725" width="6.75489385" height="1" rx="0.41356493"></rect>
                            </g>
                            <circle id="Avatar" fill="#202223" cx="2.89495451" cy="2.89495451" r="1.65425972"></circle>
                        </g>
                        <g id="Row" transform="translate(0.000000, 15.439757)">
                            <rect id="Container" fill="#000000" x="0" y="0" width="18.0590019" height="5.78990902" rx="0.551419906"></rect>
                            <g id="Text-Stuff" transform="translate(1.240695, 1.736973)" fill="#232323">
                                <rect id="Label" x="0" y="0" width="10.0634133" height="1" rx="0.41356493"></rect>
                                <rect id="Label" x="0" y="1.44747725" width="6.75489385" height="1" rx="0.41356493"></rect>
                            </g>
                            <g id="Check" transform="translate(15.164047, 1.929970)">
                                <circle id="Background" fill="#DDE3E9" cx="0.964984836" cy="0.964984836" r="1"></circle>
                                <circle id="Indicator" fill="#F2F2F2" cx="0.964984836" cy="0.964984836" r="1"></circle>
                            </g>
                        </g>
                        <g id="Row" transform="translate(0.000000, 22.332506)">
                            <rect id="Background" fill="#000000" x="0" y="0" width="18.0590019" height="5.78990902" rx="0.551419906"></rect>
                            <g id="Text" transform="translate(5.376344, 1.736973)" fill="#232323">
                                <rect id="Name" x="0" y="0" width="10.0634133" height="1" rx="0.41356493"></rect>
                                <rect id="Name" x="0" y="1.44747725" width="6.75489385" height="1" rx="0.41356493"></rect>
                            </g>
                            <circle id="Avatar" fill="#202223" cx="2.89495451" cy="2.89495451" r="1.65425972"></circle>
                        </g>
                    </g>
                </g>
                <g id="Web" transform="translate(50.063134, 9.324187)">
                    <rect id="Container" fill="#202022" x="0" y="0" width="46.1814171" height="47.6978219" rx="1.10283981"></rect>
                    <rect id="Background" fill="#000000" x="1.32588916" y="5.92776399" width="9.64984836" height="11.1662531" rx="1.10283981"></rect>
                    <g id="Profile-Info" transform="translate(2.704439, 7.995589)" fill="#232323">
                        <circle id="Avatar" cx="3.44637441" cy="2.20567963" r="2.20567963"></circle>
                        <rect id="Name" x="0" y="4.96277916" width="6.89274883" height="1" rx="0.482492418"></rect>
                        <rect id="Name" x="1.10283981" y="6.34132892" width="4.6870692" height="1" rx="0.482492418"></rect>
                    </g>
                    <path d="M1.10283981,0 L45.0785773,0 C45.6876589,3.67492552e-15 46.1814171,0.493758203 46.1814171,1.10283981 L46.1814171,3.72208437 L0,3.72208437 L0,1.10283981 C-7.45909844e-17,0.493758203 0.493758203,-1.10158128e-16 1.10283981,0 Z" id="Header" fill="#131618"></path>
                    <g id="Buttons" transform="translate(1.240695, 1.378550)" fill="#000000">
                        <circle id="buttons" cx="0.551419906" cy="0.551419906" r="1"></circle>
                        <circle id="buttons" cx="2.20567963" cy="0.551419906" r="1"></circle>
                        <circle id="buttons" cx="3.85993934" cy="0.551419906" r="1"></circle>
                    </g>
                    <g id="Components" transform="translate(1.325889, 18.196857)">
                        <rect id="Background" fill="#000000" x="0" y="0" width="9.64984836" height="26.7438655" rx="1.10283981"></rect>
                        <g id="Rows" transform="translate(2.481390, 2.481390)" fill="#232323">
                            <rect id="Data" x="0" y="0" width="4.6870692" height="3.58422939" rx="0.551419906"></rect>
                            <rect id="Data" x="0" y="4.6870692" width="4.6870692" height="3.44637441" rx="0.551419906"></rect>
                            <rect id="Data" x="0" y="9.23628343" width="4.6870692" height="3.44637441" rx="0.551419906"></rect>
                            <rect id="Data" x="0" y="18.3347119" width="4.6870692" height="3.44637441" rx="0.551419906"></rect>
                            <rect id="Data" x="0" y="13.7854977" width="4.6870692" height="3.44637441" rx="0.551419906"></rect>
                        </g>
                    </g>
                    <g id="Rows" transform="translate(13.205680, 6.065619)">
                        <g id="Row">
                            <rect id="Container" fill="#000000" x="0" y="0" width="31.0173697" height="6.4791839" rx="0.551419906"></rect>
                            <g id="Text-Stuff" transform="translate(1.240695, 1.943755)" fill="#232323">
                                <rect id="Label" x="0" y="1.77635684e-15" width="28" height="1" rx="0.41356493"></rect>
                                <rect id="Label" x="0" y="1.61979597" width="19" height="1" rx="0.41356493"></rect>
                            </g>
                        </g>
                        <g id="Row" transform="translate(0.000000, 7.582024)">
                            <rect id="Container" fill="#000000" x="0" y="0" width="31.0173697" height="5.37634409" rx="0.551419906"></rect>
                            <g id="Text-Stuff" transform="translate(1.240695, 1.612903)" fill="#232323">
                                <rect id="Label" x="0" y="-3.55271368e-15" width="28" height="1" rx="0.41356493"></rect>
                                <rect id="Label" x="0" y="1.34408602" width="19" height="1" rx="0.41356493"></rect>
                            </g>
                        </g>
                        <g id="Row" transform="translate(0.000000, 14.061208)">
                            <rect id="Container" fill="#000000" x="0" y="0" width="31.0173697" height="5.37634409" rx="0.551419906"></rect>
                            <g id="Text-Stuff" transform="translate(1.240695, 1.612903)" fill="#232323">
                                <rect id="Label" x="0" y="1.1812773e-12" width="28" height="1" rx="0.41356493"></rect>
                                <rect id="Label" x="0" y="1.34408602" width="19" height="1" rx="0.41356493"></rect>
                            </g>
                        </g>
                        <g id="Row" transform="translate(0.000000, 33.498759)">
                            <rect id="Container" fill="#000000" x="0" y="0" width="31.0173697" height="5.37634409" rx="0.551419906"></rect>
                            <g id="Text-Stuff" transform="translate(1.240695, 1.612903)" fill="#232323">
                                <rect id="Label" x="0" y="9.09494702e-13" width="28" height="1" rx="0.41356493"></rect>
                                <rect id="Label" x="0" y="1.34408602" width="19" height="1" rx="0.41356493"></rect>
                            </g>
                        </g>
                        <g id="Row" transform="translate(0.000000, 27.019575)">
                            <rect id="Container" fill="#000000" x="0" y="0" width="31.0173697" height="5.37634409" rx="0.551419906"></rect>
                            <g id="Text-Stuff" transform="translate(1.240695, 1.612903)" fill="#232323">
                                <rect id="Label" x="0" y="-4.65405492e-13" width="28" height="1" rx="0.41356493"></rect>
                                <rect id="Label" x="0" y="1.34408602" width="19" height="1" rx="0.41356493"></rect>
                            </g>
                        </g>
                        <g id="Row" transform="translate(0.000000, 20.540392)">
                            <rect id="Container" fill="#000000" x="0" y="0" width="31.0173697" height="5.37634409" rx="0.551419906"></rect>
                            <g id="Text-Stuff" transform="translate(1.240695, 1.612903)" fill="#232323">
                                <rect id="Label" x="0" y="3.58824082e-13" width="28" height="1" rx="0.41356493"></rect>
                                <rect id="Label" x="0" y="1.34408602" width="19" height="1" rx="0.41356493"></rect>
                            </g>
                        </g>
                    </g>
                </g>
                <path d="M114.519547,35.1806601 C113.975803,34.8119469 113.252729,34.7153247 112.602038,34.7153247 C110.060563,34.7153247 107.671694,35.6582595 105.607992,37.0632526 C104.477187,37.8331016 103.465595,38.8134737 102.572505,39.8342126 C102.057013,40.4234289 101.59736,41.0608569 101.271939,41.7697834 C101.052344,42.2482765 100.901621,42.7468288 100.799459,43.2610711 C100.67495,43.8877744 100.576046,44.5271885 100.531303,45.1643186 C100.51369,45.4152085 100.367905,46.7465185 100.785053,46.7690604 C100.782661,46.8018801 100.782101,46.8331607 100.784646,46.8612139 C99.8788815,48.2774779 99.319256,49.9372834 98.8003019,51.5109432 C98.348794,52.880336 97.9464582,54.2612978 97.6852759,55.677959 C97.3414275,57.5430741 97.1155717,59.4362423 97.0081668,61.3281693 C96.9851078,61.7347668 96.969277,62.1415629 96.9556351,62.5487065 C96.9440801,62.8959702 96.9323725,63.243234 96.9209703,63.5904977 C96.9082446,63.9796674 96.8397294,64.427724 96.9016272,64.8146098 C96.9554824,65.151546 97.2471046,65.1005537 97.259983,64.7652561 C97.2755592,64.3603467 97.2730141,63.954643 97.2907283,63.5494358 C97.3142963,63.0116586 97.3385769,62.4738815 97.3648936,61.9362532 C97.5480928,58.2015048 98.2353825,54.5216711 99.5037787,50.9938211 C100.017083,49.5661868 100.605265,48.2147182 101.361222,46.8940833 C102.02586,45.7329295 102.82534,44.6088158 103.642533,43.5618609 C104.436821,42.5444486 105.262617,41.5505713 106.235828,40.6885688 C107.025585,39.9890761 107.894292,39.3797013 108.78728,38.8126793 C109.921496,38.0925315 111.053524,37.3898612 112.282114,36.8370396 C112.92074,36.5497054 113.571431,36.2924601 114.215046,36.0167445 C114.33085,35.9671425 114.455002,35.91903 114.566377,35.861583 C114.937917,35.6699772 114.815597,35.3814018 114.519547,35.1806601" id="Fill-1" fill="#152729" opacity="0.5"></path>
                <path d="M107.020706,48 C105.989924,48 105.07269,48.133938 104.122938,48.5435782 C103.303111,48.897122 102.555981,49.3651551 101.830593,49.8747099 C100.810252,50.5913577 100.006564,51.4254473 99.4440014,52.5305997 C99.1079103,53.190823 98.8613732,54.1250614 99.0870782,54.8451772 C99.3529627,55.6933261 100.082996,56.4006948 101.044481,56.2512448 C101.639034,56.1589223 102.184068,55.7653564 102.635957,55.3949415 C103.176538,54.9517934 103.609271,54.418947 103.966577,53.8271455 C104.549445,52.8617892 104.891953,51.7704618 105.387087,50.7617092 C105.622034,50.2829442 105.84908,49.8007581 106.130481,49.3457533 C106.269793,49.1204301 106.418108,48.8972626 106.629446,48.7298167 C106.742514,48.6402591 107.219257,48.4852323 107.036941,48.284091 C109.710009,48.3191923 112.078068,50.3721268 112.591208,52.9132461 C112.639002,53.150098 112.676356,53.3888712 112.715817,53.6271758 C112.74072,53.7776569 112.730663,54.3325763 112.865186,54.4286948 C113.161864,54.6407555 113.037158,53.9965597 113.02442,53.9038154 C112.991519,53.6641049 112.956416,53.4245818 112.919589,53.1854804 C112.719217,51.8849511 112.140229,50.6759477 111.174673,49.7484576 C110.070524,48.6878732 108.580766,48 107.020706,48" id="Fill-20" fill="#1B3639" opacity="0.400000006" transform="translate(106.030604, 52.135649) scale(-1, 1) translate(-106.030604, -52.135649) "></path>
                <g id="Plant" opacity="0.699999988" transform="translate(9.734767, 36.357320)">
                    <path d="M1.36998291,4.92643647 C3.94325164,9.24343102 6.94029173,13.4234686 8.74012062,18.1434683 C8.66759201,17.587124 8.59068762,17.031356 8.50460897,16.4763789 C8.04792704,13.5344485 7.48034569,10.6139852 6.88391429,7.69710212 C6.58017597,6.21196692 6.25893626,4.73221385 5.9294575,3.25258731 C5.75225359,2.45787939 5.57722237,1.66268726 5.3963671,0.868736106 C5.35256001,0.676303296 5.31492074,0.340423119 5.2600764,0 C7.00922433,5.73982327 8.69599271,11.4839746 9.9298039,17.3617853 C10.0916635,18.1331852 10.2294991,18.9032146 10.3424053,19.6719041 C10.3810291,19.4965474 10.4190191,19.321161 10.4606008,19.1462848 C10.9598237,17.0498823 11.7086742,14.9701654 12.6003119,13.0099884 C13.0265676,12.0725847 13.5161823,11.1557096 14.0926594,10.3013688 C14.4521397,9.76882045 15.2999061,9.13577105 15.6278413,8.59036393 C13.834378,11.8797873 13.1867917,15.9955381 12.1512453,19.5717306 C11.8984885,20.4444238 11.6441616,21.3157003 11.3949661,22.1885117 C12.9566139,19.0566936 15.3795445,16.4835244 18.7482768,15.3684266 C14.6705562,18.0627161 12.2246995,22.7810906 10.5765279,27.6068041 C10.571097,27.6640343 10.56464,27.7212652 10.5590583,27.7785861 C11.0440535,26.8581244 11.654978,26.0255697 12.482974,25.4424604 C14.2551134,24.1941658 16.220995,24.5578152 17.940034,25.6285985 C16.5908777,24.770982 14.1525591,25.5519243 13.0173702,26.4235861 C12.2046981,27.0475605 11.5101777,27.8846696 10.9070611,28.7013511 C10.7625471,28.8971155 10.5653873,29.1255277 10.3570995,29.3692424 C10.0650715,31.2648583 9.58918,33.1474825 8.91542054,35.015164 C9.02660848,34.4790818 8.94621733,33.621709 8.97705128,33.2221282 C8.98040749,33.1788667 8.98312989,33.1355754 8.98645599,33.0924346 C8.88404037,33.5013577 8.78509288,33.9056326 8.68982373,34.3033888 C8.87920522,33.5443789 8.98213288,32.7520359 9.06248142,31.9515035 C9.08317548,31.607467 9.10335648,31.2634308 9.12468433,30.919424 C9.11792473,30.2665295 9.09103368,29.6110549 9.0455512,28.9545377 C8.88427849,28.3164745 8.70371065,27.7146251 8.55479732,27.2141136 C8.01743948,25.4081098 7.2296904,23.6779123 6.26011105,22.0638052 C5.37547585,20.5908483 4.31656791,19.2566317 3.0941251,18.049986 C2.43511793,17.3996973 1.74543488,16.7803514 1.06546501,16.1524011 C0.819584028,15.9253901 0.380096432,15.3672254 0,15.0762658 C2.76819513,16.6023941 5.61743221,18.2534455 7.63683602,20.7123803 C7.40008408,19.8032318 7.14293762,18.9069489 6.87092239,18.0286259 C5.49092188,13.5724376 3.74846094,8.95402896 1.36998291,4.92643647 Z" id="Fill-19" fill="#222A30"></path>
                    <path d="M4.1356493,29.36311 C4.1356493,34.3118981 4.52754504,38.3236835 9.78770334,38.3236835 C15.0478616,38.3236835 15.4397574,34.3118981 15.4397574,29.36311" id="Base" fill="#1C2023"></path>
                </g>
            </g>
        </g>
    </g>
</svg>