<?xml version="1.0" encoding="UTF-8"?>
<svg width="214px" height="68px" viewBox="0 0 214 68" version="1.1" xmlns="http://www.w3.org/2000/svg" xmlns:xlink="http://www.w3.org/1999/xlink">
    <!-- Generator: Sketch 56.3 (81716) - https://sketch.com -->
    <title>logo备份 2</title>
    <desc>Created with Sketch.</desc>
    <g id="Page-1" stroke="none" stroke-width="1" fill="none" fill-rule="evenodd">
        <g id="画板" transform="translate(-82.000000, -61.000000)">
            <g id="logo备份-2" transform="translate(84.000000, 63.000000)">
                <rect id="矩形" stroke="#101216" stroke-width="2" fill="#070809" x="-1" y="-1" width="212" height="66" rx="32"></rect>
                <text id="返回导航" font-family="FZFYSJW--GB1-0, FZFengYaSongS-GB" font-size="24" font-weight="normal" fill="#6E767D">
                    <tspan x="84" y="40">返回导航</tspan>
                </text>
                <g id="编组-2" transform="translate(1.020000, 0.980000)" fill-rule="nonzero">
                    <circle id="椭圆形" stroke="#31363A" stroke-width="2" fill="#31363A" cx="31" cy="31" r="31"></circle>
                    <path d="M16.55,49.02 L16.55,49.02 C15.68,49.02 14.98,42.13 14.98,42.13 C14.98,41.56 15.69,41.13 16.56,41.13 L16.56,41.13 C17.43,41.13 18.14,41.6 18.14,42.13 C18.13,42.13 17.42,49.02 16.55,49.02 Z" id="路径" fill="#000000"></path>
                    <path d="M46.91,22.53 C49.06,21.34 50.98,18.22 50.73,16.78 C50.7129486,16.5684086 50.5712921,16.387403 50.37,16.32 C50.0709888,16.2529054 49.7577219,16.3266152 49.52,16.52 C47.086874,18.3774879 44.2998752,19.7182419 41.33,20.46 C38.2,21.32 29.94,22.21 28.46,22.54 C24.3937458,23.2953967 21.0266663,26.1380327 19.6,30.02 C18.71,32.55 18.93,35.55 18.94,38.02 C18.8471383,39.8199024 18.9241456,41.6245511 19.17,43.41 L19.17,43.5 L19.17,43.6 L19.17,43.6 L19.17,43.67 L19.23,43.74 L19.23,43.74 L19.23,43.74 L19.23,43.74 C19.491468,43.9333613 19.848532,43.9333613 20.11,43.74 L20.11,43.74 C20.1951269,43.6786522 20.266628,43.6003414 20.32,43.51 L20.32,43.51 C20.79,42.89 21.1,41.75 21.65,40.82 C22.83,38.82 24.95,38.82 27.48,39.82 C27.92,40 28.35,40.14 28.75,40.26 L28.89,40.31 C29.7921693,40.6290331 30.7431164,40.7880884 31.7,40.78 L31.7,40.78 C35.0277621,40.7424661 38.0062603,38.7068302 39.25,35.62 C39.76,34.5 40.89,30.91 41.25,29.97 C41.3132405,29.781959 41.4744991,29.6437373 41.67,29.61 C42.38,29.42 42.85,29.25 43.06,29.19 C45.6750975,28.2110951 47.843764,26.3126231 49.16,23.85 C49.6825279,22.8185433 50.0658737,21.7223089 50.3,20.59 C50.3,20.48 50.2,20.42 50.12,20.51 C49.1624431,21.4948813 47.9454516,22.1883238 46.61,22.51 C46.82,22.66 46.8,22.59 46.91,22.53 Z M37.51,34.62 C36.4023964,37.7167069 33.0083063,39.3446213 29.9,38.27 C27.5387512,37.5190276 25.9259078,35.337657 25.9,32.86 C25.9029903,32.779247 25.9542821,32.7082276 26.03,32.68 C26.7205307,32.4111733 27.4289025,32.1906424 28.15,32.02 C28.193784,32.0101787 28.2396225,32.0219399 28.2732693,32.0516282 C28.306916,32.0813165 28.3242931,32.1253338 28.32,32.17 C28.1995679,33.1370026 28.4796612,34.1112086 29.0952936,34.8665857 C29.710926,35.6219629 30.6085855,36.0928524 31.58,36.17 C31.6192992,36.1878633 31.6651431,36.1834037 31.7002628,36.1583013 C31.7353825,36.1331988 31.7544423,36.091267 31.7502628,36.0483013 C31.7460832,36.0053355 31.7192992,35.9678633 31.68,35.95 C31.0718485,35.3982116 30.9002099,34.5115753 31.258509,33.7726975 C31.6168081,33.0338197 32.4192843,32.6195544 33.2291405,32.755391 C34.0389967,32.8912275 34.6623899,33.5446529 34.76,34.36 C34.76,34.4207513 34.8092487,34.47 34.87,34.47 C34.9307513,34.47 34.98,34.4207513 34.98,34.36 C35.0917699,34.1691326 35.1855085,33.968264 35.26,33.76 C35.5836228,32.8598276 35.5258331,31.8665677 35.1,31.01 C35.0804365,30.9706433 35.0804905,30.9243839 35.100146,30.885073 C35.1198014,30.8457621 35.1567765,30.8179632 35.2,30.81 C36.04,30.68 36.7,30.58 37.28,30.45 C37.3791793,30.4242181 37.4809355,30.4817325 37.51,30.58 C37.9959557,31.8828264 37.9959557,33.3171736 37.51,34.62 Z M52.98,26.16 C52.98,26.5189851 52.6889851,26.81 52.33,26.81 C51.9710149,26.81 51.68,26.5189851 51.68,26.16 C51.68,25.8010149 51.9710149,25.51 52.33,25.51 C52.6889851,25.51 52.98,25.8010149 52.98,26.16 L52.98,26.16 Z" id="形状" fill="#000000"></path>
                </g>
            </g>
        </g>
    </g>
</svg>