<?xml version="1.0" encoding="UTF-8"?>
<svg width="214px" height="68px" viewBox="0 0 214 68" version="1.1" xmlns="http://www.w3.org/2000/svg" xmlns:xlink="http://www.w3.org/1999/xlink">
    <!-- Generator: Sketch 56.3 (81716) - https://sketch.com -->
    <title>logo备份 2</title>
    <desc>Created with Sketch.</desc>
    <g id="Page-1" stroke="none" stroke-width="1" fill="none" fill-rule="evenodd">
        <g id="画板" transform="translate(-82.000000, -61.000000)">
            <g id="logo备份-2" transform="translate(84.000000, 63.000000)">
                <rect id="矩形" stroke="#101216" stroke-width="2" fill="#070809" x="-1" y="-1" width="212" height="66" rx="32"></rect>
                <path d="M93.456,22.168 L97.008,23.224 C98.7200086,22.7439976 100.207994,22.2640024 101.472,21.784 C102.416005,21.4479983 103.207997,21.0720021 103.848,20.656 L106.368,23.392 L104.856,23.344 C102.119986,23.6320014 99.3280142,23.7839999 96.48,23.8 L96.48,27.304 L101.424,27.304 L102.408,25.768 L105.936,27.568 L104.856,28.456 C104.359998,29.9920077 103.752004,31.2879947 103.032,32.344 C105.03201,33.4640056 106.032,34.6159941 106.032,35.8 C105.936,36.9200056 105.392005,37.5439994 104.4,37.672 C103.887997,37.6880001 103.520001,37.4800022 103.296,37.048 C102.559996,35.8319939 101.928003,34.920003 101.4,34.312 C99.7679918,35.8800078 97.2800167,37.2239944 93.936,38.344 L93.864,38.224 C96.4880131,36.3039904 98.4399936,34.4080094 99.72,32.536 C99.0479966,31.9119969 97.9440077,31.0400056 96.408,29.92 L96.48,29.8 C98.0640079,30.2800024 99.4159944,30.7439978 100.536,31.192 C101.048003,30.199995 101.455998,29.0880062 101.76,27.856 L96.456,27.856 C96.5520005,31.4080178 94.8480175,34.6479854 91.344,37.576 L91.224,37.48 C92.1520046,35.6399908 92.7679985,34.0640066 93.072,32.752 C93.4080017,31.4239934 93.5680001,29.76001 93.552,27.76 L93.552,26.248 C93.5359999,24.5679916 93.5040002,23.2080052 93.456,22.168 Z M90.552,36.544 C90.552,38.1760082 92.8159774,38.992 97.344,38.992 C100.496016,39.0080001 103.895982,38.8240019 107.544,38.44 L107.544,38.584 C106.583995,39.2240032 106.104,40.2639928 106.104,41.704 C103.943989,41.8480007 101.392015,41.92 98.448,41.92 C93.9039773,42.0960009 91.0080062,40.5280166 89.76,37.216 C88.7999952,38.7680078 87.8880043,40.0799946 87.024,41.152 L86.664,42.52 L84.312,39.232 C85.4160055,38.7199974 86.4959947,38.1360033 87.552,37.48 L87.552,31.144 L84.792,31.144 L84.792,30.568 L87.072,30.568 L87.984,28.888 L91.416,30.544 L90.552,31.624 L90.552,36.544 Z M86.04,21.16 L86.112,21.088 C89.5840174,22.0320047 91.2880003,23.2719923 91.224,24.808 C91.0799993,26.1200066 90.3840062,26.8639991 89.136,27.04 C88.4959968,27.0560001 88.0960008,26.6720039 87.936,25.888 C87.5519981,23.9839905 86.9200044,22.4080062 86.04,21.16 Z M110.376,21.856 L113.976,22.936 L125.928,22.936 L126.912,21.16 L130.368,23.008 L129.456,24.112 L129.456,31.432 C129.456,35.4480201 129.504,38.6319882 129.6,40.984 C129.632,41.4640024 129.424002,41.7359997 128.976,41.8 C128.127996,41.992001 127.296004,42.088 126.48,42.088 L126.48,40.312 L113.4,40.312 L113.4,41.104 C113.432,41.5680023 113.232002,41.8319997 112.8,41.896 C111.679994,42.104001 110.840003,42.2000001 110.28,42.184 C110.408001,39.4479863 110.472,36.7920129 110.472,34.216 L110.472,27.616 C110.472,25.5199895 110.44,23.6000087 110.376,21.856 Z M126.48,23.512 L113.4,23.512 L113.4,39.784 L126.48,39.784 L126.48,23.512 Z M115.488,26.752 L118.728,27.664 L121.032,27.664 L121.92,26.104 L125.088,27.736 L124.296,28.648 L124.296,30.832 C124.28,32.7040094 124.288,34.2159942 124.32,35.368 C124.352,35.8160022 124.168002,36.0719997 123.768,36.136 C123.079997,36.2800007 122.304004,36.3679998 121.44,36.4 L121.44,34.792 L118.368,34.792 L118.368,35.776 C118.384,36.2720025 118.160002,36.5599996 117.696,36.64 C116.959996,36.7840007 116.224004,36.856 115.488,36.856 C115.504,36.104 115.52,35.4480028 115.536,34.888 L115.536,30.088 C115.536,28.9039941 115.52,27.7920052 115.488,26.752 Z M121.44,28.24 L118.368,28.24 L118.368,34.216 L121.44,34.216 L121.44,28.24 Z M150.48,23.656 C150.48,24.632 150.512,25.5599956 150.576,26.44 C150.592,26.7760017 150.440002,26.9759997 150.12,27.04 C149.351996,27.2000008 148.480005,27.28 147.504,27.28 L147.504,26.392 L138.72,26.392 L138.72,27.856 C138.672,28.6240038 139.103995,28.9760003 140.016,28.912 L149.496,28.912 C150.344004,28.9440002 150.919998,28.6080035 151.224,27.904 L152.664,24.88 L152.808,24.928 L152.88,27.184 C152.912,27.8240032 153.079998,28.2639988 153.384,28.504 C153.784002,28.8080015 153.976,29.1359982 153.96,29.488 C154.024,30.6720059 152.624014,31.2560001 149.76,31.24 L138.672,31.24 C136.65599,31.2880002 135.68,30.4400087 135.744,28.696 L135.744,24.568 C135.744,23.2559934 135.712,22.200004 135.648,21.4 L139.512,22.216 L147.024,22.216 L147.888,20.632 L151.344,22.24 L150.48,23.32 L150.48,23.656 Z M132.96,34.552 L132.96,33.976 L146.136,33.976 C146.136,32.9359948 146.112,32.1040031 146.064,31.48 L150.072,32.104 L149.184,32.92 L149.184,33.976 L150.72,33.976 L152.376,31.888 L155.16,33.856 C155.272001,33.9520005 155.328,34.0559994 155.328,34.168 C155.312,34.4080012 155.056002,34.5359999 154.56,34.552 L149.184,34.552 C149.184,36.0400074 149.216,37.5759921 149.28,39.16 C149.552001,41.0160093 148.168015,42.0799986 145.128,42.352 C145.208,40.7359919 144.064012,39.7440018 141.696,39.376 L141.744,39.232 L144.864,39.304 C145.744004,39.3520002 146.176,38.9520042 146.16,38.104 L146.16,34.552 L132.96,34.552 Z M147.504,22.792 L138.72,22.792 L138.72,25.816 L147.504,25.816 L147.504,22.792 Z M137.208,35.08 L137.28,34.984 C140.320015,35.592003 141.824,36.591993 141.792,37.984 C141.712,39.1360058 141.072006,39.7599995 139.872,39.856 C139.199997,39.8239998 138.784001,39.4320038 138.624,38.68 C138.351999,37.2399928 137.880003,36.0400048 137.208,35.08 Z M158.304,30.592 L158.304,25.288 C158.288,24.6479968 158.272,23.9440038 158.256,23.176 L160.896,23.8 C160.912,22.8559953 160.896,21.8080058 160.848,20.656 L164.184,21.352 L163.344,21.928 C162.687997,22.7120039 162.080003,23.3439976 161.52,23.824 L163.8,23.824 L164.568,22.48 L167.28,23.992 L166.608,24.952 L166.608,39.256 C166.64,41.1120093 165.456012,42.135999 163.056,42.328 C163.168001,40.9039929 162.296009,40.0080018 160.44,39.64 L160.464,39.496 L162.96,39.592 C163.728004,39.6240002 164.104,39.2960034 164.088,38.608 L164.088,31.168 L160.8,31.168 C160.848,36.160025 159.488014,39.8959876 156.72,42.376 L156.6,42.28 C157.784006,39.3999856 158.352,35.6960226 158.304,31.168 L156.672,31.168 L156.672,30.592 L158.304,30.592 Z M176.4,38.368 C176.4,38.8000022 176.543999,39.016 176.832,39.016 C177.120001,39.0640002 177.327999,38.8000029 177.456,38.224 L178.56,33.952 L178.704,33.952 L178.848,37.696 C178.864,38.288003 178.999999,38.6959989 179.256,38.92 C179.592002,39.2080014 179.76,39.5439981 179.76,39.928 C179.728,41.0960058 178.920008,41.6879999 177.336,41.704 L175.632,41.704 C174.271993,41.7360002 173.6,41.048007 173.616,39.64 L173.616,28.576 L171.456,28.576 L171.456,30.928 C171.648001,36.6080284 169.984018,40.4719898 166.464,42.52 L166.344,42.424 C167.288005,40.8559922 167.911998,39.3040077 168.216,37.768 C168.552002,36.167992 168.72,33.9120146 168.72,31 L168.72,30.424 C168.72,29.7679967 168.688,28.6880075 168.624,27.184 L172.08,28 L173.304,28 L174.12,26.536 L177.192,28.144 L176.4,29.176 L176.4,38.368 Z M164.088,24.4 L160.824,24.4 L160.824,29.464 C160.824,29.8480019 160.816,30.2239982 160.8,30.592 L164.088,30.592 L164.088,24.4 Z M167.256,25.432 L167.256,24.856 L175.2,24.856 L176.568,22.888 L179.208,24.808 C179.304,24.8720003 179.344,24.9599994 179.328,25.072 C179.296,25.2960011 179.056002,25.4159999 178.608,25.432 L167.256,25.432 Z M170.208,20.872 L170.256,20.776 C172.864013,21.0640014 174.144,21.7599945 174.096,22.864 C174.016,23.9360054 173.392006,24.5119996 172.224,24.592 C171.583997,24.6400002 171.232,24.3280034 171.168,23.656 C171.007999,22.5999947 170.688002,21.672004 170.208,20.872 Z M161.112,32.368 L161.208,32.32 C162.760008,33.5680062 163.512,34.687995 163.464,35.68 C163.432,36.6400048 162.992004,37.1359998 162.144,37.168 C161.599997,37.1359998 161.344,36.8080031 161.376,36.184 C161.456,34.8879935 161.368001,33.6160062 161.112,32.368 Z M161.064,25.528 L161.136,25.48 C162.736008,26.3920046 163.56,27.3199953 163.608,28.264 C163.576,29.1760046 163.120004,29.6479998 162.24,29.68 C161.807998,29.6639999 161.584,29.3680029 161.568,28.792 C161.552,27.7199946 161.384002,26.6320055 161.064,25.528 Z" id="返回导航" fill="#6E767D" fill-rule="nonzero"></path>
                <g id="编组-2" transform="translate(1.020000, 0.980000)" fill-rule="nonzero">
                    <circle id="椭圆形" stroke="#31363A" stroke-width="2" fill="#31363A" cx="31" cy="31" r="31"></circle>
                    <path d="M16.55,49.02 L16.55,49.02 C15.68,49.02 14.98,42.13 14.98,42.13 C14.98,41.56 15.69,41.13 16.56,41.13 L16.56,41.13 C17.43,41.13 18.14,41.6 18.14,42.13 C18.13,42.13 17.42,49.02 16.55,49.02 Z" id="路径" fill="#000000"></path>
                    <path d="M46.91,22.53 C49.06,21.34 50.98,18.22 50.73,16.78 C50.7129486,16.5684086 50.5712921,16.387403 50.37,16.32 C50.0709888,16.2529054 49.7577219,16.3266152 49.52,16.52 C47.086874,18.3774879 44.2998752,19.7182419 41.33,20.46 C38.2,21.32 29.94,22.21 28.46,22.54 C24.3937458,23.2953967 21.0266663,26.1380327 19.6,30.02 C18.71,32.55 18.93,35.55 18.94,38.02 C18.8471383,39.8199024 18.9241456,41.6245511 19.17,43.41 L19.17,43.5 L19.17,43.6 L19.17,43.6 L19.17,43.67 L19.23,43.74 L19.23,43.74 L19.23,43.74 L19.23,43.74 C19.491468,43.9333613 19.848532,43.9333613 20.11,43.74 L20.11,43.74 C20.1951269,43.6786522 20.266628,43.6003414 20.32,43.51 L20.32,43.51 C20.79,42.89 21.1,41.75 21.65,40.82 C22.83,38.82 24.95,38.82 27.48,39.82 C27.92,40 28.35,40.14 28.75,40.26 L28.89,40.31 C29.7921693,40.6290331 30.7431164,40.7880884 31.7,40.78 L31.7,40.78 C35.0277621,40.7424661 38.0062603,38.7068302 39.25,35.62 C39.76,34.5 40.89,30.91 41.25,29.97 C41.3132405,29.781959 41.4744991,29.6437373 41.67,29.61 C42.38,29.42 42.85,29.25 43.06,29.19 C45.6750975,28.2110951 47.843764,26.3126231 49.16,23.85 C49.6825279,22.8185433 50.0658737,21.7223089 50.3,20.59 C50.3,20.48 50.2,20.42 50.12,20.51 C49.1624431,21.4948813 47.9454516,22.1883238 46.61,22.51 C46.82,22.66 46.8,22.59 46.91,22.53 Z M37.51,34.62 C36.4023964,37.7167069 33.0083063,39.3446213 29.9,38.27 C27.5387512,37.5190276 25.9259078,35.337657 25.9,32.86 C25.9029903,32.779247 25.9542821,32.7082276 26.03,32.68 C26.7205307,32.4111733 27.4289025,32.1906424 28.15,32.02 C28.193784,32.0101787 28.2396225,32.0219399 28.2732693,32.0516282 C28.306916,32.0813165 28.3242931,32.1253338 28.32,32.17 C28.1995679,33.1370026 28.4796612,34.1112086 29.0952936,34.8665857 C29.710926,35.6219629 30.6085855,36.0928524 31.58,36.17 C31.6192992,36.1878633 31.6651431,36.1834037 31.7002628,36.1583013 C31.7353825,36.1331988 31.7544423,36.091267 31.7502628,36.0483013 C31.7460832,36.0053355 31.7192992,35.9678633 31.68,35.95 C31.0718485,35.3982116 30.9002099,34.5115753 31.258509,33.7726975 C31.6168081,33.0338197 32.4192843,32.6195544 33.2291405,32.755391 C34.0389967,32.8912275 34.6623899,33.5446529 34.76,34.36 C34.76,34.4207513 34.8092487,34.47 34.87,34.47 C34.9307513,34.47 34.98,34.4207513 34.98,34.36 C35.0917699,34.1691326 35.1855085,33.968264 35.26,33.76 C35.5836228,32.8598276 35.5258331,31.8665677 35.1,31.01 C35.0804365,30.9706433 35.0804905,30.9243839 35.100146,30.885073 C35.1198014,30.8457621 35.1567765,30.8179632 35.2,30.81 C36.04,30.68 36.7,30.58 37.28,30.45 C37.3791793,30.4242181 37.4809355,30.4817325 37.51,30.58 C37.9959557,31.8828264 37.9959557,33.3171736 37.51,34.62 Z M52.98,26.16 C52.98,26.5189851 52.6889851,26.81 52.33,26.81 C51.9710149,26.81 51.68,26.5189851 51.68,26.16 C51.68,25.8010149 51.9710149,25.51 52.33,25.51 C52.6889851,25.51 52.98,25.8010149 52.98,26.16 L52.98,26.16 Z" id="形状" fill="#000000"></path>
                </g>
            </g>
        </g>
    </g>
</svg>