<?xml version="1.0" encoding="UTF-8"?>
<svg width="144px" height="104px" viewBox="0 0 144 104" version="1.1" xmlns="http://www.w3.org/2000/svg" xmlns:xlink="http://www.w3.org/1999/xlink">
    <!-- Generator: Sketch 56.3 (81716) - https://sketch.com -->
    <title>logo备份 2</title>
    <desc>Created with Sketch.</desc>
    <g id="Page-1" stroke="none" stroke-width="1" fill="none" fill-rule="evenodd">
        <g id="画板" transform="translate(-35.000000, -299.000000)" fill-rule="nonzero">
            <g id="logo备份-2" transform="translate(35.000000, 300.000000)">
                <circle id="椭圆形" stroke="#6E767D" stroke-width="2" fill="#6E767D" cx="71.02" cy="32.98" r="32.02"></circle>
                <path d="M7.704,95.512 L7.632,95.392 C9.77601072,91.8399822 11.0799977,88.3200174 11.544,84.832 L15.456,85.984 L14.328,86.68 C14.1519991,87.1920026 13.968001,87.6319982 13.776,88 L17.736,88 L18.816,86.368 L22.488,88.36 L21.264,89.32 C20.1919946,92.5840163 18.7680089,95.1759904 16.992,97.096 C18.400007,97.7520033 20.5599854,98.2319985 23.472,98.536 L23.424,98.68 C22.4799953,99.3680034 21.7600025,100.503992 21.264,102.088 C18.3359854,101.191996 16.2160066,100.160006 14.904,98.992 C12.9839904,100.432007 10.4480158,101.647995 7.296,102.64 L7.224,102.52 C9.81601296,100.775991 11.8879922,99.0480086 13.44,97.336 C12.6239959,96.2319945 11.8480037,94.5600112 11.112,92.32 C10.2959959,93.2800048 9.16000728,94.3439942 7.704,95.512 Z M0.816,84.76 L0.816,84.184 L10.824,84.184 C10.4399981,84.0719994 10.2160003,83.7680025 10.152,83.272 C9.95999904,82.1199942 9.68800176,81.3120023 9.336,80.848 L9.432,80.728 C12.1200134,80.6799998 13.4799998,81.3039935 13.512,82.6 C13.4639998,83.3680038 12.9600048,83.8959986 12,84.184 L18.456,84.184 L20.136,81.928 L23.064,84.088 C23.1760006,84.1680004 23.232,84.2479996 23.232,84.328 C23.1679997,84.5840013 22.9200022,84.7279998 22.488,84.76 L6.48,84.76 L9.792,86.176 L8.544,86.848 C7.8239964,88.0800062 7.04800416,89.1759952 6.216,90.136 L7.752,90.424 L6.84,91.264 L6.84,101.296 C6.85600008,101.824003 6.60800256,102.128 6.096,102.208 C5.26399584,102.336001 4.4880036,102.392 3.768,102.376 C3.86400048,99.9599879 3.912,97.4240133 3.912,94.768 L3.912,92.416 C2.9519952,93.2320041 1.88000592,93.9999964 0.696,94.72 L0.648,94.576 C3.17601264,91.2159832 4.88799552,87.9440159 5.784,84.76 L0.816,84.76 Z M18.12,88.576 L13.56,88.576 C13.4159993,88.9120017 13.2240012,89.2639982 12.984,89.632 C15.192011,90.1440026 16.2160008,90.8799952 16.056,91.84 C15.9439994,92.7840047 15.4080048,93.3119994 14.448,93.424 C13.8879972,93.4400001 13.5680004,93.1200033 13.488,92.464 L13.416,91.96 C13.3199995,91.1279958 13.1360014,90.4240029 12.864,89.848 C12.4159978,90.6320039 11.9200027,91.3519967 11.376,92.008 C12.5280058,93.6400082 13.6559945,94.8799958 14.76,95.728 C16.3280078,93.6159894 17.4479966,91.2320133 18.12,88.576 Z M45.84,95.08 C45.84,95.9280042 45.8639998,97.5279882 45.912,99.88 C45.9280001,100.536003 45.936,100.983999 45.936,101.224 C45.9680002,101.672002 45.8000018,101.92 45.432,101.968 C44.839997,102.112001 44.048005,102.208 43.056,102.256 L43.056,100.936 L35.664,100.936 L35.664,101.368 C35.7280003,101.880003 35.5360022,102.144 35.088,102.16 C34.2399958,102.304001 33.4880033,102.368 32.832,102.352 C32.8800002,100.559991 32.9119999,98.4800118 32.928,96.112 L32.928,93.232 C32.9119999,91.023989 32.8960001,89.5520037 32.88,88.816 L36.288,89.608 L42.696,89.608 L43.584,88.072 L46.704,89.656 L45.84,90.712 L45.84,95.08 Z M24.768,88.936 L24.672,88.816 C25.7600054,87.6639942 26.6879962,86.5280056 27.456,85.408 C26.9599975,84.3199946 26.208005,83.1520062 25.2,81.904 L25.296,81.784 C26.5440062,82.6640044 27.5199965,83.4799962 28.224,84.232 C28.8960034,83.0959943 29.4239981,81.9200061 29.808,80.704 L33.192,82.528 L32.016,83.104 C31.2479962,84.1760054 30.4240044,85.111996 29.544,85.912 C30.9680071,87.9440102 31.6480003,91.3839758 31.584,96.232 C31.6160002,100.056019 30.1040153,102.103999 27.048,102.376 C27.048,100.871992 26.2720078,99.9120021 24.72,99.496 L24.744,99.352 L27.024,99.496 C28.224006,99.4639998 28.8479998,98.248012 28.896,95.848 C28.896,94.855995 28.8800002,93.9520041 28.848,93.136 C27.7919947,94.2720057 26.4320083,95.3039954 24.768,96.232 L24.672,96.136 C26.3520084,93.8959888 27.6479954,91.6560112 28.56,89.416 C28.4479994,88.5359956 28.2800011,87.7520034 28.056,87.064 C27.1759956,87.6880031 26.0800066,88.3119969 24.768,88.936 Z M31.872,85 L31.872,84.448 L35.4,84.448 L35.4,83.704 C35.4,82.5679943 35.3840002,81.600004 35.352,80.8 L38.856,81.4 L38.04,82.24 L38.04,84.448 L40.584,84.448 L40.584,83.296 C40.584,82.7679974 40.5680002,81.9440056 40.536,80.824 L44.04,81.424 L43.224,82.24 L43.224,84.448 L43.704,84.448 L44.928,82.672 L47.28,84.376 C47.3760005,84.4400003 47.424,84.5279994 47.424,84.64 C47.3919998,84.8640011 47.1600022,84.9839999 46.728,85 L43.224,85 C43.2560002,85.7840039 43.272,86.5439963 43.272,87.28 C43.272,87.5840015 43.1200015,87.7759996 42.816,87.856 C42.2559972,87.9840006 41.5120046,88.0639998 40.584,88.096 L40.584,85 L38.04,85 L38.04,87.496 C38.04,87.8480018 37.8640018,88.0639996 37.512,88.144 C36.8239966,88.2720006 36.1200036,88.3439999 35.4,88.36 L35.4,85 L31.872,85 Z M35.664,95.416 L35.664,100.36 L38.016,100.36 L38.016,95.416 L35.664,95.416 Z M40.704,95.416 L40.704,100.36 L43.056,100.36 L43.056,95.416 L40.704,95.416 Z M35.664,90.184 L35.664,94.84 L38.016,94.84 L38.016,90.184 L35.664,90.184 Z M43.056,90.184 L40.704,90.184 L40.704,94.84 L43.056,94.84 L43.056,90.184 Z M53.904,102.352 C56.8160146,100.783992 59.1039917,99.1680083 60.768,97.504 C59.6799946,96.095993 58.8720026,94.1520124 58.344,91.672 L56.304,91.672 L56.304,91.096 L64.536,91.096 L65.616,89.608 L69.168,91.744 L67.968,92.656 C67.0399954,94.448009 66.0400054,95.9199942 64.968,97.072 C66.7120087,97.8240038 68.8559873,98.3359986 71.4,98.608 L71.4,98.752 C70.3279946,99.552004 69.5040029,100.703992 68.928,102.208 C66.1119859,101.407996 63.9680074,100.424006 62.496,99.256 C60.287989,100.792008 57.4480174,101.863997 53.976,102.472 L53.904,102.352 Z M57.936,81.016 L61.704,81.904 L63.816,81.904 L64.68,80.464 L67.824,81.976 L67.032,82.936 L67.032,86.176 C66.9999998,86.7040026 67.2399974,86.9520002 67.752,86.92 L68.088,86.92 C68.5680024,86.9360001 68.9519986,86.7520019 69.24,86.368 L69.336,86.368 C70.6320065,87.3120047 71.248,87.9919979 71.184,88.408 C70.9439988,89.016003 70.0080082,89.3439998 68.376,89.392 L66.648,89.392 C64.9199914,89.4880005 64.1039995,88.5840095 64.2,86.68 L64.2,82.48 L61.008,82.48 L61.008,83.32 C61.2640013,86.9520182 59.3760202,89.6159915 55.344,91.312 L55.248,91.192 C56.3840057,89.9279937 57.1279982,88.792005 57.48,87.784 C57.8640019,86.791995 58.0480001,85.4320086 58.032,83.704 C58.032,82.7279951 58.0000003,81.8320041 57.936,81.016 Z M51.288,89.128 L48.744,89.128 L48.744,88.552 L50.904,88.552 L51.768,86.992 L55.008,88.648 L54.072,89.656 L54.072,96.208 L57.456,94.696 L57.528,94.816 C56.0239925,96.5920089 54.472008,98.2239926 52.872,99.712 L52.344,100.864 L50.184,97.936 C50.9520038,97.4879978 51.3200002,96.8960037 51.288,96.16 L51.288,89.128 Z M64.8,91.672 L58.584,91.672 C59.8000061,93.3680085 61.0799933,94.6879953 62.424,95.632 C63.3360046,94.4799942 64.1279966,93.1600074 64.8,91.672 Z M50.472,80.992 L50.544,80.92 C53.6480155,81.512003 55.1600004,82.4879932 55.08,83.848 C54.9199992,84.9840057 54.2800056,85.6319992 53.16,85.792 C52.5999972,85.8080001 52.224001,85.416004 52.032,84.616 C51.6479981,83.1759928 51.1280033,81.9680049 50.472,80.992 Z M85.656,81.016 L90.024,81.616 L88.968,82.6 L88.968,89.464 L90.72,89.464 L92.496,87.088 L95.52,89.368 C95.6320006,89.4640005 95.688,89.5519996 95.688,89.632 C95.6399998,89.8720012 95.3920022,90.0079998 94.944,90.04 L88.968,90.04 L88.968,93.448 C88.968,94.1680036 88.9999997,96.8959763 89.064,101.632 C89.0800001,102.000002 88.9200017,102.208 88.584,102.256 C87.6239952,102.432001 86.648005,102.512 85.656,102.496 C85.7520005,98.3519793 85.8,95.6560062 85.8,94.408 L85.8,90.04 L80.448,90.04 L80.448,89.464 L85.8,89.464 L85.8,86.008 C85.7839999,84.2479912 85.7360004,82.5840078 85.656,81.016 Z M78.456,96.52 L82.392,94.552 L82.464,94.624 C80.7039912,96.816011 78.9600086,98.6959922 77.232,100.264 L76.68,101.416 L74.376,98.248 C75.1440038,97.7999978 75.5120002,97.208 75.48,96.472 L75.48,89.416 L72.504,89.416 L72.504,88.84 L74.952,88.84 L75.912,87.208 L79.512,88.96 L78.456,90.04 L78.456,96.52 Z M74.688,81.064 L74.736,80.968 C77.8560156,81.5120027 79.3760004,82.5039928 79.296,83.944 C79.1679994,85.1120058 78.5280058,85.7599994 77.376,85.888 C76.6559964,85.888 76.2080009,85.5040038 76.032,84.736 C75.7119984,83.2319925 75.2640029,82.0080047 74.688,81.064 Z M114.48,83.656 C114.48,84.632 114.512,85.5599956 114.576,86.44 C114.592,86.7760017 114.440002,86.9759997 114.12,87.04 C113.351996,87.2000008 112.480005,87.28 111.504,87.28 L111.504,86.392 L102.72,86.392 L102.72,87.856 C102.672,88.6240038 103.103995,88.9760003 104.016,88.912 L113.496,88.912 C114.344004,88.9440002 114.919998,88.6080035 115.224,87.904 L116.664,84.88 L116.808,84.928 L116.88,87.184 C116.912,87.8240032 117.079998,88.2639988 117.384,88.504 C117.784002,88.8080015 117.976,89.1359982 117.96,89.488 C118.024,90.6720059 116.624014,91.2560001 113.76,91.24 L102.672,91.24 C100.65599,91.2880002 99.6799997,90.4400087 99.744,88.696 L99.744,84.568 C99.744,83.2559934 99.7120003,82.200004 99.648,81.4 L103.512,82.216 L111.024,82.216 L111.888,80.632 L115.344,82.24 L114.48,83.32 L114.48,83.656 Z M96.96,94.552 L96.96,93.976 L110.136,93.976 C110.136,92.9359948 110.112,92.1040031 110.064,91.48 L114.072,92.104 L113.184,92.92 L113.184,93.976 L114.72,93.976 L116.376,91.888 L119.16,93.856 C119.272001,93.9520005 119.328,94.0559994 119.328,94.168 C119.312,94.4080012 119.056002,94.5359999 118.56,94.552 L113.184,94.552 C113.184,96.0400074 113.216,97.5759921 113.28,99.16 C113.552001,101.016009 112.168015,102.079999 109.128,102.352 C109.208,100.735992 108.064012,99.7440018 105.696,99.376 L105.744,99.232 L108.864,99.304 C109.744004,99.3520002 110.176,98.9520042 110.16,98.104 L110.16,94.552 L96.96,94.552 Z M111.504,82.792 L102.72,82.792 L102.72,85.816 L111.504,85.816 L111.504,82.792 Z M101.208,95.08 L101.28,94.984 C104.320015,95.592003 105.824,96.591993 105.792,97.984 C105.712,99.1360058 105.072006,99.7599995 103.872,99.856 C103.199997,99.8239998 102.784001,99.4320038 102.624,98.68 C102.351999,97.2399928 101.880003,96.0400048 101.208,95.08 Z M122.304,90.592 L122.304,85.288 C122.288,84.6479968 122.272,83.9440038 122.256,83.176 L124.896,83.8 C124.912,82.8559953 124.896,81.8080058 124.848,80.656 L128.184,81.352 L127.344,81.928 C126.687997,82.7120039 126.080003,83.3439976 125.52,83.824 L127.8,83.824 L128.568,82.48 L131.28,83.992 L130.608,84.952 L130.608,99.256 C130.64,101.112009 129.456012,102.135999 127.056,102.328 C127.168001,100.903993 126.296009,100.008002 124.44,99.64 L124.464,99.496 L126.96,99.592 C127.728004,99.6240002 128.104,99.2960034 128.088,98.608 L128.088,91.168 L124.8,91.168 C124.848,96.160025 123.488014,99.8959876 120.72,102.376 L120.6,102.28 C121.784006,99.3999856 122.352,95.6960226 122.304,91.168 L120.672,91.168 L120.672,90.592 L122.304,90.592 Z M140.4,98.368 C140.4,98.8000022 140.543999,99.016 140.832,99.016 C141.120001,99.0640002 141.327999,98.8000029 141.456,98.224 L142.56,93.952 L142.704,93.952 L142.848,97.696 C142.864,98.288003 142.999999,98.6959989 143.256,98.92 C143.592002,99.2080014 143.76,99.5439981 143.76,99.928 C143.728,101.096006 142.920008,101.688 141.336,101.704 L139.632,101.704 C138.271993,101.736 137.6,101.048007 137.616,99.64 L137.616,88.576 L135.456,88.576 L135.456,90.928 C135.648001,96.6080284 133.984018,100.47199 130.464,102.52 L130.344,102.424 C131.288005,100.855992 131.911998,99.3040077 132.216,97.768 C132.552002,96.167992 132.72,93.9120146 132.72,91 L132.72,90.424 C132.72,89.7679967 132.688,88.6880075 132.624,87.184 L136.08,88 L137.304,88 L138.12,86.536 L141.192,88.144 L140.4,89.176 L140.4,98.368 Z M128.088,84.4 L124.824,84.4 L124.824,89.464 C124.824,89.8480019 124.816,90.2239982 124.8,90.592 L128.088,90.592 L128.088,84.4 Z M131.256,85.432 L131.256,84.856 L139.2,84.856 L140.568,82.888 L143.208,84.808 C143.304,84.8720003 143.344,84.9599994 143.328,85.072 C143.296,85.2960011 143.056002,85.4159999 142.608,85.432 L131.256,85.432 Z M134.208,80.872 L134.256,80.776 C136.864013,81.0640014 138.144,81.7599945 138.096,82.864 C138.016,83.9360054 137.392006,84.5119996 136.224,84.592 C135.583997,84.6400002 135.232,84.3280034 135.168,83.656 C135.007999,82.5999947 134.688002,81.672004 134.208,80.872 Z M125.112,92.368 L125.208,92.32 C126.760008,93.5680062 127.512,94.687995 127.464,95.68 C127.432,96.6400048 126.992004,97.1359998 126.144,97.168 C125.599997,97.1359998 125.344,96.8080031 125.376,96.184 C125.456,94.8879935 125.368001,93.6160062 125.112,92.368 Z M125.064,85.528 L125.136,85.48 C126.736008,86.3920046 127.56,87.3199953 127.608,88.264 C127.576,89.1760046 127.120004,89.6479998 126.24,89.68 C125.807998,89.6639999 125.584,89.3680029 125.568,88.792 C125.552,87.7199946 125.384002,86.6320055 125.064,85.528 Z" id="夜猫设计导航" fill="#6E767D"></path>
                <path d="M56.57,51 L56.57,51 C55.7,51 55,44.11 55,44.11 C55,43.54 55.71,43.11 56.58,43.11 L56.58,43.11 C57.45,43.11 58.16,43.58 58.16,44.11 C58.15,44.11 57.44,51 56.57,51 Z" id="路径" fill="#000000"></path>
                <path d="M86.93,24.51 C89.08,23.32 91,20.2 90.75,18.76 C90.7329486,18.5484086 90.5912921,18.367403 90.39,18.3 C90.0909888,18.2329054 89.7777219,18.3066152 89.54,18.5 C87.106874,20.3574879 84.3198752,21.6982419 81.35,22.44 C78.22,23.3 69.96,24.19 68.48,24.52 C64.4137458,25.2753967 61.0466663,28.1180327 59.62,32 C58.73,34.53 58.95,37.53 58.96,40 C58.8671383,41.7999024 58.9441456,43.6045511 59.19,45.39 L59.19,45.48 L59.19,45.58 L59.19,45.58 L59.19,45.65 L59.25,45.72 L59.25,45.72 L59.25,45.72 L59.25,45.72 C59.511468,45.9133613 59.868532,45.9133613 60.13,45.72 L60.13,45.72 C60.2151269,45.6586522 60.286628,45.5803414 60.34,45.49 L60.34,45.49 C60.81,44.87 61.12,43.73 61.67,42.8 C62.85,40.8 64.97,40.8 67.5,41.8 C67.94,41.98 68.37,42.12 68.77,42.24 L68.91,42.29 C69.8121693,42.6090331 70.7631164,42.7680884 71.72,42.76 L71.72,42.76 C75.0477621,42.7224661 78.0262603,40.6868302 79.27,37.6 C79.78,36.48 80.91,32.89 81.27,31.95 C81.3332405,31.761959 81.4944991,31.6237373 81.69,31.59 C82.4,31.4 82.87,31.23 83.08,31.17 C85.6950975,30.1910951 87.863764,28.2926231 89.18,25.83 C89.7025279,24.7985433 90.0858737,23.7023089 90.32,22.57 C90.32,22.46 90.22,22.4 90.14,22.49 C89.1824431,23.4748813 87.9654516,24.1683238 86.63,24.49 C86.84,24.64 86.82,24.57 86.93,24.51 Z M77.53,36.6 C76.4223964,39.6967069 73.0283063,41.3246213 69.92,40.25 C67.5587512,39.4990276 65.9459078,37.317657 65.92,34.84 C65.9229903,34.759247 65.9742821,34.6882276 66.05,34.66 C66.7405307,34.3911733 67.4489025,34.1706424 68.17,34 C68.213784,33.9901787 68.2596225,34.0019399 68.2932693,34.0316282 C68.326916,34.0613165 68.3442931,34.1053338 68.34,34.15 C68.2195679,35.1170026 68.4996612,36.0912086 69.1152936,36.8465857 C69.730926,37.6019629 70.6285855,38.0728524 71.6,38.15 C71.6392992,38.1678633 71.6851431,38.1634037 71.7202628,38.1383013 C71.7553825,38.1131988 71.7744423,38.071267 71.7702628,38.0283013 C71.7660832,37.9853355 71.7392992,37.9478633 71.7,37.93 C71.0918485,37.3782116 70.9202099,36.4915753 71.278509,35.7526975 C71.6368081,35.0138197 72.4392843,34.5995544 73.2491405,34.735391 C74.0589967,34.8712275 74.6823899,35.5246529 74.78,36.34 C74.78,36.4007513 74.8292487,36.45 74.89,36.45 C74.9507513,36.45 75,36.4007513 75,36.34 C75.1117699,36.1491326 75.2055085,35.948264 75.28,35.74 C75.6036228,34.8398276 75.5458331,33.8465677 75.12,32.99 C75.1004365,32.9506433 75.1004905,32.9043839 75.120146,32.865073 C75.1398014,32.8257621 75.1767765,32.7979632 75.22,32.79 C76.06,32.66 76.72,32.56 77.3,32.43 C77.3991793,32.4042181 77.5009355,32.4617325 77.53,32.56 C78.0159557,33.8628264 78.0159557,35.2971736 77.53,36.6 Z M93,28.14 C93,28.4989851 92.7089851,28.79 92.35,28.79 C91.9910149,28.79 91.7,28.4989851 91.7,28.14 C91.7,27.7810149 91.9910149,27.49 92.35,27.49 C92.7089851,27.49 93,27.7810149 93,28.14 L93,28.14 Z" id="形状" fill="#000000"></path>
            </g>
        </g>
    </g>
</svg>