<?xml version="1.0" encoding="UTF-8"?>
<svg width="210px" height="170px" viewBox="0 0 210 170" version="1.1" xmlns="http://www.w3.org/2000/svg" xmlns:xlink="http://www.w3.org/1999/xlink">
    <!-- Generator: Sketch 56.3 (81716) - https://sketch.com -->
    <title>画板备份 8</title>
    <desc>Created with Sketch.</desc>
    <g id="画板备份-8" stroke="none" stroke-width="1" fill="none" fill-rule="evenodd">
        <rect fill="#000000" x="0" y="0" width="210" height="170"></rect>
        <g id="编组-2" transform="translate(42.000000, 0.000000)">
            <g id="QRCode">
                <g id="编组" transform="translate(62.027972, 62.891006) scale(-1, 1) rotate(-180.000000) translate(-62.027972, -62.891006) translate(0.027972, 0.891006)">
                    <path d="M0.0559454558,123.36359 C0.0223781823,123.285137 0.0111890912,118.028706 0.0223781823,111.673918 L0.0559454558,100.129946 L11.6926003,100.129946 L23.3292551,100.129946 L23.3292551,111.785995 L23.3292551,123.442044 L11.7149784,123.475667 C2.48397824,123.498083 0.0895127293,123.475667 0.0559454558,123.36359 Z M19.9725277,111.785995 L19.9725277,103.492268 L11.6926003,103.492268 L3.4126728,103.492268 L3.37910553,111.673918 C3.36791644,116.179429 3.37910553,119.922814 3.4126728,120.001268 C3.44624008,120.113346 5.16936011,120.135761 11.7149784,120.113346 L19.9725277,120.079723 L19.9725277,111.785995 Z" id="形状" fill="#A8B2BA" fill-rule="nonzero"></path>
                    <polygon id="路径" fill="#A8B2BA" fill-rule="nonzero" points="6.7134547 111.785995 6.7134547 106.798551 11.6926003 106.798551 16.6717458 106.798551 16.6717458 111.785995 16.6717458 116.773439 11.6926003 116.773439 6.7134547 116.773439"></polygon>
                    <path d="M26.764306,123.36359 C26.6076588,123.206682 26.5740915,117.154502 26.7195496,116.907932 C26.7978733,116.807063 27.5363533,116.773439 30.0538988,116.795855 L33.2875462,116.829478 L33.2875462,120.135761 L33.2875462,123.442044 L30.0986552,123.475667 C27.7041897,123.498083 26.8650079,123.46446 26.764306,123.36359 Z" id="路径" fill="#A8B2BA" fill-rule="nonzero"></path>
                    <path d="M36.7785426,123.419629 C36.7337863,123.386005 36.7002191,122.62388 36.7002191,121.738468 L36.7002191,120.124554 L38.3562046,120.158177 L40.0010009,120.1918 L40.0345681,121.682429 C40.0569463,122.702333 40.023379,123.229098 39.9338664,123.341175 C39.8331646,123.46446 39.4639246,123.498083 38.3226373,123.498083 C37.5170227,123.498083 36.8121099,123.46446 36.7785426,123.419629 Z" id="路径" fill="#A8B2BA" fill-rule="nonzero"></path>
                    <path d="M43.3465392,123.352382 C43.324161,123.273928 43.3129719,122.523009 43.324161,121.693637 L43.3577282,120.1918 L44.9801465,120.1918 L46.6025647,120.1918 L46.6025647,121.816922 L46.6025647,123.442044 L45.0025247,123.475667 C43.7605355,123.498083 43.3912955,123.475667 43.3465392,123.352382 Z" id="路径" fill="#A8B2BA" fill-rule="nonzero"></path>
                    <path d="M53.4502885,123.430837 C53.4055321,123.386005 53.3719648,122.62388 53.3719648,121.738468 L53.3719648,120.135761 L54.994383,120.135761 L56.6168013,120.135761 L56.6168013,118.4546 L56.6168013,116.773439 L54.994383,116.773439 L53.3607757,116.773439 L53.394343,115.125902 L53.4279103,113.467156 L54.994383,113.467156 L56.5608558,113.467156 L56.5944231,115.125902 L56.6279904,116.773439 L58.295165,116.773439 L59.9623396,116.773439 L59.9959069,115.125902 L60.0294741,113.467156 L61.6518924,113.467156 L63.2743105,113.467156 L63.3078777,115.125902 L63.341445,116.784647 L64.9862414,116.751024 L66.6310379,116.717401 L66.6869833,115.092278 L66.7429288,113.467156 L68.3429688,113.433533 L69.9318198,113.39991 L69.9318198,111.785995 L69.9318198,110.172081 L68.3429688,110.138458 L66.7429288,110.104834 L66.6869833,108.479712 L66.6310379,106.85459 L63.3302559,106.85459 L60.0294741,106.85459 L59.9735287,108.479712 L59.9175832,110.104834 L56.6727467,110.104834 L53.4279103,110.104834 L53.394343,108.457297 L53.3607757,106.798551 L48.359252,106.776136 L43.3577282,106.742512 L43.324161,105.094975 L43.2905937,103.436229 L41.6793645,103.436229 L40.0569463,103.436229 L40.0457572,108.121064 C40.0345681,110.687637 40.023379,112.929185 40.0121899,113.108509 L39.9786227,113.411118 L41.6346082,113.411118 L43.2905937,113.411118 L43.324161,111.819618 L43.3577282,110.216912 L45.0137138,110.183288 L46.6585102,110.149665 L46.6585102,111.785995 L46.6585102,113.411118 L48.2026047,113.411118 C49.0417866,113.411118 49.8026448,113.455948 49.8809684,113.500779 C49.9816703,113.579234 50.0152374,113.982712 49.9928594,115.159525 L49.9592921,116.717401 L48.3368739,116.717401 L46.7144556,116.717401 L46.6808884,115.069863 L46.6473211,113.411118 L44.9801465,113.411118 L43.3017828,113.411118 L43.3017828,115.092278 L43.3017828,116.773439 L41.6793645,116.773439 C40.4597536,116.773439 40.0569463,116.739816 40.0457572,116.638947 C40.0457572,116.560492 40.023379,115.809574 40.023379,114.980201 L40.0010009,113.467156 L38.3562046,113.433533 L36.7114082,113.39991 L36.6778409,111.808411 L36.6442736,110.216912 L33.3434917,110.216912 L30.0427097,110.216912 L30.0091425,111.819618 L29.9755752,113.422325 L28.3307788,113.388702 L26.6859825,113.355079 L26.6524152,106.865798 C26.6412261,102.0913 26.6636043,100.342893 26.7531169,100.219608 C26.8538188,100.096323 27.2118697,100.073907 28.4091024,100.096323 L29.9308188,100.129946 L29.9867643,101.755068 L30.0427097,103.38019 L31.6986953,103.413814 L33.3434917,103.447437 L33.3434917,100.129946 L33.3434917,96.8236628 L36.577139,96.8236628 C39.0834955,96.8236628 39.8331646,96.7900396 39.9226773,96.6779622 C40.0010009,96.5883003 40.0457572,95.9718746 40.0457572,95.1425019 C40.0457572,94.3691678 40.0457572,93.674288 40.0457572,93.6070416 C40.0569463,93.4949641 40.8289936,93.461341 43.3353501,93.4389254 L46.6025647,93.4053023 L46.6585102,91.7801799 L46.7144556,90.1550577 L50.0152374,90.1550577 L53.3160194,90.1550577 L53.3495866,91.5560252 C53.394343,93.6406647 53.5509903,93.461341 51.6376557,93.461341 L50.0152374,93.461341 L50.0152374,95.1425019 L50.0152374,96.8236628 L53.2936412,96.8012474 L56.5608558,96.7676241 L56.6168013,93.461341 L56.6727467,90.1550577 L58.295165,90.1550577 L59.9175832,90.1550577 L59.9735287,91.7801799 L60.0294741,93.4053023 L61.6854595,93.4389254 L63.3302559,93.4725487 L63.3302559,91.7913878 L63.3302559,90.1102267 L64.9862414,90.0766036 L66.6310379,90.0429803 L66.6869833,88.4178581 L66.7429288,86.7927359 L68.3094016,86.7927359 L69.8758743,86.7927359 L69.9318198,88.4178581 L69.9877652,90.0429803 L74.9669107,90.0429803 L79.9460564,90.0429803 L79.9796236,88.3954426 L80.0131909,86.7366971 L76.6788417,86.7142817 L73.3444925,86.6806584 L73.3444925,83.4304139 L73.3444925,80.1801695 L74.9892889,80.1465462 L76.6340853,80.112923 L76.6676526,81.7604607 L76.7012199,83.3967907 L78.1446126,83.3967907 C78.9390381,83.385583 79.6775182,83.4304139 79.789409,83.4976603 C79.9796236,83.59853 80.0020018,83.7666461 80.0020018,85.1676135 L80.0020018,86.7366971 L81.6579873,86.7366971 L83.3027837,86.7366971 L83.2804056,83.5200759 C83.2580274,81.7380452 83.2468383,80.2586236 83.2468383,80.2137926 C83.2468383,80.1689617 82.5307365,80.112923 81.6579873,80.1017153 L80.0579473,80.068092 L80.0020018,78.4429698 L79.9460564,76.8178475 L78.4355291,76.7842243 C77.6075363,76.7730166 76.8578672,76.7393933 76.7907327,76.7057702 C76.7012199,76.6721469 76.8242999,76.4031611 77.1487836,75.9212284 C77.4285108,75.5177497 77.6522927,75.1030634 77.6522927,74.990986 C77.6522927,74.8789085 77.7306162,74.6883769 77.820129,74.5650919 C77.943209,74.3969758 77.9767763,73.9262507 77.9879654,72.2562975 C77.9879654,69.8466335 77.8648854,70.0595805 79.2187655,70.0147496 L79.9460564,69.9811263 L79.9796236,66.7084664 L80.0020018,63.4245987 L81.6244201,63.4245987 L83.2468383,63.4245987 L83.2468383,66.551558 C83.2468383,68.27755 83.2804056,69.7569716 83.3139728,69.8578412 C83.3699182,70.0147496 83.7727255,70.0371651 86.6707001,70.0371651 L89.9602929,70.0371651 L89.9602929,68.4120428 L89.9602929,66.7981282 L88.3154965,66.7645051 L86.659511,66.7308819 L86.659511,65.1057596 L86.659511,63.4806374 L88.2819292,63.4806374 L89.9043475,63.4806374 L89.9379147,65.1393829 L89.971482,66.7869205 L91.6386566,66.7869205 L93.3170203,66.7869205 L93.3393985,63.4582218 L93.3729658,60.1183155 L94.995384,60.0622768 L96.6178021,60.0062381 L96.6513694,58.3474926 L96.6849367,56.6999548 L93.3505876,56.7223704 L90.0162384,56.7559935 L89.9602929,58.3811159 L89.9043475,60.0062381 L88.2819292,60.0062381 L86.659511,60.0062381 L86.659511,56.7559935 L86.659511,53.5057491 L91.6722239,53.4721258 L96.6737476,53.4497104 L96.6737476,55.0748326 L96.6737476,56.6999548 L98.2961658,56.6999548 L99.918584,56.6999548 L99.918584,55.0748326 L99.918584,53.4609181 L98.2849767,53.427295 L96.6513694,53.3936717 L96.6625585,51.8806268 C96.6737476,51.0512541 96.6401803,50.3115433 96.584235,50.2330891 C96.5282895,50.1322194 96.0135913,50.0873884 94.9394386,50.064973 L93.3729658,50.0313498 L93.3393985,46.7026511 L93.3170203,43.3627447 L91.6386566,43.3627447 L89.9602929,43.3627447 L89.9379147,46.7026511 L89.9043475,50.0313498 L88.2819292,50.0313498 L86.659511,50.0313498 L86.6035655,48.4062275 L86.5476202,46.7811053 L84.9028238,46.7250666 L83.2580274,46.6690279 L83.2580274,45.0439056 L83.2580274,43.4187834 L79.9572454,43.3851602 L76.6452744,43.3627447 L76.6452744,40.0564615 L76.6452744,36.7501783 L74.9557216,36.7501783 L73.2773581,36.7501783 L73.2885472,40.9306651 C73.2997363,43.2170441 73.2997363,45.1671908 73.2997363,45.245645 C73.2885472,45.3577224 71.923478,45.3801378 66.6646051,45.3577224 L60.0294741,45.3240991 L59.9735287,44.3714413 L59.9175832,43.4187834 L58.418245,43.3851602 C57.5007395,43.3627447 56.8741503,43.3963679 56.7958268,43.474822 C56.7398813,43.5308608 56.6839358,43.9791704 56.6839358,44.4498954 L56.6727467,45.3240991 L53.4390994,45.3577224 C51.5705212,45.3689301 50.1495066,45.3353068 50.0935611,45.2792681 C49.9592921,45.1447752 49.9928594,40.1909543 50.1383175,40.1125002 C50.1942629,40.0676693 50.8991757,40.034046 51.7047902,40.0228383 C52.4992157,40.0116306 53.2041285,39.9780073 53.2600739,39.9443841 C53.3272084,39.8995531 53.3719648,39.1822578 53.3719648,38.3080541 L53.3719648,36.7501783 L58.3511104,36.7501783 L63.3302559,36.7501783 L63.3302559,33.3878563 L63.3302559,30.0143268 L61.6854595,30.04795 L60.0294741,30.0815732 L59.9959069,31.7403187 L59.9623396,33.3878563 L56.6727467,33.3878563 L53.3719648,33.3878563 L53.3719648,31.7066954 L53.3719648,30.0255345 L51.6936011,30.0255345 L50.0152374,30.0255345 L49.9928594,33.3654409 L49.9592921,36.6941396 L48.3368739,36.7501783 L46.7144556,36.806217 L46.6808884,41.8160767 L46.6585102,46.8259363 L46.155001,47.5656471 C45.8752738,47.9691257 45.6514919,48.3838121 45.6514919,48.4958895 C45.6514919,48.6079668 45.5731684,48.7984984 45.4836556,48.9329913 C45.3493865,49.1235229 45.3158192,49.8184027 45.293441,52.9005312 L45.2598737,56.6439162 L44.308801,56.6439162 L43.3577282,56.6439162 L43.324161,53.3712562 L43.3017828,50.0985963 L41.6569864,50.064973 L40.0121899,50.0313498 L40.023379,46.8147286 C40.0345681,45.0439056 40.0681354,43.5420686 40.1128918,43.474822 C40.1576482,43.4075757 40.7954263,43.3627447 41.7464991,43.3627447 L43.3129719,43.3627447 L43.2794046,41.7039992 L43.2458373,40.0564615 L40.1688373,40.034046 C38.4792845,40.0228383 37.0023245,40.0116306 36.9016226,40.0004227 C36.7225972,40.0004227 36.7002191,39.8435144 36.7002191,38.3753005 L36.7002191,36.7501783 L35.0218554,36.7501783 L33.3546808,36.7501783 L33.3211135,38.3865084 L33.2875462,40.0116306 L31.665128,40.0116306 L30.0427097,40.0116306 L30.0091425,38.3753005 L29.9755752,36.7389706 L28.3307788,36.7725938 L26.6859825,36.806217 L26.6524152,38.3080541 C26.630037,39.2719198 26.6636043,39.8547221 26.7419278,39.9331764 C26.8090624,40.0004227 27.4132734,40.034046 28.4202915,40.0116306 L29.9867643,39.9780073 L29.9867643,41.6703761 L29.9867643,43.3627447 L25.0076188,43.3627447 L20.0172841,43.3627447 L20.0508514,45.0102825 L20.0844186,46.6690279 L21.7068369,46.7250666 L23.3292551,46.7811053 L23.3628224,48.428643 L23.3963896,50.0761807 L25.0188079,50.109804 L26.6412261,50.1434271 L26.6412261,51.7685495 L26.6412261,53.3936717 L25.0188079,53.427295 L23.3963896,53.4609181 L23.3628224,55.0524172 L23.3292551,56.6439162 L21.6844587,56.6775394 L20.0284732,56.7111627 L20.0284732,55.0748326 L20.0284732,53.4497104 L18.3501095,53.4497104 L16.6717458,53.4497104 L16.6717458,55.0748326 L16.6717458,56.6999548 L15.1276512,56.6999548 C14.0758767,56.6999548 13.5388003,56.7447858 13.4492876,56.8344477 C13.3597749,56.9241097 13.3150185,57.4620812 13.3150185,58.5156087 L13.3150185,60.0510691 L14.9598149,60.0846922 L16.6158004,60.1183155 L16.6717458,61.7434377 L16.7276912,63.3685599 L18.3724877,63.4021832 L20.0172841,63.4358064 L20.0508514,61.7770609 L20.0844186,60.1183155 L21.7068369,60.1183155 L23.3292551,60.1183155 L23.3292551,61.7434377 L23.3292551,63.3685599 L21.6732696,63.4021832 L20.0172841,63.4358064 L20.0508514,65.0833441 L20.0844186,66.7308819 L21.7068369,66.7869205 L23.3292551,66.8429592 L23.3292551,68.4120428 L23.3292551,69.9811263 L21.7068369,70.0371651 L20.0844186,70.0932038 L20.0508514,71.7407414 L20.0172841,73.3994869 L24.9740515,73.4219025 L29.9308188,73.4555256 L29.9308188,75.080648 L29.9308188,76.7057702 L25.0076188,76.7618089 L20.0844186,76.8178475 L20.0844186,78.4429698 L20.0844186,80.068092 L26.6859825,80.068092 L33.2875462,80.068092 L33.2875462,75.080648 L33.2875462,70.0932038 L29.9867643,70.0371651 L26.6859825,69.9811263 L26.6859825,68.4120428 L26.6859825,66.8429592 L29.9867643,66.7869205 L33.2875462,66.7308819 L33.2875462,65.1057596 L33.2875462,63.4806374 L31.665128,63.4245987 L30.0427097,63.3685599 L29.9867643,61.7434377 L29.9308188,60.1183155 L28.3084007,60.0622768 L26.6859825,60.0062381 L26.6524152,56.7335781 L26.630037,53.4497104 L28.3084007,53.4497104 L29.9755752,53.4497104 L30.0091425,51.8021726 L30.0427097,50.1434271 L31.665128,50.1434271 L33.2875462,50.1434271 L33.2875462,51.7685495 L33.2875462,53.3936717 L31.6315607,53.427295 L29.9755752,53.4609181 L30.0091425,55.0524172 L30.0427097,56.6439162 L31.665128,56.6999548 L33.2875462,56.7559935 L33.3434917,58.3811159 L33.3994371,60.0062381 L35.0218554,60.0622768 L36.6442736,60.1183155 L36.7002191,61.7434377 L36.7561644,63.3685599 L38.3338264,63.4021832 C39.7772191,63.4245987 39.9226773,63.4133909 39.9674337,63.2340671 C40.0010009,63.1219896 40.0121899,62.4159021 40.0010009,61.6537757 C40.0010009,60.9028572 40.023379,60.2303928 40.0569463,60.1743541 C40.1017027,60.0959 40.7282919,60.0622768 41.6905536,60.0846922 L43.2458373,60.1183155 L43.3017828,61.7434377 L43.3577282,63.3685599 L44.308801,63.4245987 L45.2598737,63.4806374 L45.293441,65.0721364 C45.3270083,66.9102057 45.4277101,66.7645051 44.0850191,66.8093361 L43.3577282,66.8429592 L43.324161,71.807988 L43.3017828,76.7618089 L45.0360919,76.7618089 L46.7704011,76.7618089 L47.5088811,77.2661571 C47.9116884,77.5463506 48.3256848,77.7705054 48.4263865,77.7705054 C48.5270883,77.7817132 48.7396811,77.8489596 48.8963283,77.9386215 C49.1089211,78.0619066 49.6571865,78.0955299 51.2012812,78.1067376 C53.2153176,78.1067376 53.2376957,78.1067376 53.3048303,78.3645157 C53.4167212,78.8016174 53.3719648,79.855145 53.2376957,79.9896379 C53.136994,80.0905075 52.2418666,80.1241307 49.8809684,80.1241307 L46.6585102,80.1241307 L46.6585102,81.794084 L46.6585102,83.4640372 L48.0347683,83.4192062 C48.7844375,83.3967907 49.5341066,83.4079984 49.713132,83.4416217 L50.0264265,83.5088682 L49.9928594,85.0891594 L49.9592921,86.6806584 L48.3368739,86.6806584 L46.7144556,86.6806584 L46.6585102,85.0555362 L46.6025647,83.4304139 L44.308801,83.4752449 C43.0444337,83.4976603 41.5786627,83.4752449 41.0415864,83.4304139 L40.0569463,83.3519597 L40.0569463,81.9173691 C40.0569463,81.1216196 40.023379,80.4043242 39.9898118,80.3034546 C39.9338664,80.1465462 39.6765172,80.1241307 38.3114482,80.1241307 L36.7002191,80.1241307 L36.6778409,86.7703203 L36.6442736,93.4053023 L33.3434917,93.4053023 L30.0427097,93.4053023 L30.0091425,91.7577645 L29.9755752,90.1102267 L28.3307788,90.0766036 L26.6859825,90.0429803 L26.630037,88.4178581 L26.5740915,86.7927359 L24.9852406,86.7591126 L23.3963896,86.7254894 L23.3628224,88.3842349 L23.3292551,90.0429803 L18.3501095,90.099019 L13.370964,90.1550577 L13.3373967,93.4277177 L13.3150185,96.7115854 L13.0576693,96.7676241 C12.9234003,96.8012474 12.2072985,96.8124551 11.4688184,96.8012474 L10.1261275,96.7676241 L10.070182,95.1425019 L10.0142366,93.5173796 L6.7134547,93.461341 L3.4126728,93.4053023 L3.35672734,91.7801799 L3.30078189,90.1550577 L1.67836367,90.099019 L0.0559454558,90.0429803 L0.0223781823,80.1913772 C0.0111890912,73.007216 0.0335672734,70.3061508 0.123080002,70.1940734 C0.223781823,70.0707882 0.626589105,70.0371651 1.80144368,70.0371651 L3.35672734,70.0371651 L3.35672734,66.7308819 L3.35672734,63.4358064 L1.70074186,63.4021832 L0.0559454558,63.3685599 L0.0223781823,60.1295232 C-2.32452946e-16,57.6077818 0.0335672734,56.868071 0.134269094,56.7896168 C0.212592732,56.7447858 0.973450932,56.6999548 1.82382186,56.6999548 L3.35672734,56.6999548 L3.35672734,55.0748326 L3.35672734,53.4497104 L1.80144368,53.4497104 C0.626589105,53.4497104 0.223781823,53.4160871 0.123080002,53.292802 C0.0335672734,53.1919324 -2.32452946e-16,52.216859 0.0223781823,49.9641034 L0.0559454558,46.7811053 L1.70074186,46.747482 L3.35672734,46.7138588 L3.35672734,43.4299911 L3.35672734,40.1349157 L3.64764372,40.0676693 C3.80429099,40.0228383 4.55396011,40.0004227 5.32600739,40.0116306 L6.7134547,40.0228383 L6.69107651,43.3403293 L6.65750924,46.6690279 L5.01271284,46.7026511 L3.35672734,46.7362743 L3.35672734,50.0873884 L3.35672734,53.4497104 L5.03509103,53.4497104 L6.7134547,53.4497104 L6.7134547,55.0748326 L6.7134547,56.7111627 L8.36944019,56.6775394 L10.0142366,56.6439162 L10.0478039,55.0524172 L10.0813711,53.4497104 L13.370964,53.4497104 L16.6717458,53.4497104 L16.6493677,50.1210117 L16.6158004,46.7811053 L14.9933822,46.7811053 L13.370964,46.7811053 L13.3150185,48.4062275 L13.259073,50.0313498 L11.6926003,50.0313498 L10.1261275,50.0313498 L10.1261275,46.7250666 L10.1261275,43.4187834 L15.0717057,43.3851602 L20.0172841,43.3627447 L20.0508514,41.7376225 L20.0844186,40.1125002 L21.606135,40.0676693 C22.4453169,40.0452537 23.1949859,39.989215 23.2621205,39.9555919 C23.3404442,39.8995531 23.3852006,39.3391662 23.3852006,38.3192618 L23.3852006,36.7501783 L20.0620404,36.7277629 L16.7276912,36.6941396 L16.694124,35.0466018 L16.6605568,33.3990642 L15.0157604,33.3654409 L13.370964,33.3318177 L13.3150185,31.7066954 L13.259073,30.0815732 L11.6926003,30.0815732 L10.1261275,30.0815732 L10.070182,31.7066954 L10.0142366,33.3318177 L6.69107651,33.3654409 L3.36791644,33.3878563 L3.33434917,35.0466018 L3.30078189,36.6941396 L1.67836367,36.6941396 L0.0559454558,36.6941396 L0.0559454558,35.0690174 L0.0559454558,33.4438952 L1.71193094,33.4102719 L3.36791644,33.3766486 L3.33434917,31.729111 L3.30078189,30.0815732 L1.67836367,30.0255345 L0.0559454558,29.9694959 L0.0223781823,28.4676587 C-2.32452946e-16,27.4589621 0.0335672734,26.9209906 0.123080002,26.8201209 C0.234970915,26.6856281 2.06998186,26.6632126 11.6814112,26.6632126 C20.4312804,26.6632126 23.1502296,26.6968358 23.2509314,26.7977055 C23.3404442,26.8873674 23.3852006,27.4253389 23.3852006,28.4788664 L23.3852006,30.0255345 L28.364346,30.0255345 L33.3323026,30.0255345 L33.3658699,28.366789 L33.3994371,26.7192513 L36.6442736,26.6856281 C38.915659,26.6632126 39.9002991,26.6183816 39.9562446,26.5287197 C40.0010009,26.4614733 40.0345681,25.7890089 40.0345681,25.0492981 C40.0345681,24.2983796 40.0457572,23.6259151 40.0457572,23.5586688 C40.0569463,23.4577991 40.4933209,23.4129681 41.6569864,23.3905526 L43.2458373,23.3569295 L43.2794046,21.7093917 L43.3129719,20.0506462 L40.0121899,20.0506462 L36.7114082,20.0506462 L36.6778409,21.7093917 L36.6442736,23.3569295 L34.9994772,23.3905526 L33.3434917,23.4241758 L33.3434917,25.0380904 L33.3434917,26.6520049 L30.0874661,26.6856281 C27.7601352,26.7080436 26.8090624,26.6856281 26.7307387,26.5959662 C26.6747934,26.517512 26.6412261,25.7890089 26.6524152,24.970844 L26.6859825,23.4690068 L28.3084007,23.4129681 L29.9308188,23.3569295 L29.9867643,21.7318072 L30.0427097,20.1066849 L33.3770589,20.0730617 L36.7114082,20.0506462 L36.6778409,18.3919007 L36.6442736,16.7443631 L34.9882881,16.7107398 L33.3323026,16.6771165 L33.3658699,15.0295789 L33.3994371,13.3820411 L36.6107063,13.3484179 C39.5870045,13.3260024 39.8331646,13.3372102 39.9226773,13.516534 C39.9898118,13.6286114 40.0345681,14.3234912 40.0345681,15.063202 C40.0457572,15.802913 40.0457572,16.4753772 40.0457572,16.5538315 C40.0569463,16.6547011 40.4597536,16.6883244 41.6793645,16.6883244 L43.3017828,16.6883244 L43.324161,13.4156644 L43.3577282,10.1317966 L45.0025247,10.0981734 L46.6473211,10.0645502 L46.6808884,8.41701247 L46.7144556,6.76947475 L48.3368739,6.76947475 L49.9592921,6.76947475 L49.9928594,8.32735056 C50.0152374,9.50416322 49.9816703,9.90764184 49.8809684,9.98609602 C49.8026448,10.030927 49.0417866,10.0757579 48.2026047,10.0757579 L46.6585102,10.0757579 L46.636132,13.3596257 L46.6025647,16.6322856 L44.9577683,16.6659088 L43.3017828,16.6995321 L43.3017828,18.3694853 L43.3017828,20.0394385 L44.9577683,20.0730617 L46.6025647,20.1066849 L46.636132,23.3905526 L46.6585102,26.6632126 L45.1032265,26.6632126 C43.9283719,26.6632126 43.5255647,26.6968358 43.4248628,26.8201209 C43.3353501,26.9209906 43.3017828,27.8960639 43.324161,30.1488196 L43.3577282,33.3318177 L44.9801465,33.3318177 L46.6025647,33.3318177 L46.6585102,31.7066954 L46.7144556,30.0815732 L48.3704411,30.04795 L50.0152374,30.0143268 L50.0152374,28.41162 C50.0152374,27.0442758 50.0376156,26.7864978 50.1942629,26.7304591 C50.5299357,26.5959662 53.0922376,26.6520049 53.2376957,26.7977055 C53.3272084,26.8873674 53.3719648,27.4253389 53.3719648,28.4788664 L53.3719648,30.0255345 L54.994383,30.0255345 L56.6168013,30.0255345 L56.6391795,26.7528745 L56.6727467,23.4690068 L58.3287323,23.4353836 L59.9735287,23.4017604 L59.9735287,21.7318072 L59.9735287,20.0506462 L55.0279503,20.0282308 L50.0711829,19.9946075 L50.0711829,16.6883244 L50.0711829,13.3820411 L53.3495866,13.3484179 L56.6168013,13.3260024 L56.6168013,11.7008802 L56.6168013,10.0869657 L55.0279503,10.0533425 L53.4279103,10.0197192 L53.394343,6.67981282 L53.3719648,3.35111415 L51.6936011,3.35111415 L50.0040485,3.35111415 L50.0376156,1.70357643 L50.0711829,0.0448309586 L51.5705212,0.0112077397 C52.5775394,-0.0112077397 53.1146158,0.0224154794 53.2153176,0.112077397 C53.3383975,0.212947054 53.3719648,0.605217941 53.3719648,1.79323834 L53.3719648,3.35111415 L54.994383,3.35111415 L56.6168013,3.35111415 L56.6168013,1.81565383 C56.6168013,0.963865609 56.6615577,0.201739314 56.706314,0.123285137 C56.7846377,0.0224154794 57.187445,-0.0112077397 58.3622995,0.0112077397 L59.9175832,0.0448309586 L59.9735287,1.66995321 L60.0294741,3.29507546 L61.6742704,3.32869867 L63.3190668,3.36232189 L63.3526341,1.70357643 L63.3862014,0.0448309586 L64.9414851,0.0112077397 C66.1163396,-0.0112077397 66.5191469,0.0224154794 66.5974706,0.123285137 C66.6422269,0.201739314 66.6869833,0.963865609 66.6869833,1.81565383 L66.6869833,3.35111415 L68.3094016,3.35111415 L69.9318198,3.35111415 L69.9318198,1.79323834 C69.9318198,0.61642568 69.9653871,0.212947054 70.0884671,0.112077397 C70.1891688,0.0224154794 71.5989944,-2.55004351e-16 75.0899908,0.0112077397 L79.9460564,0.0448309586 L79.9460564,1.66995321 L79.9460564,3.29507546 L76.6452744,3.35111415 L73.3444925,3.40715285 L73.2885472,6.71343604 L73.2326017,10.0197192 L71.7332634,10.0533425 C70.7262452,10.0757579 70.1891688,10.0421347 70.0884671,9.9524728 C69.9653871,9.85160315 69.9318198,9.45933226 69.9318198,8.27131186 L69.9318198,6.72464379 L68.3429688,6.69102057 L66.7429288,6.65739735 L66.7093615,5.00985963 L66.6757942,3.35111415 L65.0086196,3.35111415 L63.341445,3.35111415 L63.3078777,5.00985963 L63.2743105,6.65739735 L59.9735287,6.71343604 L56.6727467,6.76947475 L56.6727467,8.39459699 L56.6727467,10.0197192 L58.3287323,10.0533425 L59.9735287,10.0869657 L59.9735287,11.7008802 L59.9735287,13.3260024 L61.6518924,13.3260024 L63.3302559,13.3260024 L63.3302559,11.7008802 L63.3302559,10.0645502 L64.9862414,10.0981734 L66.6310379,10.1317966 L66.6310379,13.3820411 L66.6310379,16.6322856 L63.3302559,16.6883244 L60.0294741,16.7443631 L59.9959069,18.3919007 L59.9623396,20.0506462 L63.2966887,20.0730617 L66.6310379,20.1066849 L66.6646051,21.6645607 C66.6869833,22.8413734 66.653416,23.244852 66.5527142,23.3233062 C66.4743907,23.3681372 64.9638633,23.4129681 63.1959869,23.4129681 L59.9735287,23.4129681 L59.9735287,25.0380904 L59.9735287,26.6632126 L61.4728668,26.6632126 C62.3008596,26.6632126 63.0505287,26.6968358 63.1512305,26.7304591 C63.3078777,26.7864978 63.3302559,27.0442758 63.3302559,28.41162 L63.3302559,30.0255345 L65.0086196,30.0255345 L66.6757942,30.0255345 L66.7093615,28.3779968 L66.7429288,26.7192513 L68.3317797,26.6856281 L69.9206307,26.6520049 L69.954198,25.0605059 L69.9877652,23.4690068 L74.9669107,23.4129681 L79.9460564,23.3569295 L79.9460564,21.7318072 L79.9460564,20.1066849 L74.9669107,20.0506462 L69.9877652,19.9946075 L69.9877652,18.3694853 L69.9877652,16.7443631 L73.2885472,16.6883244 L76.589329,16.6322856 L76.6228962,13.3484179 L76.6452744,10.0645502 L78.3012599,10.0981734 L79.9460564,10.1317966 L79.9796236,11.7345034 L80.0131909,13.3372102 L81.6356091,13.303587 L83.2580274,13.2699638 L83.2580274,8.43942796 C83.2580274,5.7944014 83.3027837,3.55285347 83.3475401,3.48560702 C83.4146746,3.38473738 83.8510491,3.35111415 84.9923364,3.37352964 L86.5476202,3.40715285 L86.5811874,10.0421347 L86.6035655,16.6771165 L88.2595511,16.7107398 L89.9043475,16.7443631 L89.9043475,18.3694853 L89.9043475,19.9946075 L88.2819292,19.9946075 L86.659511,19.9946075 L86.6259437,18.3470697 L86.5923764,16.6883244 L84.9923364,16.6883244 C83.7391583,16.6883244 83.3699182,16.7219475 83.3251619,16.8452327 C83.2915947,16.9236868 83.2692165,19.1540271 83.2580274,21.7990536 L83.2580274,26.6071739 L81.6579873,26.6632126 L80.0579473,26.7192513 L80.02438,28.366789 L79.9908127,30.0255345 L84.9811473,30.0255345 L89.971482,30.0255345 L89.9379147,28.366789 L89.9043475,26.7192513 L88.2819292,26.6632126 L86.659511,26.6071739 L86.659511,25.0380904 L86.659511,23.4690068 L89.9602929,23.4129681 L93.2610749,23.3569295 L93.3170203,18.3694853 L93.3729658,13.3820411 L94.995384,13.3260024 L96.6178021,13.2699638 L96.6513694,11.6784647 L96.6849367,10.0757579 L98.2961658,10.0757579 L99.907395,10.0757579 L99.9409622,11.6784647 L99.9745295,13.2699638 L101.630515,13.303587 L103.275311,13.3372102 L103.275311,11.7120879 L103.275311,10.0869657 L104.931297,10.0533425 L106.576093,10.0197192 L106.609661,8.37218152 L106.643228,6.72464379 L104.987242,6.69102057 L103.331257,6.65739735 L103.29769,5.00985963 L103.264122,3.35111415 L99.9745295,3.35111415 L96.6737476,3.35111415 L96.6737476,4.85295127 C96.6737476,5.682324 96.6401803,6.43324256 96.6066132,6.53411222 C96.5506677,6.69102057 96.2933185,6.71343604 94.9282495,6.71343604 L93.3170203,6.71343604 L93.3170203,8.3385583 C93.3170203,10.2550818 93.4960457,10.0981734 91.4148747,10.0533425 L90.0162384,10.0197192 L90.0162384,6.71343604 L90.0162384,3.40715285 L91.6386566,3.35111415 L93.2610749,3.29507546 L93.3170203,1.66995321 L93.3729658,0.0448309586 L98.2961658,0.0448309586 L103.219366,0.0448309586 L103.252933,1.70357643 L103.286501,3.35111415 L104.953675,3.35111415 L106.62085,3.35111415 L106.654417,1.70357643 L106.687984,0.0448309586 L108.187322,0.0112077397 C109.194341,-0.0112077397 109.731417,0.0224154794 109.832119,0.112077397 C109.955199,0.212947054 109.988766,0.605217941 109.988766,1.79323834 L109.988766,3.35111415 L111.611184,3.35111415 L113.233603,3.35111415 L113.233603,5.0322751 L113.233603,6.71343604 L114.911966,6.71343604 L116.579141,6.71343604 L116.612708,8.37218152 L116.646275,10.0197192 L118.268694,10.0197192 L119.891112,10.0197192 L119.947057,8.39459699 L120.003003,6.76947475 L121.625421,6.76947475 L123.247839,6.76947475 L123.247839,10.0197192 L123.247839,13.2699638 L121.625421,13.3260024 L120.003003,13.3820411 L119.947057,15.0071633 L119.891112,16.6322856 L118.235126,16.6659088 L116.579141,16.6995321 L116.612708,18.3470697 L116.646275,19.9946075 L119.947057,20.0506462 L123.247839,20.1066849 L123.247839,23.3569295 L123.247839,26.6071739 L121.625421,26.6632126 L120.003003,26.7192513 L119.969435,28.366789 L119.935868,30.0143268 L121.591854,30.04795 L123.247839,30.0815732 L123.247839,36.6941396 L123.247839,43.306706 L121.603043,43.3403293 L119.947057,43.3739524 L119.947057,36.6941396 L119.947057,30.0255345 L113.323115,30.04795 L106.687984,30.0815732 L106.654417,31.729111 L106.62085,33.3766486 L108.276835,33.4102719 L109.932821,33.4438952 L109.966388,35.1026405 L109.999955,36.7501783 L111.611184,36.7501783 L113.222413,36.7501783 L113.255981,35.1026405 L113.289548,33.4438952 L114.911966,33.4438952 L116.534384,33.4438952 L116.534384,35.0690174 L116.534384,36.6941396 L114.878399,36.7277629 L113.233603,36.761386 L113.255981,41.7152069 L113.289548,46.6690279 L118.268694,46.7250666 L123.247839,46.7811053 L123.247839,48.4062275 L123.247839,50.0313498 L121.603043,50.064973 L119.947057,50.0985963 L119.947057,53.3936717 L119.947057,56.6999548 L121.446396,56.6999548 C122.274388,56.6999548 123.024057,56.7335781 123.124759,56.7672014 C123.281407,56.82324 123.303784,57.3724192 123.303784,61.7546454 L123.303784,66.6748432 L123.057625,66.7308819 C122.912166,66.7645051 122.173686,66.7757128 121.401639,66.7645051 L120.003003,66.7308819 L119.947057,65.1057596 L119.891112,63.4806374 L118.268694,63.4806374 L116.646275,63.4806374 L116.612708,66.7532974 L116.59033,70.0259573 L118.235126,70.0595805 L119.891112,70.0932038 L119.924679,71.7407414 L119.958246,73.3882792 L121.603043,73.4219025 L123.247839,73.4555256 L123.281407,84.9882898 C123.292596,93.41651 123.270217,96.5546771 123.180705,96.6667544 C123.080002,96.7900396 122.431035,96.8236628 120.003003,96.8236628 C118.31345,96.8236628 116.870057,96.7900396 116.769355,96.7564164 C116.612708,96.7003777 116.59033,96.4425997 116.59033,95.0752555 L116.59033,93.4501331 L114.945534,93.4837564 L113.289548,93.5173796 L113.233603,95.1425019 L113.177657,96.7676241 L108.478239,96.8012474 C105.893559,96.8124551 103.66693,96.8012474 103.53266,96.7676241 C103.275311,96.7115854 103.275311,96.6779622 103.275311,95.0864632 L103.275311,93.4725487 L101.630515,93.4389254 L99.9745295,93.4053023 L99.9745295,90.099019 L99.9745295,86.7927359 L101.630515,86.7591126 L103.275311,86.7254894 L103.275311,85.1227826 C103.275311,83.6881919 103.252933,83.5088682 103.085097,83.4640372 C102.973206,83.4416217 102.279482,83.4192062 101.541002,83.4304139 C100.802522,83.4416217 100.131177,83.3967907 100.064042,83.340752 C99.9521513,83.2622978 99.918584,82.4553406 99.918584,80.0008456 L99.918584,76.7618089 L96.6178021,76.7618089 L93.3058312,76.7618089 L93.3393985,78.4205544 L93.3729658,80.068092 L94.995384,80.1241307 L96.6178021,80.1801695 L96.6513694,81.7156298 C96.6737476,83.0941817 96.6625585,83.2622978 96.4835331,83.3519597 C96.3716422,83.4192062 95.6779185,83.4640372 94.9394386,83.4640372 C94.2009584,83.4640372 93.529613,83.4640372 93.4624784,83.4752449 C93.3505876,83.4864526 93.3170203,83.8899312 93.3170203,85.1115749 L93.3170203,86.7366971 L94.9394386,86.7366971 C96.8527731,86.7366971 96.6961258,86.5573733 96.6513694,88.6420128 L96.6178021,90.0429803 L94.9730058,90.0766036 L93.3170203,90.1102267 L93.3170203,88.4178581 L93.3170203,86.7366971 L91.6386566,86.7366971 L89.9602929,86.7366971 L89.9602929,81.749253 L89.9602929,76.7506012 L88.3154965,76.7842243 L86.659511,76.8178475 L86.6259437,81.7716685 L86.6035655,86.7254894 L84.9475802,86.7591126 L83.3027837,86.7927359 L83.3027837,88.3394039 C83.2915947,89.1911922 83.3251619,89.930903 83.3587291,89.9869417 C83.3922964,90.0429803 84.1307765,90.1102267 84.9811473,90.1214346 L86.5476202,90.1550577 L86.6035655,91.7801799 L86.659511,93.4053023 L89.9602929,93.461341 L93.2610749,93.5173796 L93.2946421,95.0752555 C93.3170203,96.2520681 93.283453,96.6555467 93.1827512,96.7340008 C93.1044275,96.7788318 92.3435693,96.8236628 91.4931984,96.8236628 L89.9602929,96.8236628 L89.9826711,100.10753 L90.0162384,103.38019 L91.6386566,103.38019 L93.2610749,103.38019 L93.3170203,101.755068 L93.3729658,100.129946 L94.872304,100.096323 C95.8793221,100.073907 96.4163985,100.10753 96.5171004,100.197192 C96.6513694,100.30927 96.6737476,101.642991 96.6737476,108.412466 C96.6737476,112.85073 96.6289912,116.549285 96.584235,116.627739 C96.5282895,116.728608 96.0135913,116.773439 94.9394386,116.795855 L93.3729658,116.829478 L93.3170203,120.135761 L93.2610749,123.442044 L88.4050093,123.475667 C84.8916347,123.486876 83.5153764,123.46446 83.4034855,123.374798 C83.2804056,123.273928 83.2468383,122.904072 83.2804056,121.693637 L83.3139728,120.135761 L80.0020018,120.113346 L76.7012199,120.079723 L76.6676526,118.420977 L76.6340853,116.762232 L74.9892889,116.795855 L73.3444925,116.829478 L73.2885472,118.4546 L73.2326017,120.079723 L71.6101835,120.135761 L69.9877652,120.1918 L69.9318198,121.816922 L69.8758743,123.442044 L68.3094016,123.442044 L66.7429288,123.442044 L66.6869833,121.816922 L66.6310379,120.1918 L64.9862414,120.158177 L63.341445,120.124554 L63.3078777,121.783299 L63.2743105,123.442044 L61.6518924,123.442044 L60.0294741,123.442044 L59.9959069,121.794507 L59.9623396,120.135761 L58.295165,120.135761 L56.6279904,120.135761 L56.5944231,121.794507 L56.5608558,123.442044 L55.0391394,123.475667 C54.2111467,123.486876 53.4950449,123.46446 53.4502885,123.430837 Z M63.3302559,118.4546 L63.3302559,116.773439 L61.6518924,116.773439 L59.9735287,116.773439 L59.9735287,118.4546 L59.9735287,120.135761 L61.6518924,120.135761 L63.3302559,120.135761 L63.3302559,118.4546 Z M86.5811874,116.896725 C86.5923764,114.778462 86.6483219,113.657688 86.7266456,113.556818 C86.8273474,113.444741 87.2525329,113.411118 88.4050093,113.411118 L89.9602929,113.411118 L89.9602929,111.785995 L89.9602929,110.160873 L83.336351,110.138458 L76.7012199,110.104834 L76.6676526,108.457297 L76.6340853,106.798551 L81.5908528,106.776136 L86.5476202,106.742512 L86.5811874,101.788692 C86.6035655,97.115064 86.5923764,96.8236628 86.4133511,96.8124551 C85.1042274,96.7788318 83.4034855,96.857286 83.3475401,96.9581557 C83.3027837,97.0254021 83.2692165,98.5048238 83.2580274,100.230816 L83.2580274,103.38019 L81.6356091,103.413814 L80.0131909,103.447437 L79.9796236,101.788692 L79.9460564,100.129946 L78.3236381,100.129946 L76.7012199,100.129946 L76.6676526,103.458645 L76.6452744,106.798551 L73.3109252,106.820967 L69.9877652,106.85459 L69.9877652,108.479712 L69.9877652,110.104834 L71.6325617,110.138458 L73.2773581,110.172081 L73.3109252,111.76358 L73.3444925,113.355079 L74.9669107,113.411118 L76.589329,113.467156 L76.6228962,115.125902 L76.6564635,116.773439 L79.9460564,116.773439 C82.5083583,116.773439 83.2468383,116.807063 83.2580274,116.91914 C83.2580274,116.986386 83.2692165,117.703682 83.2692165,118.510639 C83.2692165,119.306389 83.2915947,120.001268 83.3251619,120.057307 C83.3475401,120.102138 84.0860201,120.124554 84.9587691,120.113346 L86.5476202,120.079723 L86.5811874,116.896725 Z M36.6778409,105.094975 L36.7114082,103.436229 L38.3673935,103.436229 L40.023379,103.436229 L40.0121899,101.867146 C40.0010009,100.959319 39.9450555,100.253231 39.8779209,100.185985 C39.7995973,100.10753 39.1841972,100.073907 38.2555027,100.096323 L36.7561644,100.129946 L36.7225972,101.788692 L36.68903,103.436229 L35.0218554,103.436229 L33.3434917,103.436229 L33.3434917,105.038936 C33.3434917,105.924347 33.3770589,106.686474 33.4218153,106.731305 C33.4665717,106.764928 34.2050517,106.787343 35.0666117,106.776136 L36.6442736,106.742512 L36.6778409,105.094975 Z M56.5944231,105.094975 L56.6279904,103.436229 L58.3063541,103.436229 L59.9847178,103.436229 L59.9511505,101.788692 L59.9175832,100.129946 L58.418245,100.096323 C57.4112267,100.073907 56.8741503,100.10753 56.7734486,100.197192 C56.6503686,100.298062 56.6168013,100.690333 56.6168013,101.878353 L56.6168013,103.436229 L54.994383,103.436229 L53.3719648,103.436229 L53.3719648,101.889561 C53.3719648,100.836034 53.3272084,100.298062 53.2376957,100.2084 C53.1481831,100.118738 52.6111066,100.073907 51.5593321,100.073907 L50.0152374,100.073907 L50.0152374,98.448785 L50.0152374,96.8236628 L48.3368739,96.8236628 L46.6585102,96.8236628 L46.6585102,98.448785 L46.6585102,100.0627 L45.0137138,100.096323 L43.3577282,100.129946 L43.324161,101.788692 L43.2905937,103.447437 L44.9465792,103.413814 L46.6025647,103.38019 L46.636132,101.732653 L46.6696993,100.073907 L48.3368739,100.073907 L50.0152374,100.073907 L50.0152374,101.755068 L50.0152374,103.436229 L51.6936011,103.436229 L53.3719648,103.436229 L53.3719648,105.11739 L53.3719648,106.809759 L54.9720049,106.776136 L56.5608558,106.742512 L56.5944231,105.094975 Z M66.6646051,101.732653 L66.6981724,100.073907 L68.3094016,100.073907 L69.9206307,100.073907 L69.954198,101.732653 L69.9877652,103.38019 L71.6437508,103.413814 L73.2997363,103.447437 L73.266169,101.788692 L73.2326017,100.129946 L71.5766162,100.096323 L69.9206307,100.0627 L69.954198,98.4712005 L69.9877652,96.8797015 L71.3864016,96.857286 C73.4899507,96.8124551 73.2885472,96.9917789 73.2885472,95.0864632 L73.2885472,93.461341 L68.3094016,93.461341 L63.3190668,93.461341 L63.3526341,95.1200864 L63.3862014,96.7676241 L65.0086196,96.8236628 L66.6310379,96.8797015 L66.6646051,98.4712005 L66.6981724,100.0627 L65.0421869,100.096323 L63.3862014,100.129946 L63.3526341,101.788692 L63.3190668,103.447437 L64.9750523,103.413814 L66.6310379,103.38019 L66.6646051,101.732653 Z M83.2468383,96.6331312 C83.2580274,96.3305222 83.2580274,93.7639499 83.2580274,93.5958337 C83.2468383,93.4837564 82.5531145,93.461341 79.9796236,93.4837564 L76.7012199,93.5173796 L76.6676526,95.0192167 C76.6564635,95.8485894 76.6676526,96.5995081 76.6900308,96.6779622 C76.7347872,96.7900396 77.4396999,96.8236628 80.0020018,96.8236628 C83.0118673,96.8236628 83.2468383,96.8124551 83.2468383,96.6331312 Z M109.932821,91.7801799 L109.932821,90.1550577 L108.310402,90.099019 L106.687984,90.0429803 L106.654417,88.3842349 L106.62085,86.7366971 L109.899253,86.7591126 L113.177657,86.7927359 L113.233603,88.4178581 L113.289548,90.0429803 L116.59033,90.0429803 L119.891112,90.0429803 L119.891112,85.1115749 L119.891112,80.1801695 L118.268694,80.1241307 L116.646275,80.068092 L116.612708,78.4205544 L116.579141,76.7730166 L118.235126,76.7393933 L119.891112,76.7057702 L119.924679,75.0582324 L119.958246,73.3994869 L118.268694,73.3994869 L116.59033,73.3994869 L116.59033,71.718326 L116.59033,70.0371651 L113.289548,70.0371651 L109.999955,70.0371651 L109.966388,68.445666 L109.932821,66.8429592 L108.310402,66.7869205 L106.687984,66.7308819 L106.654417,65.0833441 L106.62085,63.4358064 L108.276835,63.4021832 L109.932821,63.3685599 L109.966388,61.7210223 L109.999955,60.0622768 L111.611184,60.0622768 L113.233603,60.0622768 L113.233603,58.5156087 C113.233603,57.4620812 113.278359,56.9241097 113.367872,56.8344477 C113.457384,56.7447858 113.994461,56.6999548 115.046235,56.6999548 L116.579141,56.6999548 L116.612708,58.3587003 L116.646275,60.0062381 L118.268694,60.0062381 L119.891112,60.0062381 L119.924679,58.3587003 L119.958246,56.6999548 L118.268694,56.6999548 L116.59033,56.6999548 L116.59033,55.0748326 L116.59033,53.4497104 L115.046235,53.4497104 C113.994461,53.4497104 113.457384,53.4048794 113.367872,53.3152175 C113.278359,53.2255555 113.233603,52.687584 113.233603,51.6340566 L113.233603,50.0873884 L106.609661,50.109804 L99.9745295,50.1434271 L99.9409622,51.7909649 L99.907395,53.4497104 L104.920108,53.4721258 L109.932821,53.5057491 L109.966388,56.7896168 L109.988766,60.0622768 L106.632039,60.0622768 L103.286501,60.0622768 L103.252933,58.414739 L103.219366,56.7559935 L101.57457,56.7223704 L99.918584,56.6887471 L99.918584,58.3811159 L99.918584,60.0622768 L98.318544,60.0622768 C97.4346058,60.0622768 96.6849367,60.0846922 96.6625585,60.1071077 C96.6401803,60.1295232 96.6289912,60.8916495 96.6513694,61.7882687 L96.6849367,63.4358064 L98.2737876,63.4021832 L99.8626386,63.3685599 L99.8962059,61.7210223 L99.9297731,60.0622768 L101.596948,60.0622768 L103.275311,60.0622768 L103.275311,65.0497209 L103.275311,70.0371651 L99.9745295,70.0371651 L96.6849367,70.0371651 L96.6513694,68.445666 L96.6178021,66.8429592 L94.9730058,66.8093361 L93.3170203,66.7757128 L93.3170203,70.081996 L93.3170203,73.3882792 L91.6722239,73.4219025 L90.0162384,73.4555256 L89.9826711,75.1142711 L89.9491038,76.7618089 L91.6386566,76.7618089 L93.3170203,76.7618089 L93.3170203,75.080648 L93.3170203,73.3994869 L98.2961658,73.3994869 L103.275311,73.3994869 L103.275311,71.718326 L103.275311,70.0371651 L106.632039,70.0371651 L109.999955,70.0371651 L109.966388,71.6959105 L109.932821,73.3434482 L108.310402,73.3994869 L106.687984,73.4555256 L106.632039,75.080648 L106.576093,76.7057702 L104.953675,76.7618089 L103.331257,76.8178475 L103.331257,78.4429698 L103.331257,80.068092 L104.953675,80.1241307 L106.576093,80.1801695 L106.609661,83.4640372 L106.632039,86.7366971 L104.953675,86.7366971 L103.275311,86.7366971 L103.275311,90.099019 L103.275311,93.461341 L106.609661,93.4389254 L109.932821,93.4053023 L109.932821,91.7801799 Z M10.070182,88.4178581 L10.1261275,86.7927359 L11.7261675,86.7591126 L13.3150185,86.7254894 L13.3150185,85.1115749 C13.3150185,83.8899312 13.2814512,83.4864526 13.1807494,83.4752449 C13.1024257,83.4640372 12.3863239,83.4528294 11.5807094,83.4416217 L10.1261275,83.4304139 L10.070182,78.4429698 L10.0142366,73.4555256 L8.36944019,73.4219025 L6.7134547,73.3882792 L6.7134547,71.718326 L6.7134547,70.0483728 L8.36944019,70.0147496 L10.0142366,69.9811263 L10.0478039,68.3896273 L10.0813711,66.7869205 L11.6926003,66.7869205 L13.3150185,66.7869205 L13.3373967,70.0707882 L13.370964,73.3434482 L15.0269495,73.3770715 L16.6717458,73.4106946 L16.6717458,70.1044115 L16.6717458,66.7981282 L15.0269495,66.7645051 L13.370964,66.7308819 L13.3373967,63.4021832 L13.3150185,60.0622768 L11.6926003,60.0622768 L10.0813711,60.0622768 L10.0478039,61.7210223 L10.0142366,63.3685599 L8.36944019,63.4021832 L6.7134547,63.4358064 L6.7134547,60.0622768 L6.7134547,56.6999548 L5.03509103,56.6999548 L3.35672734,56.6999548 L3.35672734,60.0622768 L3.35672734,63.4245987 L5.03509103,63.4245987 L6.7134547,63.4245987 L6.7134547,66.7308819 L6.7134547,70.0371651 L5.03509103,70.0371651 L3.35672734,70.0371651 L3.37910553,75.0582324 L3.4126728,80.068092 L5.03509103,80.1241307 L6.65750924,80.1801695 L6.69107651,84.9994975 C6.7022656,87.6557318 6.73583288,89.886072 6.76940015,89.9645261 C6.80296743,90.0766036 7.20577471,90.099019 8.41419656,90.0766036 L10.0142366,90.0429803 L10.070182,88.4178581 Z M33.2875462,88.4178581 L33.2875462,86.7927359 L31.665128,86.7927359 L30.0427097,86.7927359 L30.0091425,88.4514812 L29.9755752,90.1102267 L31.6315607,90.0766036 L33.2875462,90.0429803 L33.2875462,88.4178581 Z M23.3852006,85.1788214 C23.3852006,83.9459699 23.3516333,83.59853 23.2173641,83.4864526 C23.0942842,83.385583 22.6690987,83.3743753 21.5390004,83.4304139 L20.0284732,83.5088682 L20.0284732,85.1227826 L20.0284732,86.7366971 L21.7068369,86.7366971 L23.3852006,86.7366971 L23.3852006,85.1788214 Z M16.6158004,78.4429698 L16.6158004,76.8178475 L14.9933822,76.8178475 L13.370964,76.8178475 L13.3373967,78.3196847 C13.3262076,79.1490574 13.3373967,79.899976 13.3597749,79.9784301 C13.4045313,80.1017153 13.7737713,80.1241307 15.0157604,80.1017153 L16.6158004,80.068092 L16.6158004,78.4429698 Z M43.2794046,78.4205544 L43.3129719,76.7618089 L41.6793645,76.7618089 L40.0569463,76.7618089 L40.0457572,78.2188151 C40.0345681,79.0257722 40.023379,79.7430676 40.0121899,79.8215217 C40.0010009,79.8887682 40.0010009,79.9896379 40.0345681,80.0456766 C40.0569463,80.0905075 40.7842372,80.112923 41.6569864,80.1017153 L43.2458373,80.068092 L43.2794046,78.4205544 Z M39.9674337,76.627316 C40.0010009,76.5488617 40.023379,74.3185216 40.0121899,71.6622873 L40.0010009,66.8429592 L38.3562046,66.8093361 L36.7002191,66.7757128 L36.7002191,71.6959105 C36.7002191,74.3969758 36.7337863,76.6497315 36.7785426,76.6833546 C36.8121099,76.7281856 37.5394009,76.7618089 38.3897717,76.7618089 C39.5086809,76.7618089 39.9338664,76.7281856 39.9674337,76.627316 Z M23.3852006,51.7685495 L23.3852006,50.0873884 L21.7068369,50.0873884 L20.0284732,50.0873884 L20.0284732,51.7685495 L20.0284732,53.4497104 L21.7068369,53.4497104 L23.3852006,53.4497104 L23.3852006,51.7685495 Z M106.576093,45.0439056 L106.576093,43.4187834 L103.275311,43.3627447 L99.9745295,43.306706 L99.9409622,41.7376225 C99.918584,40.6840949 99.8738277,40.1461234 99.784315,40.0900847 C99.7059914,40.0452537 98.2178422,40.0116306 96.4835331,40.0004227 L93.3170203,39.989215 L93.3170203,41.6815838 L93.3170203,43.3627447 L94.8611149,43.3627447 C95.9128894,43.3627447 96.4499658,43.4075757 96.5394786,43.4972376 C96.6289912,43.5868995 96.6737476,44.124871 96.6737476,45.1783985 L96.6737476,46.7250666 L101.630515,46.7026511 L106.576093,46.6690279 L106.576093,45.0439056 Z M69.9318198,40.0564615 L69.9318198,36.7501783 L71.6101835,36.7501783 L73.2773581,36.7501783 L73.3109252,35.1026405 L73.3444925,33.4438952 L74.9669107,33.4438952 L76.589329,33.4438952 L76.6228962,35.1026405 L76.6564635,36.761386 L78.3012599,36.7277629 L79.9460564,36.6941396 L79.9796236,33.3654409 L80.0020018,30.0255345 L76.6788417,30.003119 L73.3444925,29.9694959 L73.3109252,28.3779968 C73.2773581,26.4838888 73.4563835,26.6407972 71.3864016,26.6856281 L69.9877652,26.7192513 L69.954198,28.3779968 L69.9206307,30.0255345 L68.3094016,30.0255345 L66.6869833,30.0255345 L66.6869833,31.7066954 L66.6869833,33.3878563 L68.3094016,33.3878563 L69.9318198,33.3878563 L69.9318198,35.0690174 L69.9318198,36.7501783 L66.6310379,36.7501783 L63.3302559,36.7501783 L63.3302559,38.3753005 C63.3302559,39.8435144 63.3078777,40.0004227 63.1400414,40.0228383 C63.0281505,40.034046 62.3344269,40.0564615 61.5959469,40.0676693 C60.8574668,40.078877 60.1861213,40.1012925 60.1189868,40.1012925 C60.0070959,40.1125002 59.9735287,40.5159788 59.9735287,41.7376225 L59.9735287,43.3627447 L64.9526742,43.3627447 L69.9318198,43.3627447 L69.9318198,40.0564615 Z M89.9602929,41.7376225 C89.9602929,39.8098913 89.7924565,39.9667996 91.8736275,40.0228383 L93.2610749,40.0564615 L93.2946421,38.4089238 L93.3282094,36.7501783 L94.9394386,36.7501783 C96.8527731,36.7501783 96.6961258,36.9295022 96.6513694,34.8448625 L96.6178021,33.4438952 L93.3170203,33.4438952 L90.0162384,33.4438952 L89.9602929,35.0690174 L89.9043475,36.6941396 L88.2819292,36.6941396 L86.659511,36.6941396 L86.6035655,35.0690174 L86.5476202,33.4438952 L84.9699582,33.4102719 L83.3922964,33.3766486 L83.3139728,33.8025428 C83.2244601,34.351722 83.2244601,42.9480584 83.3139728,43.1834208 C83.3699182,43.3403293 83.7727255,43.3627447 86.6707001,43.3627447 L89.9602929,43.3627447 L89.9602929,41.7376225 Z M109.82093,39.9555919 C109.955199,39.9107609 109.988766,39.5969441 109.988766,38.3192618 L109.988766,36.7501783 L108.310402,36.7501783 L106.632039,36.7501783 L106.632039,35.0690174 L106.632039,33.3878563 L103.308879,33.4102719 L99.9745295,33.4438952 L99.9745295,35.0690174 L99.9745295,36.6941396 L103.308879,36.7277629 L106.632039,36.7501783 L106.632039,38.3528851 C106.632039,39.2382965 106.654417,39.989215 106.676795,40.0116306 C106.74393,40.078877 109.630715,40.034046 109.82093,39.9555919 Z M26.630037,35.0690174 L26.630037,33.3878563 L25.0076188,33.3878563 L23.3852006,33.3878563 L23.3852006,31.7066954 L23.3852006,30.0143268 L21.7404041,30.04795 L20.0844186,30.0815732 L20.0844186,31.7066954 L20.0844186,33.3318177 L21.7404041,33.3654409 L23.3852006,33.3990642 L23.3852006,35.0690174 L23.3852006,36.7501783 L25.0076188,36.7501783 L26.630037,36.7501783 L26.630037,35.0690174 Z M33.3434917,35.0690174 L33.3434917,33.3766486 L34.9994772,33.4102719 L36.6442736,33.4438952 L36.6778409,35.1026405 L36.7114082,36.7501783 L38.2555027,36.7501783 C39.3632227,36.7501783 39.8331646,36.7053473 39.9114882,36.6156854 C40.0345681,36.4587771 40.0905136,30.8773227 39.9898118,30.3393512 L39.9226773,30.0255345 L36.6330845,30.0255345 L33.3434917,30.0255345 L33.3434917,31.7066954 L33.3434917,33.3766486 L31.6986953,33.4102719 L30.0427097,33.4438952 L30.0091425,35.1026405 L29.9755752,36.7501783 L31.665128,36.7501783 L33.3434917,36.7501783 L33.3434917,35.0690174 Z M116.59033,25.0380904 L116.59033,23.4129681 L115.046235,23.4129681 C113.994461,23.4129681 113.457384,23.3681372 113.367872,23.2784752 C113.26717,23.1776056 113.233603,22.2809864 113.233603,19.9161534 L113.233603,16.6883244 L114.911966,16.6883244 L116.601519,16.6883244 L116.567952,15.0407866 L116.534384,13.3820411 L114.911966,13.3820411 L113.289548,13.3820411 L113.255981,15.0295789 L113.222413,16.6771165 L111.633563,16.7107398 L110.044712,16.7443631 L110.011144,21.6197297 C109.999955,24.2983796 110.011144,26.5511352 110.033522,26.6071739 C110.055901,26.6744203 111.230755,26.7080436 113.334304,26.6856281 L116.59033,26.6520049 L116.59033,25.0380904 Z M106.609661,21.7093917 L106.576093,16.7443631 L101.652893,16.7443631 L96.7296931,16.7443631 L96.6961258,21.7093917 L96.6737476,26.6632126 L101.652893,26.6632126 L106.632039,26.6632126 L106.609661,21.7093917 Z M113.233603,10.0197192 L113.233603,6.71343604 L111.588806,6.71343604 L109.932821,6.71343604 L109.966388,5.0322751 L109.999955,3.35111415 L108.321591,3.35111415 L106.632039,3.35111415 L106.632039,5.0322751 L106.632039,6.70222831 L108.288024,6.73585153 L109.932821,6.76947475 L109.966388,10.0533425 L109.988766,13.3260024 L111.611184,13.3260024 L113.233603,13.3260024 L113.233603,10.0197192 Z" id="形状" fill="#A8B2BA" fill-rule="nonzero"></path>
                    <path d="M110.055901,83.4079984 C110.022333,83.3631676 109.988766,81.8613304 109.988766,80.0456766 L109.988766,76.7618089 L111.611184,76.7618089 L113.222413,76.7618089 L113.255981,75.1142711 L113.289548,73.4555256 L114.945534,73.4219025 L116.59033,73.3882792 L116.59033,75.080648 L116.59033,76.7618089 L114.911966,76.7618089 L113.233603,76.7618089 L113.233603,80.068092 C113.233603,81.8837458 113.200035,83.3743753 113.155279,83.3743753 C112.260152,83.4304139 110.100657,83.4528294 110.055901,83.4079984 Z" id="路径" fill="#A8B2BA" fill-rule="nonzero"></path>
                    <path d="M99.9633404,23.2672675 C99.9409622,23.1888133 99.9297731,22.4378948 99.9409622,21.608522 L99.9745295,20.1066849 L101.596948,20.1066849 L103.219366,20.1066849 L103.219366,21.7318072 L103.219366,23.3569295 L101.619326,23.3905526 C100.377337,23.4129681 100.008097,23.3905526 99.9633404,23.2672675 Z" id="路径" fill="#A8B2BA" fill-rule="nonzero"></path>
                    <path d="M99.9745295,123.36359 C99.9409622,123.285137 99.9297731,118.028706 99.9409622,111.673918 L99.9745295,100.129946 L111.611184,100.129946 L123.247839,100.129946 L123.281407,111.718749 C123.303784,120.920303 123.281407,123.329967 123.169516,123.408421 C123.091192,123.453252 117.843508,123.498083 111.521672,123.498083 C102.42494,123.498083 100.008097,123.46446 99.9745295,123.36359 Z M119.891112,111.785995 L119.891112,103.492268 L111.611184,103.492268 L103.331257,103.492268 L103.29769,111.673918 C103.286501,116.179429 103.29769,119.922814 103.331257,120.001268 C103.364824,120.113346 105.087944,120.135761 111.633563,120.113346 L119.891112,120.079723 L119.891112,111.785995 Z" id="形状" fill="#A8B2BA" fill-rule="nonzero"></path>
                    <polygon id="路径" fill="#A8B2BA" fill-rule="nonzero" points="106.632039 111.785995 106.632039 106.798551 111.611184 106.798551 116.59033 106.798551 116.59033 111.785995 116.59033 116.773439 111.611184 116.773439 106.632039 116.773439"></polygon>
                    <path d="M20.1067968,96.7452087 C20.0620404,96.7115854 20.0284732,95.9494591 20.0284732,95.0640476 L20.0284732,93.4501331 L21.6844587,93.4837564 L23.3292551,93.5173796 L23.3628224,95.0192167 C23.3852006,96.0279133 23.3516333,96.5658848 23.2621205,96.6667544 C23.1614187,96.7900396 22.7809896,96.8236628 21.6508914,96.8236628 C20.8452768,96.8236628 20.1403641,96.7900396 20.1067968,96.7452087 Z" id="路径" fill="#A8B2BA" fill-rule="nonzero"></path>
                    <path d="M40.0457572,90.0766036 C39.9786227,89.8748642 40.0010009,87.0729293 40.0793245,86.9272287 C40.1688373,86.7479049 40.3366737,86.7366971 41.7129318,86.7591126 L43.2458373,86.7927359 L43.2794046,88.4514812 L43.3129719,90.099019 L41.6793645,90.099019 C40.7842372,90.099019 40.0569463,90.0878113 40.0457572,90.0766036 Z" id="路径" fill="#A8B2BA" fill-rule="nonzero"></path>
                    <polygon id="路径" fill="#A8B2BA" fill-rule="nonzero" points="53.394343 85.0891594 53.4279103 83.4304139 54.994383 83.4640372 56.5608558 83.4864526 56.5944231 85.1115749 56.6279904 86.7366971 54.994383 86.7366971 53.3607757 86.7366971"></polygon>
                    <path d="M56.6168013,80.9422957 C56.6168013,79.5413283 56.6615577,78.3196847 56.706314,78.2412305 C56.7846377,78.1403608 57.187445,78.1067376 58.3622995,78.1291531 L59.9175832,78.1627762 L59.9735287,79.1154342 L60.0294741,80.068092 L61.6742704,80.1017153 L63.3190668,80.1353385 L63.3526341,79.1490574 L63.3862014,78.1627762 L64.9638633,78.1291531 C66.7988743,78.0955299 66.6869833,78.0170756 66.6869833,79.3732122 L66.6869833,80.1241307 L68.3094016,80.1241307 L69.9430089,80.1241307 L69.9094416,81.7828762 L69.8758743,83.4304139 L68.8688562,83.4640372 C68.3205906,83.4864526 67.5932997,83.4640372 67.2800052,83.4304139 L66.6869833,83.3631676 L66.6869833,81.7380452 L66.6869833,80.1241307 L65.0086196,80.1241307 L63.3302559,80.1241307 L63.3302559,81.7380452 C63.3302559,82.9260657 63.2966887,83.3631676 63.1959869,83.3967907 C63.1176633,83.4192062 61.607136,83.4528294 59.8392595,83.4640372 L56.6168013,83.4976603 L56.6168013,80.9422957 Z" id="路径" fill="#A8B2BA" fill-rule="nonzero"></path>
                    <path d="M78.0327218,59.9165762 C78.0103436,59.8381219 77.9991545,59.0872034 78.0103436,58.2578307 L78.0439109,56.7559935 L80.5726454,56.7223704 C82.5195474,56.6999548 83.1237582,56.7335781 83.2020819,56.8344477 C83.2580274,56.912902 83.2915947,57.6750282 83.2692165,58.5268165 L83.2244601,60.0622768 L80.6621582,60.0622768 C78.6593108,60.0622768 78.0774782,60.0286535 78.0327218,59.9165762 Z" id="路径" fill="#A8B2BA" fill-rule="nonzero"></path>
                    <polygon id="路径" fill="#A8B2BA" fill-rule="nonzero" points="36.7002191 53.3936717 36.7002191 50.0873884 38.3673935 50.0873884 40.0345681 50.0873884 40.023379 53.3712562 40.0010009 56.6439162 38.3562046 56.6775394 36.7002191 56.7111627"></polygon>
                    <path d="M80.0803255,53.3712562 C80.0355691,53.337633 80.0020018,51.8245882 80.0020018,50.0089343 L80.0020018,46.7138588 L81.6356091,46.747482 L83.2692165,46.7811053 L83.2692165,49.9977266 C83.2580274,51.7797572 83.2244601,53.2703865 83.1908928,53.337633 C83.1125691,53.4609181 80.2034054,53.4945413 80.0803255,53.3712562 Z" id="路径" fill="#A8B2BA" fill-rule="nonzero"></path>
                    <path d="M6.85891288,40.0452537 C6.74702197,40.0004227 6.7134547,39.5521132 6.7134547,38.3640928 L6.7134547,36.7389706 L8.36944019,36.7725938 L10.0142366,36.806217 L10.0478039,38.3080541 C10.058993,39.1374269 10.0366148,39.8547221 9.98066932,39.9107609 C9.8799675,40.0116306 7.06031652,40.1461234 6.85891288,40.0452537 Z" id="路径" fill="#A8B2BA" fill-rule="nonzero"></path>
                    <path d="M0.0783236381,23.3345139 C0.0335672734,23.3008908 0,18.0556686 0,11.6896725 L0,0.100869657 L0.257349097,0.0448309586 C0.391618191,0.0112077397 5.63930195,-7.80625564e-18 11.9163821,0.0112077397 L23.3292551,0.0448309586 L23.3292551,11.7008802 L23.3292551,23.3569295 L11.7373566,23.3905526 C5.37076375,23.4017604 0.111890912,23.3793449 0.0783236381,23.3345139 Z M19.9725277,11.7008802 L19.9725277,3.40715285 L11.6926003,3.40715285 L3.4126728,3.40715285 L3.37910553,11.5888028 C3.36791644,16.0943142 3.37910553,19.8376992 3.4126728,19.9161534 C3.44624008,20.0282308 5.16936011,20.0506462 11.7149784,20.0282308 L19.9725277,19.9946075 L19.9725277,11.7008802 Z" id="形状" fill="#A8B2BA" fill-rule="nonzero"></path>
                    <polygon id="路径" fill="#A8B2BA" fill-rule="nonzero" points="6.7134547 11.7008802 6.7134547 6.71343604 11.6926003 6.71343604 16.6717458 6.71343604 16.6717458 11.7008802 16.6717458 16.6883244 11.6926003 16.6883244 6.7134547 16.6883244"></polygon>
                    <path d="M26.6747934,13.1803018 C26.6524152,13.1018476 26.6412261,12.3845523 26.6524152,11.5775951 L26.6859825,10.1317966 L28.3419679,10.0981734 L29.9867643,10.0645502 L29.9867643,11.7008802 L29.9867643,13.3260024 L28.364346,13.3260024 C27.133546,13.3260024 26.7195496,13.2923792 26.6747934,13.1803018 Z" id="路径" fill="#A8B2BA" fill-rule="nonzero"></path>
                    <path d="M33.3994371,9.94126507 C33.3658699,9.86281089 33.3323026,9.11189233 33.3211135,8.2825196 L33.2875462,6.76947475 L31.665128,6.71343604 L30.0427097,6.65739735 L30.0427097,3.35111415 L30.0427097,0.0448309586 L33.3434917,0.0448309586 L36.6442736,0.0448309586 L36.6778409,4.90898997 C36.68903,8.40580474 36.6666518,9.81797993 36.577139,9.91884959 C36.3981135,10.1317966 33.4777608,10.1430044 33.3994371,9.94126507 Z" id="路径" fill="#A8B2BA" fill-rule="nonzero"></path>
                    <path d="M40.0345681,6.57894317 C39.9898118,6.46686578 40.0010009,4.35981072 40.0457572,3.49681477 C40.0569463,3.38473738 40.4597536,3.35111415 41.6793645,3.35111415 L43.2905937,3.35111415 L43.324161,1.70357643 L43.3577282,0.0448309586 L44.9801465,0.0448309586 L46.6025647,0.0448309586 L46.6025647,1.66995321 L46.6025647,3.29507546 L44.9577683,3.32869867 L43.3129719,3.36232189 L43.2794046,5.00985963 L43.2458373,6.65739735 L41.6681755,6.69102057 C40.4597536,6.71343604 40.0681354,6.67981282 40.0345681,6.57894317 Z" id="路径" fill="#A8B2BA" fill-rule="nonzero"></path>
                    <path d="M116.635086,3.20541354 C116.612708,3.12695936 116.601519,2.37604081 116.612708,1.54666808 L116.646275,0.0448309586 L119.723275,0.0112077397 C121.412828,2.60208521e-18 122.912166,0.0112077397 123.057625,0.0448309586 C123.303784,0.100869657 123.314974,0.123285137 123.281407,1.70357643 L123.247839,3.29507546 L119.969435,3.32869867 C117.351188,3.35111415 116.679843,3.32869867 116.635086,3.20541354 Z" id="路径" fill="#A8B2BA" fill-rule="nonzero"></path>
                    <g id="矩形" transform="translate(45.317829, 45.317829)" stroke="#A8B2BA" stroke-width="1.71472868">
                        <rect x="0.509486739" y="0.612403101" width="31.8449612" height="31.8449612" rx="4.89922481"></rect>
                    </g>
                    <g id="Group" transform="translate(62.929001, 61.367673) scale(-1, 1) rotate(-180.000000) translate(-62.929001, -61.367673) translate(50.429001, 50.367673)" fill="#A8B2BA" fill-rule="nonzero">
                        <path d="M1.08440259,21.2025179 L1.08440259,21.2025179 C0.52116739,21.2025179 0.0601580329,16.7583839 0.0601580329,16.7583839 C0.0601580329,16.3866202 0.52116739,16.0823968 1.08440259,16.0823968 C1.64763779,16.0823968 2.10853032,16.3866202 2.10853032,16.7583839 C2.10853032,16.7583839 1.64763779,21.2025179 1.08440259,21.2025179" id="Fill-4"></path>
                        <path d="M24.6789456,6.4149532 C24.6789456,6.64627027 24.4912006,6.83384356 24.2594108,6.83384356 C24.0277378,6.83384356 23.8397591,6.64627027 23.8397591,6.4149532 C23.8397591,6.18363613 24.0277378,5.99606284 24.2594108,5.99606284 C24.4912006,5.99606284 24.6789456,6.18363613 24.6789456,6.4149532 M14.6765847,11.8943564 C13.9668453,13.9090196 11.7557294,14.9676189 9.73796648,14.2588532 C8.17829214,13.7110645 7.11864823,12.3114971 7.15077636,10.7535189 C7.15626734,10.6947272 7.17951642,10.6625318 7.23419264,10.6368688 C7.64075943,10.4830074 8.07629995,10.3647242 8.60682288,10.2431748 C8.65624178,10.2296434 8.72540486,10.267438 8.71851192,10.3409276 C8.58520942,11.4004601 9.20230305,12.4300135 10.2523669,12.798861 C10.4443179,12.8662847 10.6389559,12.9059457 10.8325424,12.9213435 C10.9216833,12.9283425 10.9563817,12.8351392 10.8945789,12.7793804 C10.5449081,12.4646586 10.3988712,11.9601471 10.5647691,11.4889975 C10.7852265,10.8631699 11.4720673,10.5343334 12.0987409,10.7545687 C12.5467822,10.9119296 12.8418936,11.3072567 12.8932986,11.7486605 C12.9021777,11.8245997 12.9920196,11.8439636 13.0339614,11.7716406 C13.1049938,11.6493913 13.1656283,11.5188599 13.2143462,11.3807462 C13.4308314,10.7662337 13.3781412,10.1379565 13.1095502,9.59716681 C13.0787071,9.52484378 13.1322151,9.47258455 13.1762597,9.46698534 C13.7210359,9.38428045 14.1489826,9.31580687 14.52494,9.23660148 C14.6179362,9.21933727 14.6540367,9.27707904 14.672262,9.31837317 C14.9719297,10.1324739 14.9873513,11.0122487 14.6765847,11.8943564 M20.7729836,4.06725411 C22.169564,3.29818027 23.4139154,1.27581819 23.2493026,0.340634672 C23.2214971,0.183157092 23.1417026,0.0882039433 23.015994,0.0452767215 C22.7457672,-0.0468768251 22.4661942,0.171142135 22.4640912,0.171958685 C20.1746996,1.83515523 18.6375733,2.31482028 17.1517353,2.72472858 C15.1231072,3.28453221 9.76787484,3.8565841 8.80718554,4.06888721 C6.07851486,4.67208467 3.94812823,6.39395619 3.0624435,8.90788161 C2.48553924,10.5449485 2.62713665,12.4884552 2.63613252,14.1150236 C2.64512839,15.7268941 2.60902806,17.0521554 2.78205261,17.6032103 C2.78871189,17.6242074 2.79607216,17.643338 2.8037829,17.661652 C2.81289561,17.6839321 2.82364393,17.7051625 2.8357942,17.7259262 C2.83964957,17.7324586 2.84350495,17.7389909 2.84747715,17.7451734 C2.857174,17.7601046 2.86733817,17.7745692 2.87867064,17.7884506 C2.89222286,17.8052482 2.90589192,17.820296 2.9196778,17.8337108 C2.92470148,17.8386102 2.92972514,17.8435094 2.93509931,17.8480588 C2.94467933,17.8566909 2.95437618,17.864973 2.96372254,17.8724386 C2.96594231,17.8731386 2.96851255,17.8738384 2.97073231,17.874655 C3.00893558,17.9024177 3.05005957,17.9269142 3.09702505,17.9434786 C3.2514737,17.9976041 3.41386674,17.9697248 3.53969216,17.8844536 C3.54272973,17.8825872 3.54635145,17.8815373 3.54938902,17.8794376 C3.55009,17.8788544 3.55079097,17.8780378 3.55160878,17.8773379 C3.606285,17.8379102 3.65325048,17.7875174 3.68864982,17.7274426 C3.68923397,17.726626 3.68981812,17.7260428 3.69040226,17.7253429 C3.99287394,17.3240668 4.19779296,16.5866051 4.5543567,15.9817745 C5.31970701,14.67891 6.69782823,14.6764603 8.3363625,15.3241014 C8.62481464,15.4383019 8.8995977,15.5327884 9.16036124,15.6110607 C9.19026959,15.6221423 9.21947698,15.6343906 9.249619,15.6448891 C9.85140795,15.8563756 10.4656977,15.9533119 11.0688886,15.9481793 C11.0715756,15.948296 11.0744964,15.9484126 11.0771835,15.9485292 C11.0796369,15.9486459 11.0810388,15.9484126 11.0830249,15.948296 C13.1892278,15.9244993 15.1565205,14.6492809 15.9797014,12.6049885 C16.3120814,11.880825 17.0442521,9.55773909 17.2982395,8.94427643 C17.3728936,8.78236615 17.4335282,8.75507003 17.5738404,8.71085966 C18.0318122,8.5902435 18.3417609,8.4788427 18.4785684,8.43719863 C18.9905154,8.28135414 21.1791999,7.34547072 22.4335988,4.98190722 C22.6948296,4.48999392 23.0182137,3.66166186 23.1753495,2.87252421 C23.1896027,2.80101772 23.1134298,2.7653228 23.0606229,2.81781532 C22.4625724,3.41413043 21.6578506,3.95771971 20.7870032,4.13631094 C20.7137511,4.15124215 20.7024186,4.10609857 20.7729836,4.06725411" id="Fill-6"></path>
                    </g>
                </g>
            </g>
            <g id="编组-3" transform="translate(32.000000, 136.000000)" fill-rule="nonzero">
                <path d="M16,2.264 C15.952,2.464 15.912,2.648 15.864,2.824 C16,3.656 16.176,4.392 16.392,5.016 C16.632,4.224 16.76,3.304 16.784,2.264 L16,2.264 Z M16.16,5.656 C15.944,5.072 15.76,4.4 15.608,3.648 C15.464,4.032 15.312,4.368 15.152,4.672 L14.832,4.272 C15.296,3.32 15.616,2.04 15.784,0.432 L16.288,0.52 C16.232,0.952 16.168,1.352 16.104,1.728 L17.6,1.728 L17.6,2.264 L17.28,2.264 C17.248,3.624 17.048,4.776 16.672,5.728 C16.968,6.384 17.32,6.896 17.728,7.264 L17.4,7.752 C17.024,7.384 16.696,6.896 16.424,6.288 C16.12,6.88 15.736,7.376 15.288,7.776 L14.984,7.296 C15.48,6.872 15.872,6.328 16.16,5.656 Z M14.144,7.312 L13.904,6.832 C13.984,6.784 14.04,6.704 14.056,6.608 L14.056,5.152 L13.208,5.152 L13.208,5.512 C13.192,6.512 12.936,7.256 12.448,7.752 L12.024,7.384 C12.448,6.952 12.664,6.328 12.672,5.512 L12.672,4.632 L14.568,4.632 L14.568,6.424 C14.792,6.224 15.024,6.008 15.264,5.768 L15.384,6.256 C14.976,6.688 14.56,7.04 14.144,7.312 Z M13.44,0.464 L13.928,0.464 L13.928,2.28 L14.488,2.28 L14.488,0.896 L14.96,0.896 L14.96,2.776 L12.4,2.776 L12.4,0.896 L12.88,0.896 L12.88,2.28 L13.44,2.28 L13.44,0.464 Z M11.608,0.488 L12.104,0.72 C11.76,1.576 11.208,2.336 10.448,3 L10.272,2.44 C10.88,1.872 11.328,1.224 11.608,0.488 Z M11.656,2.632 L12.136,2.864 C12.024,3.168 11.888,3.464 11.728,3.736 L11.728,7.816 L11.192,7.816 L11.192,4.512 C10.976,4.776 10.736,5.024 10.472,5.264 L10.304,4.712 C10.928,4.104 11.376,3.416 11.656,2.632 Z M12.384,3.488 L14.88,3.488 L14.88,4 L12.384,4 L12.384,3.488 Z M19.232,3.32 C18.992,3.672 18.728,4.016 18.44,4.336 L18.256,3.72 C19.04,2.752 19.608,1.64 19.968,0.392 L20.504,0.64 C20.312,1.256 20.08,1.832 19.8,2.376 L19.8,7.816 L19.232,7.816 L19.232,3.32 Z M20.472,1.52 L22.936,1.52 C22.816,1.2 22.68,0.896 22.52,0.592 L23.072,0.44 C23.24,0.792 23.368,1.112 23.464,1.408 L23.16,1.52 L25.68,1.52 L25.68,2.064 L20.472,2.064 L20.472,1.52 Z M21.208,2.712 L24.992,2.712 L24.992,3.232 L21.208,3.232 L21.208,2.712 Z M21.208,3.84 L24.992,3.84 L24.992,4.368 L21.208,4.368 L21.208,3.84 Z M25.136,5.024 L25.136,7.8 L24.576,7.8 L24.576,7.368 L21.616,7.368 L21.616,7.8 L21.056,7.8 L21.056,5.024 L25.136,5.024 Z M21.616,6.824 L24.576,6.824 L24.576,5.56 L21.616,5.56 L21.616,6.824 Z M28.632,0.544 L29.16,0.752 C28.568,2.432 27.792,3.712 26.816,4.592 L26.368,4.2 C27.368,3.288 28.12,2.072 28.632,0.544 Z M31.36,4.784 C31.984,5.648 32.512,6.576 32.96,7.56 L32.424,7.8 C32.304,7.528 32.184,7.272 32.064,7.032 C30.656,7.256 29.08,7.416 27.336,7.528 L27.232,6.968 C27.872,6.632 28.672,5.368 29.64,3.176 L30.2,3.368 C29.512,4.888 28.824,6.08 28.136,6.944 C29.44,6.864 30.664,6.728 31.808,6.544 C31.496,5.968 31.176,5.44 30.84,4.96 L31.36,4.784 Z M31.24,0.488 C31.704,1.976 32.504,3.192 33.648,4.136 L33.24,4.608 C32.048,3.616 31.216,2.328 30.752,0.76 L31.24,0.488 Z M37.784,0.488 L38.216,0.488 C39.192,1.72 40.312,2.688 41.584,3.392 L41.28,3.928 C40,3.184 38.904,2.208 38,1.008 C37.152,2.144 36.04,3.12 34.664,3.944 L34.368,3.408 C35.736,2.624 36.872,1.656 37.784,0.488 Z M36.256,3.296 L36.808,3.296 C36.808,3.856 36.768,4.36 36.696,4.808 C37.192,5.272 37.616,5.736 37.968,6.2 L37.56,6.608 C37.304,6.208 36.976,5.8 36.584,5.368 L36.512,5.616 C36.256,6.44 35.68,7.12 34.768,7.648 L34.408,7.208 C35.192,6.752 35.704,6.184 35.96,5.496 C36.152,4.92 36.256,4.192 36.256,3.296 Z M39.064,3.224 L39.616,3.224 C39.616,3.704 39.592,4.152 39.544,4.56 C39.944,5.68 40.64,6.568 41.64,7.224 L41.264,7.664 C40.432,7.072 39.808,6.344 39.384,5.48 L39.352,5.608 C39.128,6.456 38.6,7.152 37.776,7.696 L37.424,7.264 C38.112,6.792 38.576,6.2 38.8,5.496 C38.968,4.904 39.056,4.144 39.064,3.224 Z M43.656,0.752 L48.344,0.752 L48.344,2.912 L43.656,2.912 L43.656,0.752 Z M47.752,2.392 L47.752,1.272 L44.248,1.272 L44.248,2.392 L47.752,2.392 Z M44.232,4.152 L42.4,4.152 L42.4,3.6 L49.592,3.6 L49.592,4.152 L44.816,4.152 L44.544,5.088 L48.456,5.088 C48.408,6.368 48.28,7.136 48.088,7.384 C47.896,7.624 47.528,7.744 46.984,7.744 C46.584,7.744 46.232,7.728 45.92,7.696 L45.728,7.168 C46.152,7.2 46.528,7.216 46.856,7.216 C47.288,7.216 47.552,7.128 47.656,6.952 C47.752,6.776 47.824,6.328 47.872,5.608 L43.856,5.608 L44.232,4.152 Z" id="微信公众号" fill="#6E767D"></path>
                <path d="M0.744,14.468 L5.676,14.468 C5.484,14.012 5.28,13.604 5.052,13.232 L6,13.088 C6.216,13.496 6.42,13.964 6.612,14.468 L11.28,14.468 L11.28,15.296 L0.744,15.296 L0.744,14.468 Z M2.088,19.544 C1.764,19.952 1.428,20.324 1.068,20.672 L0.504,19.928 C1.752,18.752 2.58,17.3 3.012,15.596 L3.912,15.704 C3.684,16.604 3.372,17.432 2.976,18.176 L2.976,24.26 L2.088,24.26 L2.088,19.544 Z M7.176,18.176 C7.8,18.644 8.352,19.112 8.808,19.592 C9.18,18.944 9.456,18.26 9.636,17.528 L6.492,17.528 C6.252,17.996 6,18.428 5.712,18.812 C6.168,19.748 6.768,20.552 7.5,21.224 C7.848,20.9 8.148,20.564 8.412,20.204 C7.932,19.724 7.332,19.22 6.624,18.716 L7.176,18.176 Z M6.276,15.62 L7.14,15.764 C7.044,16.088 6.948,16.4 6.84,16.712 L10.5,16.712 L10.5,17.456 C10.104,19.184 9.336,20.624 8.184,21.8 C9.12,22.508 10.212,23.06 11.472,23.444 L10.932,24.236 C9.6,23.78 8.472,23.168 7.536,22.4 C6.648,23.132 5.58,23.744 4.344,24.224 L3.9,23.396 C5.064,22.952 6.048,22.412 6.852,21.788 C6.168,21.116 5.604,20.348 5.148,19.484 C4.848,19.796 4.536,20.072 4.2,20.324 L3.636,19.628 C4.932,18.644 5.82,17.3 6.276,15.62 Z M23.076,17.276 L23.076,24.176 L22.248,24.176 L22.248,23.6 L17.772,23.6 L17.772,24.176 L16.944,24.176 L16.944,17.276 L23.076,17.276 Z M17.772,22.808 L19.62,22.808 L19.62,20.864 L17.772,20.864 L17.772,22.808 Z M20.412,22.808 L22.248,22.808 L22.248,20.864 L20.412,20.864 L20.412,22.808 Z M17.772,20.084 L19.62,20.084 L19.62,18.08 L17.772,18.08 L17.772,20.084 Z M20.412,18.08 L20.412,20.084 L22.248,20.084 L22.248,18.08 L20.412,18.08 Z M18.132,13.196 L18.948,13.196 L18.948,14.588 L21.036,14.588 L21.036,13.196 L21.852,13.196 L21.852,14.588 L23.448,14.588 L23.448,15.392 L21.852,15.392 L21.852,16.712 L21.036,16.712 L21.036,15.392 L18.948,15.392 L18.948,16.7 L18.132,16.7 L18.132,15.392 L16.536,15.392 L16.536,14.588 L18.132,14.588 L18.132,13.196 Z M15.876,13.328 L16.584,13.772 C16.116,14.552 15.648,15.188 15.18,15.68 C15.264,15.848 15.336,16.028 15.408,16.196 C15.756,17.156 15.948,18.5 15.984,20.252 C15.984,22.184 15.744,23.348 15.264,23.756 C14.988,23.96 14.592,24.068 14.088,24.068 C13.752,24.068 13.476,24.056 13.272,24.056 L13.02,23.252 C13.32,23.276 13.608,23.3 13.896,23.3 C14.304,23.3 14.568,23.228 14.7,23.084 C15,22.772 15.156,21.812 15.156,20.204 C15.156,19.724 15.132,19.292 15.108,18.896 C14.508,19.76 13.812,20.492 13.008,21.08 L12.516,20.36 C13.572,19.64 14.388,18.764 14.964,17.756 C14.892,17.3 14.784,16.904 14.664,16.568 C14.616,16.46 14.58,16.364 14.544,16.292 C14.1,16.664 13.584,17.036 13.008,17.408 L12.54,16.664 C13.116,16.364 13.656,15.98 14.148,15.524 C13.8,14.972 13.368,14.468 12.864,14.024 L13.536,13.496 C14.004,13.964 14.4,14.444 14.736,14.924 C15.144,14.456 15.528,13.928 15.876,13.328 Z M25.932,13.424 C26.688,14.024 27.324,14.612 27.84,15.2 L27.252,15.8 C26.784,15.224 26.148,14.624 25.332,13.988 L25.932,13.424 Z M24.54,16.892 L27.048,16.892 L27.048,22.22 C27.48,21.86 27.948,21.452 28.44,20.984 L28.68,21.896 C27.924,22.604 27.12,23.228 26.28,23.78 L25.944,23.012 C26.112,22.844 26.208,22.664 26.208,22.472 L26.208,17.72 L24.54,17.72 L24.54,16.892 Z M28.8,18.296 L34.512,18.296 L34.512,19.088 C34.128,20.216 33.504,21.188 32.628,22.004 C33.444,22.568 34.44,23.06 35.616,23.492 L35.148,24.236 C33.9,23.732 32.844,23.168 32.004,22.52 C31.044,23.24 29.856,23.804 28.452,24.236 L27.972,23.504 C29.304,23.108 30.42,22.592 31.32,21.956 C30.408,21.116 29.796,20.18 29.46,19.136 L28.8,19.136 L28.8,18.296 Z M30.276,19.136 C30.588,20 31.14,20.78 31.932,21.464 C32.7,20.792 33.276,20.024 33.66,19.136 L30.276,19.136 Z M29.724,13.664 L33.756,13.664 L33.756,16.256 C33.756,16.556 33.912,16.712 34.224,16.712 L35.328,16.712 L35.328,17.504 L34.008,17.504 C33.264,17.504 32.904,17.144 32.904,16.436 L32.904,14.48 L30.576,14.48 L30.576,14.9 C30.576,16.172 29.952,17.156 28.728,17.852 L28.152,17.192 C29.196,16.676 29.724,15.944 29.724,14.996 L29.724,13.664 Z M40.296,16.796 L43.548,16.796 L43.548,13.184 L44.436,13.184 L44.436,16.796 L47.52,16.796 L47.52,17.66 L44.436,17.66 L44.436,24.224 L43.548,24.224 L43.548,17.66 L40.296,17.66 L40.296,16.796 Z M37.944,13.316 C38.76,13.928 39.444,14.54 39.996,15.164 L39.408,15.764 C38.904,15.176 38.208,14.552 37.344,13.904 L37.944,13.316 Z M36.54,16.868 L39.132,16.868 L39.132,22.208 C39.564,21.848 40.044,21.44 40.548,20.96 L40.764,21.848 C40.02,22.568 39.216,23.204 38.364,23.768 L38.028,22.988 C38.208,22.844 38.304,22.676 38.304,22.484 L38.304,17.696 L36.54,17.696 L36.54,16.868 Z M52.32,16.7 L55.608,16.7 L55.608,14.804 C54.744,14.888 53.808,14.936 52.812,14.936 L52.56,14.156 C55.044,14.156 57.108,13.88 58.74,13.328 L59.16,14.06 C58.392,14.336 57.492,14.552 56.484,14.696 L56.484,16.7 L59.58,16.7 L59.58,17.54 L56.484,17.54 L56.484,19.472 L58.764,19.472 L58.764,24.164 L57.9,24.164 L57.9,23.564 L54.216,23.564 L54.216,24.164 L53.364,24.164 L53.364,19.472 L55.608,19.472 L55.608,17.54 L52.32,17.54 L52.32,16.7 Z M54.216,22.748 L57.9,22.748 L57.9,20.252 L54.216,20.252 L54.216,22.748 Z M49.944,13.316 C50.76,13.928 51.444,14.54 51.996,15.164 L51.408,15.764 C50.904,15.176 50.208,14.552 49.344,13.904 L49.944,13.316 Z M48.504,16.868 L51.096,16.868 L51.096,22.22 C51.504,21.884 51.96,21.476 52.44,21.008 L52.668,21.92 C51.948,22.616 51.168,23.228 50.34,23.768 L50.004,23 C50.172,22.844 50.268,22.676 50.268,22.496 L50.268,17.696 L48.504,17.696 L48.504,16.868 Z" id="夜猫设计话" fill="#A8B2BA"></path>
            </g>
        </g>
    </g>
</svg>