<?xml version="1.0" encoding="UTF-8"?>
<svg width="200px" height="200px" viewBox="0 0 200 200" version="1.1" xmlns="http://www.w3.org/2000/svg" xmlns:xlink="http://www.w3.org/1999/xlink">
    <!-- Generator: Sketch 56.3 (81716) - https://sketch.com -->
    <title>logo备份 2</title>
    <desc>Created with Sketch.</desc>
    <g id="Page-1" stroke="none" stroke-width="1" fill="none" fill-rule="evenodd">
        <g id="画板备份-2" transform="translate(-1746.000000, -81.000000)" fill-rule="nonzero">
            <g id="logo备份-2" transform="translate(1746.000000, 81.000000)">
                <circle id="椭圆形" fill="#000000" cx="100" cy="100" r="100"></circle>
                <path d="M55.3311577,151.098679 L55.3311577,151.098679 C52.7894328,151.098679 50.7443667,130.969386 50.7443667,130.969386 C50.7443667,129.304118 52.818648,128.047863 55.360373,128.047863 L55.360373,128.047863 C57.9020979,128.047863 59.9763792,129.420979 59.9763792,130.969386 C59.9471639,130.969386 57.8728827,151.098679 55.3311577,151.098679 Z" id="路径" fill="#FFFFFF"></path>
                <path d="M144.028594,73.7075369 C150.309868,70.2309246 155.919192,61.1157731 155.188811,56.9087801 C155.138995,56.290611 154.725142,55.761799 154.137063,55.5648796 C153.263495,55.3688612 152.348278,55.584206 151.653768,56.1491841 C144.545335,61.5758776 136.403054,65.4929212 127.726496,67.6599845 C118.582129,70.1724942 94.4503497,72.7726496 90.1264957,73.7367521 C78.2468409,75.9436609 68.4098409,84.2484871 64.2418026,95.5897436 C61.6416472,102.981197 62.2843823,111.745765 62.3135975,118.961927 C62.0422999,124.220383 62.2672785,129.492706 62.9855478,134.708936 L62.9855478,134.971873 L62.9855478,135.264025 L62.9855478,135.264025 L62.9855478,135.468531 L63.1608392,135.673038 L63.1608392,135.673038 L63.1608392,135.673038 L63.1608392,135.673038 C63.9247239,136.237948 64.9678946,136.237948 65.7317793,135.673038 L65.7317793,135.673038 C65.9804795,135.493809 66.1893716,135.265022 66.3452991,135.001088 L66.3452991,135.001088 C67.7184149,133.189744 68.624087,129.859207 70.2309246,127.142191 C73.6783217,121.299145 79.8719503,121.299145 87.2634033,124.220668 C88.5488733,124.746542 89.8051282,125.155556 90.9737374,125.506138 L91.3827506,125.652214 C94.0184589,126.584277 96.7966726,127.048961 99.59223,127.02533 L99.59223,127.02533 C109.314363,126.915674 118.016114,120.968517 121.649728,111.950272 C123.139705,108.678166 126.441026,98.189899 127.492774,95.4436674 C127.677532,94.8943014 128.148653,94.4904835 128.719814,94.3919192 C130.794095,93.8368298 132.167211,93.3401709 132.78073,93.1648796 C140.420798,90.3049865 146.756607,84.758557 150.60202,77.5639472 C152.128597,74.5505228 153.248551,71.3478488 153.932556,68.0397824 C153.932556,67.7184149 153.640404,67.5431235 153.406682,67.8060606 C150.609158,70.6834139 147.053689,72.7093221 143.152137,73.6491064 C143.765657,74.0873349 143.707226,73.8828283 144.028594,73.7075369 Z M116.566278,109.028749 C113.330389,118.075849 103.414477,122.831838 94.3334887,119.692308 C87.4350462,117.498325 82.7230873,111.1254 82.647397,103.886869 C82.6561333,103.650947 82.8059834,103.443462 83.027195,103.360995 C85.0445963,102.575611 87.1141207,101.931325 89.2208236,101.432789 C89.3487396,101.404096 89.4826578,101.438457 89.5809577,101.525192 C89.6792573,101.611927 89.7300249,101.740525 89.7174825,101.871018 C89.3656374,104.696138 90.1839364,107.542303 91.9825205,109.749155 C93.7811047,111.956007 96.4036375,113.331721 99.2416472,113.55711 C99.3564608,113.609298 99.4903948,113.596269 99.5929978,113.522932 C99.6956008,113.449594 99.7512844,113.327089 99.7390739,113.201564 C99.7268631,113.076038 99.648613,112.966563 99.5337995,112.914375 C97.757071,111.302312 97.2556249,108.711984 98.3024039,106.553335 C99.3491829,104.394687 101.693636,103.184401 104.059649,103.581251 C106.425662,103.978101 108.24692,105.887098 108.53209,108.269153 C108.53209,108.446639 108.675971,108.590521 108.853458,108.590521 C109.030944,108.590521 109.174825,108.446639 109.174825,108.269153 C109.501363,107.71153 109.775223,107.124687 109.992852,106.516239 C110.938323,103.886365 110.769489,100.984533 109.525408,98.4820513 C109.468253,98.3670698 109.46841,98.2319219 109.525834,98.1170742 C109.583258,98.0022265 109.691282,97.9210114 109.81756,97.8977467 C112.271639,97.5179487 114.199845,97.2257964 115.894328,96.8459984 C116.184082,96.770676 116.481366,96.9387057 116.566278,97.2257964 C117.986009,101.032034 117.986009,105.222512 116.566278,109.028749 Z M161.762238,84.3126651 C161.762238,85.3614483 160.912031,86.211655 159.863248,86.211655 C158.814465,86.211655 157.964258,85.3614483 157.964258,84.3126651 C157.964258,83.2638819 158.814465,82.4136752 159.863248,82.4136752 C160.912031,82.4136752 161.762238,83.2638819 161.762238,84.3126651 L161.762238,84.3126651 Z" id="形状" fill="#FFFFFF"></path>
            </g>
        </g>
    </g>
</svg>