<?xml version="1.0" encoding="UTF-8"?>
<svg width="1132px" height="200px" viewBox="0 0 1132 200" version="1.1" xmlns="http://www.w3.org/2000/svg" xmlns:xlink="http://www.w3.org/1999/xlink">
    <!-- Generator: Sketch 56.3 (81716) - https://sketch.com -->
    <title>画板</title>
    <desc>Created with Sketch.</desc>
    <g id="画板" stroke="none" stroke-width="1" fill="none" fill-rule="evenodd">
        <rect fill="#000000" x="0" y="0" width="1132" height="200"></rect>
        <g id="character" transform="translate(489.000000, 44.000000)">
            <path d="M81.6,109.6 C113.853429,109.6 140,83.4534294 140,51.2 C140,18.9465706 113.853429,16.6237132 81.6,16.6237132 C49.3465706,16.6237132 23.2,18.9465706 23.2,51.2 C23.2,83.4534294 49.3465706,109.6 81.6,109.6 Z" id="Oval-7" fill="#0F1D26"></path>
            <g id="Group-3" transform="translate(108.800000, 0.000000)" fill="#0F1D26">
                <path d="M5.5261368,6.6703146 C9.22477054,4.40936043 12.6824049,3.27888334 15.89904,3.27888334 C19.1156751,3.27888334 22.3247074,4.40936043 25.5261368,6.6703146 L25.5261368,29.8703146 L5.5261368,29.8703146 L5.5261368,6.6703146 Z" id="Rectangle" transform="translate(15.526137, 16.574599) rotate(32.000000) translate(-15.526137, -16.574599) "></path>
                <path d="M10.8948738,32.319698 C17.4899711,30.0587438 23.6553383,28.9282667 29.3909755,28.9282667 C35.1266127,28.9282667 40.8486932,30.0587438 46.557217,32.319698 L46.557217,55.519698 L10.8948738,55.519698 L10.8948738,32.319698 Z" id="Rectangle-Copy" transform="translate(28.726045, 42.223982) rotate(74.000000) translate(-28.726045, -42.223982) "></path>
                <path d="M3.53839952,57.2103159 C9.48300001,54.9493617 15.0402562,53.8188846 20.2101681,53.8188846 C25.3800799,53.8188846 30.5377723,54.9493617 35.683245,57.2103159 L35.683245,80.4103159 L3.53839952,80.4103159 L3.53839952,57.2103159 Z" id="Rectangle-Copy-2" transform="translate(19.610822, 67.114600) rotate(74.000000) translate(-19.610822, -67.114600) "></path>
            </g>
            <g id="Group-3-Copy" transform="translate(23.700000, 43.500000) scale(-1, 1) translate(-23.700000, -43.500000) translate(0.200000, 0.000000)" fill="#0F1D26">
                <path d="M5.5261368,6.6703146 C9.22477054,4.40936043 12.6824049,3.27888334 15.89904,3.27888334 C19.1156751,3.27888334 22.3247074,4.40936043 25.5261368,6.6703146 L25.5261368,29.8703146 L5.5261368,29.8703146 L5.5261368,6.6703146 Z" id="Rectangle" transform="translate(15.526137, 16.574599) rotate(32.000000) translate(-15.526137, -16.574599) "></path>
                <path d="M10.8948738,32.319698 C17.4899711,30.0587438 23.6553383,28.9282667 29.3909755,28.9282667 C35.1266127,28.9282667 40.8486932,30.0587438 46.557217,32.319698 L46.557217,55.519698 L10.8948738,55.519698 L10.8948738,32.319698 Z" id="Rectangle-Copy" transform="translate(28.726045, 42.223982) rotate(74.000000) translate(-28.726045, -42.223982) "></path>
                <path d="M3.53839952,57.2103159 C9.48300001,54.9493617 15.0402562,53.8188846 20.2101681,53.8188846 C25.3800799,53.8188846 30.5377723,54.9493617 35.683245,57.2103159 L35.683245,80.4103159 L3.53839952,80.4103159 L3.53839952,57.2103159 Z" id="Rectangle-Copy-2" transform="translate(19.610822, 67.114600) rotate(74.000000) translate(-19.610822, -67.114600) "></path>
            </g>
            <g id="eyes" transform="translate(58.400000, 46.400000)" fill="#E71E1E">
                <g>
                    <g>
                        <polygon id="Rectangle-8-Copy-2" transform="translate(30.676955, 5.200000) rotate(90.000000) translate(-30.676955, -5.200000) " points="25.4769553 -11.0769553 35.8769553 -11.0769553 35.8769553 21.4769553 25.4769553 21.4769553"></polygon>
                        <rect id="Rectangle-8-Copy-3" transform="translate(5.538478, 5.200000) rotate(90.000000) translate(-5.538478, -5.200000) " x="0.338477631" y="-0.338477631" width="10.4" height="11.0769553"></rect>
                    </g>
                </g>
            </g>
        </g>
    </g>
</svg>