<?xml version="1.0" encoding="UTF-8"?>
<svg width="1132px" height="200px" viewBox="0 0 1132 200" version="1.1" xmlns="http://www.w3.org/2000/svg" xmlns:xlink="http://www.w3.org/1999/xlink">
    <!-- Generator: Sketch 56.3 (81716) - https://sketch.com -->
    <title>画板</title>
    <desc>Created with Sketch.</desc>
    <g id="画板" stroke="none" stroke-width="1" fill="none" fill-rule="evenodd">
        <rect fill="#000000" x="0" y="0" width="1132" height="200"></rect>
        <g id="character" transform="translate(483.000000, 32.000000)">
            <circle id="Oval-7" fill="#041D1D" cx="84" cy="72.8" r="58.4"></circle>
            <g id="eyes">
                <g id="spikes" fill="#041D1D">
                    <path d="M48.1454708,119.053978 C35.5652262,112.385196 28.6215741,107.988103 27.3145145,105.862701 C26.0074549,103.737299 35.8894032,104.8 56.9603594,109.050804 L48.1454708,119.053978 Z" id="Path-6"></path>
                    <path d="M40.1112201,104.713186 C27.5309755,98.0444035 20.5873234,93.647311 19.2802638,91.521909 C17.9732042,89.3965069 27.8551525,90.4592079 48.9261087,94.7100121 L40.1112201,104.713186 Z" id="Path-6-Copy" transform="translate(34.045929, 97.586197) rotate(21.000000) translate(-34.045929, -97.586197) "></path>
                    <path d="M37.5008071,88.5831469 C20.9390315,73.8897963 11.7977777,64.2016684 10.0770457,59.5187631 C8.35631383,54.8358578 21.3658074,57.1773105 49.1055264,66.543121 L37.5008071,88.5831469 Z" id="Path-6-Copy-2" transform="translate(29.515907, 72.880229) rotate(21.000000) translate(-29.515907, -72.880229) "></path>
                    <path d="M48.2396249,59.2343946 C24.0450548,37.7693472 10.6908886,23.61627 8.17712621,16.775163 C5.66336381,9.93405593 24.6685182,13.3546094 65.1925894,27.0368235 L48.2396249,59.2343946 Z" id="Path-6-Copy-3" transform="translate(36.574740, 36.294502) rotate(43.000000) translate(-36.574740, -36.294502) "></path>
                </g>
                <g id="spikes-copy" transform="translate(130.200000, 60.000000) scale(-1, 1) translate(-130.200000, -60.000000) translate(93.200000, 0.000000)" fill="#041D1D">
                    <path d="M48.1454708,119.053978 C35.5652262,112.385196 28.6215741,107.988103 27.3145145,105.862701 C26.0074549,103.737299 35.8894032,104.8 56.9603594,109.050804 L48.1454708,119.053978 Z" id="Path-6"></path>
                    <path d="M40.1112201,104.713186 C27.5309755,98.0444035 20.5873234,93.647311 19.2802638,91.521909 C17.9732042,89.3965069 27.8551525,90.4592079 48.9261087,94.7100121 L40.1112201,104.713186 Z" id="Path-6-Copy" transform="translate(34.045929, 97.586197) rotate(21.000000) translate(-34.045929, -97.586197) "></path>
                    <path d="M37.5008071,88.5831469 C20.9390315,73.8897963 11.7977777,64.2016684 10.0770457,59.5187631 C8.35631383,54.8358578 21.3658074,57.1773105 49.1055264,66.543121 L37.5008071,88.5831469 Z" id="Path-6-Copy-2" transform="translate(29.515907, 72.880229) rotate(21.000000) translate(-29.515907, -72.880229) "></path>
                    <path d="M48.2396249,59.2343946 C24.0450548,37.7693472 10.6908886,23.61627 8.17712621,16.775163 C5.66336381,9.93405593 24.6685182,13.3546094 65.1925894,27.0368235 L48.2396249,59.2343946 Z" id="Path-6-Copy-3" transform="translate(36.574740, 36.294502) rotate(43.000000) translate(-36.574740, -36.294502) "></path>
                </g>
                <g id="Group-3" transform="translate(61.600000, 64.800000)" fill="#B21C1C">
                    <rect id="Rectangle-8-Copy" transform="translate(8.153911, 8.153911) rotate(45.000000) translate(-8.153911, -8.153911) " x="2.95391052" y="2.95391052" width="10.4" height="10.4"></rect>
                </g>
                <g id="Group-3-Copy" transform="translate(90.400000, 64.800000)" fill="#B21C1C">
                    <rect id="Rectangle-8" transform="translate(8.153911, 8.153911) rotate(45.000000) translate(-8.153911, -8.153911) " x="2.95391052" y="2.95391052" width="10.4" height="10.4"></rect>
                </g>
            </g>
        </g>
    </g>
</svg>