<?xml version="1.0" encoding="UTF-8"?>
<svg width="1132px" height="200px" viewBox="0 0 1132 200" version="1.1" xmlns="http://www.w3.org/2000/svg" xmlns:xlink="http://www.w3.org/1999/xlink">
    <!-- Generator: Sketch 56.3 (81716) - https://sketch.com -->
    <title>画板</title>
    <desc>Created with Sketch.</desc>
    <g id="画板" stroke="none" stroke-width="1" fill="none" fill-rule="evenodd">
        <rect fill="#000000" x="0" y="0" width="1132" height="200"></rect>
        <g id="character" transform="translate(501.000000, 36.000000)">
            <circle id="Oval-7" fill="#0A112D" cx="65.6" cy="63.2" r="58.4"></circle>
            <g id="eyes" transform="translate(40.800000, 55.200000)" fill="#C98515">
                <circle id="Oval-8" cx="8.4" cy="8.4" r="8.4"></circle>
                <circle id="Oval-8-Copy" cx="42" cy="8.4" r="8.4"></circle>
            </g>
            <g id="spikes" fill="#0A112D">
                <path d="M58.4,0 C61.2444444,4.47636995 62.1925926,6.98691738 61.2444444,7.53164229 C60.2962963,8.07636721 59.3481481,8.71078578 58.4,9.43489801 L58.4,0 Z" id="Path-6"></path>
                <path d="M54.2011335,0.150254944 C57.045578,4.62662489 57.9937261,7.13717232 57.045578,7.68189724 C56.0974298,8.22662215 55.1492817,8.86104072 54.2011335,9.58515296 L54.2011335,0.150254944 Z" id="Path-6-Copy" transform="translate(55.801134, 4.867704) rotate(-31.000000) translate(-55.801134, -4.867704) "></path>
                <path d="M50.2011335,1.75025494 C53.045578,6.22662489 53.9937261,8.73717232 53.045578,9.28189724 C52.0974298,9.82662215 51.1492817,10.4610407 50.2011335,11.185153 L50.2011335,1.75025494 Z" id="Path-6-Copy-2" transform="translate(51.801134, 6.467704) rotate(-31.000000) translate(-51.801134, -6.467704) "></path>
                <path d="M46.2011335,3.35025494 C49.045578,7.82662489 49.9937261,10.3371723 49.045578,10.8818972 C48.0974298,11.4266221 47.1492817,12.0610407 46.2011335,12.785153 L46.2011335,3.35025494 Z" id="Path-6-Copy-3" transform="translate(47.801134, 8.067704) rotate(-31.000000) translate(-47.801134, -8.067704) "></path>
                <path d="M42.2011335,4.95025494 C45.045578,9.42662489 45.9937261,11.9371723 45.045578,12.4818972 C44.0974298,13.0266221 43.1492817,13.6610407 42.2011335,14.385153 L42.2011335,4.95025494 Z" id="Path-6-Copy-4" transform="translate(43.801134, 9.667704) rotate(-31.000000) translate(-43.801134, -9.667704) "></path>
                <path d="M38.2011335,6.55025494 C41.045578,11.0266249 41.9937261,13.5371723 41.045578,14.0818972 C40.0974298,14.6266221 39.1492817,15.2610407 38.2011335,15.985153 L38.2011335,6.55025494 Z" id="Path-6-Copy-5" transform="translate(39.801134, 11.267704) rotate(-31.000000) translate(-39.801134, -11.267704) "></path>
                <path d="M35.0011335,8.15025494 C37.845578,12.6266249 38.7937261,15.1371723 37.845578,15.6818972 C36.8974298,16.2266221 35.9492817,16.8610407 35.0011335,17.585153 L35.0011335,8.15025494 Z" id="Path-6-Copy-6" transform="translate(36.601134, 12.867704) rotate(-31.000000) translate(-36.601134, -12.867704) "></path>
                <path d="M31.0011335,9.75025494 C33.845578,14.2266249 34.7937261,16.7371723 33.845578,17.2818972 C32.8974298,17.8266221 31.9492817,18.4610407 31.0011335,19.185153 L31.0011335,9.75025494 Z" id="Path-6-Copy-7" transform="translate(32.601134, 14.467704) rotate(-31.000000) translate(-32.601134, -14.467704) "></path>
                <path d="M28.6011335,11.3502549 C31.445578,15.8266249 32.3937261,18.3371723 31.445578,18.8818972 C30.4974298,19.4266221 29.5492817,20.0610407 28.6011335,20.785153 L28.6011335,11.3502549 Z" id="Path-6-Copy-8" transform="translate(30.201134, 16.067704) rotate(-31.000000) translate(-30.201134, -16.067704) "></path>
                <path d="M27.0011335,12.9502549 C29.845578,17.4266249 30.7937261,19.9371723 29.845578,20.4818972 C28.8974298,21.0266221 27.9492817,21.6610407 27.0011335,22.385153 L27.0011335,12.9502549 Z" id="Path-6-Copy-9" transform="translate(28.601134, 17.667704) rotate(-31.000000) translate(-28.601134, -17.667704) "></path>
                <path d="M24.6011335,16.1502549 C27.445578,20.6266249 28.3937261,23.1371723 27.445578,23.6818972 C26.4974298,24.2266221 25.5492817,24.8610407 24.6011335,25.585153 L24.6011335,16.1502549 Z" id="Path-6-Copy-10" transform="translate(26.201134, 20.867704) rotate(-31.000000) translate(-26.201134, -20.867704) "></path>
                <path d="M22.5564628,16.3027382 C25.4009072,20.7791082 26.3490554,23.2896556 25.4009072,23.8343805 C24.4527591,24.3791054 23.5046109,25.013524 22.5564628,25.7376362 L22.5564628,16.3027382 Z" id="Path-6-Copy-11" transform="translate(24.156463, 21.020187) rotate(-77.000000) translate(-24.156463, -21.020187) "></path>
                <path d="M20.9801842,19.1995218 C23.8246287,23.6758917 24.7727768,26.1864392 23.8246287,26.7311641 C22.8764805,27.275889 21.9283324,27.9103076 20.9801842,28.6344198 L20.9801842,19.1995218 Z" id="Path-6-Copy-12" transform="translate(22.580184, 23.916971) rotate(-70.000000) translate(-22.580184, -23.916971) "></path>
                <path d="M16.6011335,22.5502549 C19.445578,27.0266249 20.3937261,29.5371723 19.445578,30.0818972 C18.4974298,30.6266221 17.5492817,31.2610407 16.6011335,31.985153 L16.6011335,22.5502549 Z" id="Path-6-Copy-13" transform="translate(18.201134, 27.267704) rotate(-31.000000) translate(-18.201134, -27.267704) "></path>
                <path d="M15.0011335,24.9502549 C17.845578,29.4266249 18.7937261,31.9371723 17.845578,32.4818972 C16.8974298,33.0266221 15.9492817,33.6610407 15.0011335,34.385153 L15.0011335,24.9502549 Z" id="Path-6-Copy-14" transform="translate(16.601134, 29.667704) rotate(-31.000000) translate(-16.601134, -29.667704) "></path>
                <path d="M12.6011335,29.7502549 C15.445578,34.2266249 16.3937261,36.7371723 15.445578,37.2818972 C14.4974298,37.8266221 13.5492817,38.4610407 12.6011335,39.185153 L12.6011335,29.7502549 Z" id="Path-6-Copy-15" transform="translate(14.201134, 34.467704) rotate(-90.000000) translate(-14.201134, -34.467704) "></path>
                <path d="M10.317449,32.882551 C13.1618935,37.3589209 14.1100416,39.8694684 13.1618935,40.4141933 C12.2137453,40.9589182 11.2655972,41.5933368 10.317449,42.317449 L10.317449,32.882551 Z" id="Path-6-Copy-17" transform="translate(11.917449, 37.600000) rotate(-90.000000) translate(-11.917449, -37.600000) "></path>
                <path d="M8.71744901,36.082551 C11.5618935,40.5589209 12.5100416,43.0694684 11.5618935,43.6141933 C10.6137453,44.1589182 9.66559715,44.7933368 8.71744901,45.517449 L8.71744901,36.082551 Z" id="Path-6-Copy-18" transform="translate(10.317449, 40.800000) rotate(-90.000000) translate(-10.317449, -40.800000) "></path>
                <path d="M7.91744901,39.282551 C10.7618935,43.7589209 11.7100416,46.2694684 10.7618935,46.8141933 C9.8137453,47.3589182 8.86559715,47.9933368 7.91744901,48.717449 L7.91744901,39.282551 Z" id="Path-6-Copy-19" transform="translate(9.517449, 44.000000) rotate(-90.000000) translate(-9.517449, -44.000000) "></path>
                <path d="M6.31744901,42.482551 C9.16189345,46.9589209 10.1100416,49.4694684 9.16189345,50.0141933 C8.2137453,50.5589182 7.26559715,51.1933368 6.31744901,51.917449 L6.31744901,42.482551 Z" id="Path-6-Copy-20" transform="translate(7.917449, 47.200000) rotate(-90.000000) translate(-7.917449, -47.200000) "></path>
                <path d="M6.31744901,42.482551 C9.16189345,46.9589209 10.1100416,49.4694684 9.16189345,50.0141933 C8.2137453,50.5589182 7.26559715,51.1933368 6.31744901,51.917449 L6.31744901,42.482551 Z" id="Path-6-Copy-21" transform="translate(7.917449, 47.200000) rotate(-90.000000) translate(-7.917449, -47.200000) "></path>
                <path d="M4.71744901,45.682551 C7.56189345,50.1589209 8.5100416,52.6694684 7.56189345,53.2141933 C6.6137453,53.7589182 5.66559715,54.3933368 4.71744901,55.117449 L4.71744901,45.682551 Z" id="Path-6-Copy-22" transform="translate(6.317449, 50.400000) rotate(-110.000000) translate(-6.317449, -50.400000) "></path>
                <path d="M4.18018425,48.7995218 C7.02462869,53.2758917 7.97277684,55.7864392 7.02462869,56.3311641 C6.07648055,56.875889 5.1283324,57.5103076 4.18018425,58.2344198 L4.18018425,48.7995218 Z" id="Path-6-Copy-23" transform="translate(5.780184, 53.516971) rotate(-110.000000) translate(-5.780184, -53.516971) "></path>
                <path d="M4.61981575,51.9995218 C7.46426019,56.4758917 8.41240834,58.9864392 7.46426019,59.5311641 C6.51611205,60.075889 5.5679639,60.7103076 4.61981575,61.4344198 L4.61981575,51.9995218 Z" id="Path-6-Copy-24" transform="translate(6.219816, 56.716971) rotate(-110.000000) translate(-6.219816, -56.716971) "></path>
                <path d="M3.38018425,55.1995218 C6.22462869,59.6758917 7.17277684,62.1864392 6.22462869,62.7311641 C5.27648055,63.275889 4.3283324,63.9103076 3.38018425,64.6344198 L3.38018425,55.1995218 Z" id="Path-6-Copy-25" transform="translate(4.980184, 59.916971) rotate(-110.000000) translate(-4.980184, -59.916971) "></path>
                <path d="M13.4011335,27.3502549 C16.245578,31.8266249 17.1937261,34.3371723 16.245578,34.8818972 C15.2974298,35.4266221 14.3492817,36.0610407 13.4011335,36.785153 L13.4011335,27.3502549 Z" id="Path-6-Copy-16" transform="translate(15.001134, 32.067704) rotate(-31.000000) translate(-15.001134, -32.067704) "></path>
            </g>
            <g id="spikes-copy" transform="translate(100.200000, 32.000000) scale(-1, 1) translate(-100.200000, -32.000000) translate(69.200000, 0.000000)" fill="#0A112D">
                <path d="M58.4,0 C61.2444444,4.47636995 62.1925926,6.98691738 61.2444444,7.53164229 C60.2962963,8.07636721 59.3481481,8.71078578 58.4,9.43489801 L58.4,0 Z" id="Path-6"></path>
                <path d="M54.2011335,0.150254944 C57.045578,4.62662489 57.9937261,7.13717232 57.045578,7.68189724 C56.0974298,8.22662215 55.1492817,8.86104072 54.2011335,9.58515296 L54.2011335,0.150254944 Z" id="Path-6-Copy" transform="translate(55.801134, 4.867704) rotate(-31.000000) translate(-55.801134, -4.867704) "></path>
                <path d="M50.2011335,1.75025494 C53.045578,6.22662489 53.9937261,8.73717232 53.045578,9.28189724 C52.0974298,9.82662215 51.1492817,10.4610407 50.2011335,11.185153 L50.2011335,1.75025494 Z" id="Path-6-Copy-2" transform="translate(51.801134, 6.467704) rotate(-31.000000) translate(-51.801134, -6.467704) "></path>
                <path d="M46.2011335,3.35025494 C49.045578,7.82662489 49.9937261,10.3371723 49.045578,10.8818972 C48.0974298,11.4266221 47.1492817,12.0610407 46.2011335,12.785153 L46.2011335,3.35025494 Z" id="Path-6-Copy-3" transform="translate(47.801134, 8.067704) rotate(-31.000000) translate(-47.801134, -8.067704) "></path>
                <path d="M42.2011335,4.95025494 C45.045578,9.42662489 45.9937261,11.9371723 45.045578,12.4818972 C44.0974298,13.0266221 43.1492817,13.6610407 42.2011335,14.385153 L42.2011335,4.95025494 Z" id="Path-6-Copy-4" transform="translate(43.801134, 9.667704) rotate(-31.000000) translate(-43.801134, -9.667704) "></path>
                <path d="M38.2011335,6.55025494 C41.045578,11.0266249 41.9937261,13.5371723 41.045578,14.0818972 C40.0974298,14.6266221 39.1492817,15.2610407 38.2011335,15.985153 L38.2011335,6.55025494 Z" id="Path-6-Copy-5" transform="translate(39.801134, 11.267704) rotate(-31.000000) translate(-39.801134, -11.267704) "></path>
                <path d="M35.0011335,8.15025494 C37.845578,12.6266249 38.7937261,15.1371723 37.845578,15.6818972 C36.8974298,16.2266221 35.9492817,16.8610407 35.0011335,17.585153 L35.0011335,8.15025494 Z" id="Path-6-Copy-6" transform="translate(36.601134, 12.867704) rotate(-31.000000) translate(-36.601134, -12.867704) "></path>
                <path d="M31.0011335,9.75025494 C33.845578,14.2266249 34.7937261,16.7371723 33.845578,17.2818972 C32.8974298,17.8266221 31.9492817,18.4610407 31.0011335,19.185153 L31.0011335,9.75025494 Z" id="Path-6-Copy-7" transform="translate(32.601134, 14.467704) rotate(-31.000000) translate(-32.601134, -14.467704) "></path>
                <path d="M28.6011335,11.3502549 C31.445578,15.8266249 32.3937261,18.3371723 31.445578,18.8818972 C30.4974298,19.4266221 29.5492817,20.0610407 28.6011335,20.785153 L28.6011335,11.3502549 Z" id="Path-6-Copy-8" transform="translate(30.201134, 16.067704) rotate(-31.000000) translate(-30.201134, -16.067704) "></path>
                <path d="M27.0011335,12.9502549 C29.845578,17.4266249 30.7937261,19.9371723 29.845578,20.4818972 C28.8974298,21.0266221 27.9492817,21.6610407 27.0011335,22.385153 L27.0011335,12.9502549 Z" id="Path-6-Copy-9" transform="translate(28.601134, 17.667704) rotate(-31.000000) translate(-28.601134, -17.667704) "></path>
                <path d="M24.6011335,16.1502549 C27.445578,20.6266249 28.3937261,23.1371723 27.445578,23.6818972 C26.4974298,24.2266221 25.5492817,24.8610407 24.6011335,25.585153 L24.6011335,16.1502549 Z" id="Path-6-Copy-10" transform="translate(26.201134, 20.867704) rotate(-31.000000) translate(-26.201134, -20.867704) "></path>
                <path d="M22.5564628,16.3027382 C25.4009072,20.7791082 26.3490554,23.2896556 25.4009072,23.8343805 C24.4527591,24.3791054 23.5046109,25.013524 22.5564628,25.7376362 L22.5564628,16.3027382 Z" id="Path-6-Copy-11" transform="translate(24.156463, 21.020187) rotate(-77.000000) translate(-24.156463, -21.020187) "></path>
                <path d="M20.9801842,19.1995218 C23.8246287,23.6758917 24.7727768,26.1864392 23.8246287,26.7311641 C22.8764805,27.275889 21.9283324,27.9103076 20.9801842,28.6344198 L20.9801842,19.1995218 Z" id="Path-6-Copy-12" transform="translate(22.580184, 23.916971) rotate(-70.000000) translate(-22.580184, -23.916971) "></path>
                <path d="M16.6011335,22.5502549 C19.445578,27.0266249 20.3937261,29.5371723 19.445578,30.0818972 C18.4974298,30.6266221 17.5492817,31.2610407 16.6011335,31.985153 L16.6011335,22.5502549 Z" id="Path-6-Copy-13" transform="translate(18.201134, 27.267704) rotate(-31.000000) translate(-18.201134, -27.267704) "></path>
                <path d="M15.0011335,24.9502549 C17.845578,29.4266249 18.7937261,31.9371723 17.845578,32.4818972 C16.8974298,33.0266221 15.9492817,33.6610407 15.0011335,34.385153 L15.0011335,24.9502549 Z" id="Path-6-Copy-14" transform="translate(16.601134, 29.667704) rotate(-31.000000) translate(-16.601134, -29.667704) "></path>
                <path d="M12.6011335,29.7502549 C15.445578,34.2266249 16.3937261,36.7371723 15.445578,37.2818972 C14.4974298,37.8266221 13.5492817,38.4610407 12.6011335,39.185153 L12.6011335,29.7502549 Z" id="Path-6-Copy-15" transform="translate(14.201134, 34.467704) rotate(-90.000000) translate(-14.201134, -34.467704) "></path>
                <path d="M10.317449,32.882551 C13.1618935,37.3589209 14.1100416,39.8694684 13.1618935,40.4141933 C12.2137453,40.9589182 11.2655972,41.5933368 10.317449,42.317449 L10.317449,32.882551 Z" id="Path-6-Copy-17" transform="translate(11.917449, 37.600000) rotate(-90.000000) translate(-11.917449, -37.600000) "></path>
                <path d="M8.71744901,36.082551 C11.5618935,40.5589209 12.5100416,43.0694684 11.5618935,43.6141933 C10.6137453,44.1589182 9.66559715,44.7933368 8.71744901,45.517449 L8.71744901,36.082551 Z" id="Path-6-Copy-18" transform="translate(10.317449, 40.800000) rotate(-90.000000) translate(-10.317449, -40.800000) "></path>
                <path d="M7.91744901,39.282551 C10.7618935,43.7589209 11.7100416,46.2694684 10.7618935,46.8141933 C9.8137453,47.3589182 8.86559715,47.9933368 7.91744901,48.717449 L7.91744901,39.282551 Z" id="Path-6-Copy-19" transform="translate(9.517449, 44.000000) rotate(-90.000000) translate(-9.517449, -44.000000) "></path>
                <path d="M6.31744901,42.482551 C9.16189345,46.9589209 10.1100416,49.4694684 9.16189345,50.0141933 C8.2137453,50.5589182 7.26559715,51.1933368 6.31744901,51.917449 L6.31744901,42.482551 Z" id="Path-6-Copy-20" transform="translate(7.917449, 47.200000) rotate(-90.000000) translate(-7.917449, -47.200000) "></path>
                <path d="M6.31744901,42.482551 C9.16189345,46.9589209 10.1100416,49.4694684 9.16189345,50.0141933 C8.2137453,50.5589182 7.26559715,51.1933368 6.31744901,51.917449 L6.31744901,42.482551 Z" id="Path-6-Copy-21" transform="translate(7.917449, 47.200000) rotate(-90.000000) translate(-7.917449, -47.200000) "></path>
                <path d="M4.71744901,45.682551 C7.56189345,50.1589209 8.5100416,52.6694684 7.56189345,53.2141933 C6.6137453,53.7589182 5.66559715,54.3933368 4.71744901,55.117449 L4.71744901,45.682551 Z" id="Path-6-Copy-22" transform="translate(6.317449, 50.400000) rotate(-110.000000) translate(-6.317449, -50.400000) "></path>
                <path d="M4.18018425,48.7995218 C7.02462869,53.2758917 7.97277684,55.7864392 7.02462869,56.3311641 C6.07648055,56.875889 5.1283324,57.5103076 4.18018425,58.2344198 L4.18018425,48.7995218 Z" id="Path-6-Copy-23" transform="translate(5.780184, 53.516971) rotate(-110.000000) translate(-5.780184, -53.516971) "></path>
                <path d="M4.61981575,51.9995218 C7.46426019,56.4758917 8.41240834,58.9864392 7.46426019,59.5311641 C6.51611205,60.075889 5.5679639,60.7103076 4.61981575,61.4344198 L4.61981575,51.9995218 Z" id="Path-6-Copy-24" transform="translate(6.219816, 56.716971) rotate(-110.000000) translate(-6.219816, -56.716971) "></path>
                <path d="M3.38018425,55.1995218 C6.22462869,59.6758917 7.17277684,62.1864392 6.22462869,62.7311641 C5.27648055,63.275889 4.3283324,63.9103076 3.38018425,64.6344198 L3.38018425,55.1995218 Z" id="Path-6-Copy-25" transform="translate(4.980184, 59.916971) rotate(-110.000000) translate(-4.980184, -59.916971) "></path>
                <path d="M13.4011335,27.3502549 C16.245578,31.8266249 17.1937261,34.3371723 16.245578,34.8818972 C15.2974298,35.4266221 14.3492817,36.0610407 13.4011335,36.785153 L13.4011335,27.3502549 Z" id="Path-6-Copy-16" transform="translate(15.001134, 32.067704) rotate(-31.000000) translate(-15.001134, -32.067704) "></path>
            </g>
            <g id="spikes-copy-2" transform="translate(100.200000, 92.000000) scale(-1, -1) translate(-100.200000, -92.000000) translate(69.200000, 60.000000)" fill="#0A112D">
                <path d="M58.4,0 C61.2444444,4.47636995 62.1925926,6.98691738 61.2444444,7.53164229 C60.2962963,8.07636721 59.3481481,8.71078578 58.4,9.43489801 L58.4,0 Z" id="Path-6"></path>
                <path d="M54.2011335,0.150254944 C57.045578,4.62662489 57.9937261,7.13717232 57.045578,7.68189724 C56.0974298,8.22662215 55.1492817,8.86104072 54.2011335,9.58515296 L54.2011335,0.150254944 Z" id="Path-6-Copy" transform="translate(55.801134, 4.867704) rotate(-31.000000) translate(-55.801134, -4.867704) "></path>
                <path d="M50.2011335,1.75025494 C53.045578,6.22662489 53.9937261,8.73717232 53.045578,9.28189724 C52.0974298,9.82662215 51.1492817,10.4610407 50.2011335,11.185153 L50.2011335,1.75025494 Z" id="Path-6-Copy-2" transform="translate(51.801134, 6.467704) rotate(-31.000000) translate(-51.801134, -6.467704) "></path>
                <path d="M46.2011335,3.35025494 C49.045578,7.82662489 49.9937261,10.3371723 49.045578,10.8818972 C48.0974298,11.4266221 47.1492817,12.0610407 46.2011335,12.785153 L46.2011335,3.35025494 Z" id="Path-6-Copy-3" transform="translate(47.801134, 8.067704) rotate(-31.000000) translate(-47.801134, -8.067704) "></path>
                <path d="M42.2011335,4.95025494 C45.045578,9.42662489 45.9937261,11.9371723 45.045578,12.4818972 C44.0974298,13.0266221 43.1492817,13.6610407 42.2011335,14.385153 L42.2011335,4.95025494 Z" id="Path-6-Copy-4" transform="translate(43.801134, 9.667704) rotate(-31.000000) translate(-43.801134, -9.667704) "></path>
                <path d="M38.2011335,6.55025494 C41.045578,11.0266249 41.9937261,13.5371723 41.045578,14.0818972 C40.0974298,14.6266221 39.1492817,15.2610407 38.2011335,15.985153 L38.2011335,6.55025494 Z" id="Path-6-Copy-5" transform="translate(39.801134, 11.267704) rotate(-31.000000) translate(-39.801134, -11.267704) "></path>
                <path d="M35.0011335,8.15025494 C37.845578,12.6266249 38.7937261,15.1371723 37.845578,15.6818972 C36.8974298,16.2266221 35.9492817,16.8610407 35.0011335,17.585153 L35.0011335,8.15025494 Z" id="Path-6-Copy-6" transform="translate(36.601134, 12.867704) rotate(-31.000000) translate(-36.601134, -12.867704) "></path>
                <path d="M31.0011335,9.75025494 C33.845578,14.2266249 34.7937261,16.7371723 33.845578,17.2818972 C32.8974298,17.8266221 31.9492817,18.4610407 31.0011335,19.185153 L31.0011335,9.75025494 Z" id="Path-6-Copy-7" transform="translate(32.601134, 14.467704) rotate(-31.000000) translate(-32.601134, -14.467704) "></path>
                <path d="M28.6011335,11.3502549 C31.445578,15.8266249 32.3937261,18.3371723 31.445578,18.8818972 C30.4974298,19.4266221 29.5492817,20.0610407 28.6011335,20.785153 L28.6011335,11.3502549 Z" id="Path-6-Copy-8" transform="translate(30.201134, 16.067704) rotate(-31.000000) translate(-30.201134, -16.067704) "></path>
                <path d="M27.0011335,12.9502549 C29.845578,17.4266249 30.7937261,19.9371723 29.845578,20.4818972 C28.8974298,21.0266221 27.9492817,21.6610407 27.0011335,22.385153 L27.0011335,12.9502549 Z" id="Path-6-Copy-9" transform="translate(28.601134, 17.667704) rotate(-31.000000) translate(-28.601134, -17.667704) "></path>
                <path d="M24.6011335,16.1502549 C27.445578,20.6266249 28.3937261,23.1371723 27.445578,23.6818972 C26.4974298,24.2266221 25.5492817,24.8610407 24.6011335,25.585153 L24.6011335,16.1502549 Z" id="Path-6-Copy-10" transform="translate(26.201134, 20.867704) rotate(-31.000000) translate(-26.201134, -20.867704) "></path>
                <path d="M22.5564628,16.3027382 C25.4009072,20.7791082 26.3490554,23.2896556 25.4009072,23.8343805 C24.4527591,24.3791054 23.5046109,25.013524 22.5564628,25.7376362 L22.5564628,16.3027382 Z" id="Path-6-Copy-11" transform="translate(24.156463, 21.020187) rotate(-77.000000) translate(-24.156463, -21.020187) "></path>
                <path d="M20.9801842,19.1995218 C23.8246287,23.6758917 24.7727768,26.1864392 23.8246287,26.7311641 C22.8764805,27.275889 21.9283324,27.9103076 20.9801842,28.6344198 L20.9801842,19.1995218 Z" id="Path-6-Copy-12" transform="translate(22.580184, 23.916971) rotate(-70.000000) translate(-22.580184, -23.916971) "></path>
                <path d="M16.6011335,22.5502549 C19.445578,27.0266249 20.3937261,29.5371723 19.445578,30.0818972 C18.4974298,30.6266221 17.5492817,31.2610407 16.6011335,31.985153 L16.6011335,22.5502549 Z" id="Path-6-Copy-13" transform="translate(18.201134, 27.267704) rotate(-31.000000) translate(-18.201134, -27.267704) "></path>
                <path d="M15.0011335,24.9502549 C17.845578,29.4266249 18.7937261,31.9371723 17.845578,32.4818972 C16.8974298,33.0266221 15.9492817,33.6610407 15.0011335,34.385153 L15.0011335,24.9502549 Z" id="Path-6-Copy-14" transform="translate(16.601134, 29.667704) rotate(-31.000000) translate(-16.601134, -29.667704) "></path>
                <path d="M12.6011335,29.7502549 C15.445578,34.2266249 16.3937261,36.7371723 15.445578,37.2818972 C14.4974298,37.8266221 13.5492817,38.4610407 12.6011335,39.185153 L12.6011335,29.7502549 Z" id="Path-6-Copy-15" transform="translate(14.201134, 34.467704) rotate(-90.000000) translate(-14.201134, -34.467704) "></path>
                <path d="M10.317449,32.882551 C13.1618935,37.3589209 14.1100416,39.8694684 13.1618935,40.4141933 C12.2137453,40.9589182 11.2655972,41.5933368 10.317449,42.317449 L10.317449,32.882551 Z" id="Path-6-Copy-17" transform="translate(11.917449, 37.600000) rotate(-90.000000) translate(-11.917449, -37.600000) "></path>
                <path d="M8.71744901,36.082551 C11.5618935,40.5589209 12.5100416,43.0694684 11.5618935,43.6141933 C10.6137453,44.1589182 9.66559715,44.7933368 8.71744901,45.517449 L8.71744901,36.082551 Z" id="Path-6-Copy-18" transform="translate(10.317449, 40.800000) rotate(-90.000000) translate(-10.317449, -40.800000) "></path>
                <path d="M7.91744901,39.282551 C10.7618935,43.7589209 11.7100416,46.2694684 10.7618935,46.8141933 C9.8137453,47.3589182 8.86559715,47.9933368 7.91744901,48.717449 L7.91744901,39.282551 Z" id="Path-6-Copy-19" transform="translate(9.517449, 44.000000) rotate(-90.000000) translate(-9.517449, -44.000000) "></path>
                <path d="M6.31744901,42.482551 C9.16189345,46.9589209 10.1100416,49.4694684 9.16189345,50.0141933 C8.2137453,50.5589182 7.26559715,51.1933368 6.31744901,51.917449 L6.31744901,42.482551 Z" id="Path-6-Copy-20" transform="translate(7.917449, 47.200000) rotate(-90.000000) translate(-7.917449, -47.200000) "></path>
                <path d="M6.31744901,42.482551 C9.16189345,46.9589209 10.1100416,49.4694684 9.16189345,50.0141933 C8.2137453,50.5589182 7.26559715,51.1933368 6.31744901,51.917449 L6.31744901,42.482551 Z" id="Path-6-Copy-21" transform="translate(7.917449, 47.200000) rotate(-90.000000) translate(-7.917449, -47.200000) "></path>
                <path d="M4.71744901,45.682551 C7.56189345,50.1589209 8.5100416,52.6694684 7.56189345,53.2141933 C6.6137453,53.7589182 5.66559715,54.3933368 4.71744901,55.117449 L4.71744901,45.682551 Z" id="Path-6-Copy-22" transform="translate(6.317449, 50.400000) rotate(-110.000000) translate(-6.317449, -50.400000) "></path>
                <path d="M4.18018425,48.7995218 C7.02462869,53.2758917 7.97277684,55.7864392 7.02462869,56.3311641 C6.07648055,56.875889 5.1283324,57.5103076 4.18018425,58.2344198 L4.18018425,48.7995218 Z" id="Path-6-Copy-23" transform="translate(5.780184, 53.516971) rotate(-110.000000) translate(-5.780184, -53.516971) "></path>
                <path d="M4.61981575,51.9995218 C7.46426019,56.4758917 8.41240834,58.9864392 7.46426019,59.5311641 C6.51611205,60.075889 5.5679639,60.7103076 4.61981575,61.4344198 L4.61981575,51.9995218 Z" id="Path-6-Copy-24" transform="translate(6.219816, 56.716971) rotate(-110.000000) translate(-6.219816, -56.716971) "></path>
                <path d="M3.38018425,55.1995218 C6.22462869,59.6758917 7.17277684,62.1864392 6.22462869,62.7311641 C5.27648055,63.275889 4.3283324,63.9103076 3.38018425,64.6344198 L3.38018425,55.1995218 Z" id="Path-6-Copy-25" transform="translate(4.980184, 59.916971) rotate(-110.000000) translate(-4.980184, -59.916971) "></path>
                <path d="M13.4011335,27.3502549 C16.245578,31.8266249 17.1937261,34.3371723 16.245578,34.8818972 C15.2974298,35.4266221 14.3492817,36.0610407 13.4011335,36.785153 L13.4011335,27.3502549 Z" id="Path-6-Copy-16" transform="translate(15.001134, 32.067704) rotate(-31.000000) translate(-15.001134, -32.067704) "></path>
            </g>
            <g id="spikes-copy-3" transform="translate(31.000000, 92.000000) scale(1, -1) translate(-31.000000, -92.000000) translate(0.000000, 60.000000)" fill="#0A112D">
                <path d="M58.4,0 C61.2444444,4.47636995 62.1925926,6.98691738 61.2444444,7.53164229 C60.2962963,8.07636721 59.3481481,8.71078578 58.4,9.43489801 L58.4,0 Z" id="Path-6"></path>
                <path d="M54.2011335,0.150254944 C57.045578,4.62662489 57.9937261,7.13717232 57.045578,7.68189724 C56.0974298,8.22662215 55.1492817,8.86104072 54.2011335,9.58515296 L54.2011335,0.150254944 Z" id="Path-6-Copy" transform="translate(55.801134, 4.867704) rotate(-31.000000) translate(-55.801134, -4.867704) "></path>
                <path d="M50.2011335,1.75025494 C53.045578,6.22662489 53.9937261,8.73717232 53.045578,9.28189724 C52.0974298,9.82662215 51.1492817,10.4610407 50.2011335,11.185153 L50.2011335,1.75025494 Z" id="Path-6-Copy-2" transform="translate(51.801134, 6.467704) rotate(-31.000000) translate(-51.801134, -6.467704) "></path>
                <path d="M46.2011335,3.35025494 C49.045578,7.82662489 49.9937261,10.3371723 49.045578,10.8818972 C48.0974298,11.4266221 47.1492817,12.0610407 46.2011335,12.785153 L46.2011335,3.35025494 Z" id="Path-6-Copy-3" transform="translate(47.801134, 8.067704) rotate(-31.000000) translate(-47.801134, -8.067704) "></path>
                <path d="M42.2011335,4.95025494 C45.045578,9.42662489 45.9937261,11.9371723 45.045578,12.4818972 C44.0974298,13.0266221 43.1492817,13.6610407 42.2011335,14.385153 L42.2011335,4.95025494 Z" id="Path-6-Copy-4" transform="translate(43.801134, 9.667704) rotate(-31.000000) translate(-43.801134, -9.667704) "></path>
                <path d="M38.2011335,6.55025494 C41.045578,11.0266249 41.9937261,13.5371723 41.045578,14.0818972 C40.0974298,14.6266221 39.1492817,15.2610407 38.2011335,15.985153 L38.2011335,6.55025494 Z" id="Path-6-Copy-5" transform="translate(39.801134, 11.267704) rotate(-31.000000) translate(-39.801134, -11.267704) "></path>
                <path d="M35.0011335,8.15025494 C37.845578,12.6266249 38.7937261,15.1371723 37.845578,15.6818972 C36.8974298,16.2266221 35.9492817,16.8610407 35.0011335,17.585153 L35.0011335,8.15025494 Z" id="Path-6-Copy-6" transform="translate(36.601134, 12.867704) rotate(-31.000000) translate(-36.601134, -12.867704) "></path>
                <path d="M31.0011335,9.75025494 C33.845578,14.2266249 34.7937261,16.7371723 33.845578,17.2818972 C32.8974298,17.8266221 31.9492817,18.4610407 31.0011335,19.185153 L31.0011335,9.75025494 Z" id="Path-6-Copy-7" transform="translate(32.601134, 14.467704) rotate(-31.000000) translate(-32.601134, -14.467704) "></path>
                <path d="M28.6011335,11.3502549 C31.445578,15.8266249 32.3937261,18.3371723 31.445578,18.8818972 C30.4974298,19.4266221 29.5492817,20.0610407 28.6011335,20.785153 L28.6011335,11.3502549 Z" id="Path-6-Copy-8" transform="translate(30.201134, 16.067704) rotate(-31.000000) translate(-30.201134, -16.067704) "></path>
                <path d="M27.0011335,12.9502549 C29.845578,17.4266249 30.7937261,19.9371723 29.845578,20.4818972 C28.8974298,21.0266221 27.9492817,21.6610407 27.0011335,22.385153 L27.0011335,12.9502549 Z" id="Path-6-Copy-9" transform="translate(28.601134, 17.667704) rotate(-31.000000) translate(-28.601134, -17.667704) "></path>
                <path d="M24.6011335,16.1502549 C27.445578,20.6266249 28.3937261,23.1371723 27.445578,23.6818972 C26.4974298,24.2266221 25.5492817,24.8610407 24.6011335,25.585153 L24.6011335,16.1502549 Z" id="Path-6-Copy-10" transform="translate(26.201134, 20.867704) rotate(-31.000000) translate(-26.201134, -20.867704) "></path>
                <path d="M22.5564628,16.3027382 C25.4009072,20.7791082 26.3490554,23.2896556 25.4009072,23.8343805 C24.4527591,24.3791054 23.5046109,25.013524 22.5564628,25.7376362 L22.5564628,16.3027382 Z" id="Path-6-Copy-11" transform="translate(24.156463, 21.020187) rotate(-77.000000) translate(-24.156463, -21.020187) "></path>
                <path d="M20.9801842,19.1995218 C23.8246287,23.6758917 24.7727768,26.1864392 23.8246287,26.7311641 C22.8764805,27.275889 21.9283324,27.9103076 20.9801842,28.6344198 L20.9801842,19.1995218 Z" id="Path-6-Copy-12" transform="translate(22.580184, 23.916971) rotate(-70.000000) translate(-22.580184, -23.916971) "></path>
                <path d="M16.6011335,22.5502549 C19.445578,27.0266249 20.3937261,29.5371723 19.445578,30.0818972 C18.4974298,30.6266221 17.5492817,31.2610407 16.6011335,31.985153 L16.6011335,22.5502549 Z" id="Path-6-Copy-13" transform="translate(18.201134, 27.267704) rotate(-31.000000) translate(-18.201134, -27.267704) "></path>
                <path d="M15.0011335,24.9502549 C17.845578,29.4266249 18.7937261,31.9371723 17.845578,32.4818972 C16.8974298,33.0266221 15.9492817,33.6610407 15.0011335,34.385153 L15.0011335,24.9502549 Z" id="Path-6-Copy-14" transform="translate(16.601134, 29.667704) rotate(-31.000000) translate(-16.601134, -29.667704) "></path>
                <path d="M12.6011335,29.7502549 C15.445578,34.2266249 16.3937261,36.7371723 15.445578,37.2818972 C14.4974298,37.8266221 13.5492817,38.4610407 12.6011335,39.185153 L12.6011335,29.7502549 Z" id="Path-6-Copy-15" transform="translate(14.201134, 34.467704) rotate(-90.000000) translate(-14.201134, -34.467704) "></path>
                <path d="M10.317449,32.882551 C13.1618935,37.3589209 14.1100416,39.8694684 13.1618935,40.4141933 C12.2137453,40.9589182 11.2655972,41.5933368 10.317449,42.317449 L10.317449,32.882551 Z" id="Path-6-Copy-17" transform="translate(11.917449, 37.600000) rotate(-90.000000) translate(-11.917449, -37.600000) "></path>
                <path d="M8.71744901,36.082551 C11.5618935,40.5589209 12.5100416,43.0694684 11.5618935,43.6141933 C10.6137453,44.1589182 9.66559715,44.7933368 8.71744901,45.517449 L8.71744901,36.082551 Z" id="Path-6-Copy-18" transform="translate(10.317449, 40.800000) rotate(-90.000000) translate(-10.317449, -40.800000) "></path>
                <path d="M7.91744901,39.282551 C10.7618935,43.7589209 11.7100416,46.2694684 10.7618935,46.8141933 C9.8137453,47.3589182 8.86559715,47.9933368 7.91744901,48.717449 L7.91744901,39.282551 Z" id="Path-6-Copy-19" transform="translate(9.517449, 44.000000) rotate(-90.000000) translate(-9.517449, -44.000000) "></path>
                <path d="M6.31744901,42.482551 C9.16189345,46.9589209 10.1100416,49.4694684 9.16189345,50.0141933 C8.2137453,50.5589182 7.26559715,51.1933368 6.31744901,51.917449 L6.31744901,42.482551 Z" id="Path-6-Copy-20" transform="translate(7.917449, 47.200000) rotate(-90.000000) translate(-7.917449, -47.200000) "></path>
                <path d="M6.31744901,42.482551 C9.16189345,46.9589209 10.1100416,49.4694684 9.16189345,50.0141933 C8.2137453,50.5589182 7.26559715,51.1933368 6.31744901,51.917449 L6.31744901,42.482551 Z" id="Path-6-Copy-21" transform="translate(7.917449, 47.200000) rotate(-90.000000) translate(-7.917449, -47.200000) "></path>
                <path d="M4.71744901,45.682551 C7.56189345,50.1589209 8.5100416,52.6694684 7.56189345,53.2141933 C6.6137453,53.7589182 5.66559715,54.3933368 4.71744901,55.117449 L4.71744901,45.682551 Z" id="Path-6-Copy-22" transform="translate(6.317449, 50.400000) rotate(-110.000000) translate(-6.317449, -50.400000) "></path>
                <path d="M4.18018425,48.7995218 C7.02462869,53.2758917 7.97277684,55.7864392 7.02462869,56.3311641 C6.07648055,56.875889 5.1283324,57.5103076 4.18018425,58.2344198 L4.18018425,48.7995218 Z" id="Path-6-Copy-23" transform="translate(5.780184, 53.516971) rotate(-110.000000) translate(-5.780184, -53.516971) "></path>
                <path d="M4.61981575,51.9995218 C7.46426019,56.4758917 8.41240834,58.9864392 7.46426019,59.5311641 C6.51611205,60.075889 5.5679639,60.7103076 4.61981575,61.4344198 L4.61981575,51.9995218 Z" id="Path-6-Copy-24" transform="translate(6.219816, 56.716971) rotate(-110.000000) translate(-6.219816, -56.716971) "></path>
                <path d="M3.38018425,55.1995218 C6.22462869,59.6758917 7.17277684,62.1864392 6.22462869,62.7311641 C5.27648055,63.275889 4.3283324,63.9103076 3.38018425,64.6344198 L3.38018425,55.1995218 Z" id="Path-6-Copy-25" transform="translate(4.980184, 59.916971) rotate(-110.000000) translate(-4.980184, -59.916971) "></path>
                <path d="M13.4011335,27.3502549 C16.245578,31.8266249 17.1937261,34.3371723 16.245578,34.8818972 C15.2974298,35.4266221 14.3492817,36.0610407 13.4011335,36.785153 L13.4011335,27.3502549 Z" id="Path-6-Copy-16" transform="translate(15.001134, 32.067704) rotate(-31.000000) translate(-15.001134, -32.067704) "></path>
            </g>
            <g id="spikes-copy-5" transform="translate(100.200000, 96.000000) scale(-1, -1) translate(-100.200000, -96.000000) translate(69.200000, 64.000000)" fill="#0A112D">
                <path d="M58.4,0 C61.2444444,4.47636995 62.1925926,6.98691738 61.2444444,7.53164229 C60.2962963,8.07636721 59.3481481,8.71078578 58.4,9.43489801 L58.4,0 Z" id="Path-6"></path>
                <path d="M54.2011335,0.150254944 C57.045578,4.62662489 57.9937261,7.13717232 57.045578,7.68189724 C56.0974298,8.22662215 55.1492817,8.86104072 54.2011335,9.58515296 L54.2011335,0.150254944 Z" id="Path-6-Copy" transform="translate(55.801134, 4.867704) rotate(-31.000000) translate(-55.801134, -4.867704) "></path>
                <path d="M50.2011335,1.75025494 C53.045578,6.22662489 53.9937261,8.73717232 53.045578,9.28189724 C52.0974298,9.82662215 51.1492817,10.4610407 50.2011335,11.185153 L50.2011335,1.75025494 Z" id="Path-6-Copy-2" transform="translate(51.801134, 6.467704) rotate(-31.000000) translate(-51.801134, -6.467704) "></path>
                <path d="M46.2011335,3.35025494 C49.045578,7.82662489 49.9937261,10.3371723 49.045578,10.8818972 C48.0974298,11.4266221 47.1492817,12.0610407 46.2011335,12.785153 L46.2011335,3.35025494 Z" id="Path-6-Copy-3" transform="translate(47.801134, 8.067704) rotate(-31.000000) translate(-47.801134, -8.067704) "></path>
                <path d="M42.2011335,4.95025494 C45.045578,9.42662489 45.9937261,11.9371723 45.045578,12.4818972 C44.0974298,13.0266221 43.1492817,13.6610407 42.2011335,14.385153 L42.2011335,4.95025494 Z" id="Path-6-Copy-4" transform="translate(43.801134, 9.667704) rotate(-31.000000) translate(-43.801134, -9.667704) "></path>
                <path d="M38.2011335,6.55025494 C41.045578,11.0266249 41.9937261,13.5371723 41.045578,14.0818972 C40.0974298,14.6266221 39.1492817,15.2610407 38.2011335,15.985153 L38.2011335,6.55025494 Z" id="Path-6-Copy-5" transform="translate(39.801134, 11.267704) rotate(-31.000000) translate(-39.801134, -11.267704) "></path>
                <path d="M35.0011335,8.15025494 C37.845578,12.6266249 38.7937261,15.1371723 37.845578,15.6818972 C36.8974298,16.2266221 35.9492817,16.8610407 35.0011335,17.585153 L35.0011335,8.15025494 Z" id="Path-6-Copy-6" transform="translate(36.601134, 12.867704) rotate(-31.000000) translate(-36.601134, -12.867704) "></path>
                <path d="M31.0011335,9.75025494 C33.845578,14.2266249 34.7937261,16.7371723 33.845578,17.2818972 C32.8974298,17.8266221 31.9492817,18.4610407 31.0011335,19.185153 L31.0011335,9.75025494 Z" id="Path-6-Copy-7" transform="translate(32.601134, 14.467704) rotate(-31.000000) translate(-32.601134, -14.467704) "></path>
                <path d="M28.6011335,11.3502549 C31.445578,15.8266249 32.3937261,18.3371723 31.445578,18.8818972 C30.4974298,19.4266221 29.5492817,20.0610407 28.6011335,20.785153 L28.6011335,11.3502549 Z" id="Path-6-Copy-8" transform="translate(30.201134, 16.067704) rotate(-31.000000) translate(-30.201134, -16.067704) "></path>
                <path d="M27.0011335,12.9502549 C29.845578,17.4266249 30.7937261,19.9371723 29.845578,20.4818972 C28.8974298,21.0266221 27.9492817,21.6610407 27.0011335,22.385153 L27.0011335,12.9502549 Z" id="Path-6-Copy-9" transform="translate(28.601134, 17.667704) rotate(-31.000000) translate(-28.601134, -17.667704) "></path>
                <path d="M24.6011335,16.1502549 C27.445578,20.6266249 28.3937261,23.1371723 27.445578,23.6818972 C26.4974298,24.2266221 25.5492817,24.8610407 24.6011335,25.585153 L24.6011335,16.1502549 Z" id="Path-6-Copy-10" transform="translate(26.201134, 20.867704) rotate(-31.000000) translate(-26.201134, -20.867704) "></path>
                <path d="M22.5564628,16.3027382 C25.4009072,20.7791082 26.3490554,23.2896556 25.4009072,23.8343805 C24.4527591,24.3791054 23.5046109,25.013524 22.5564628,25.7376362 L22.5564628,16.3027382 Z" id="Path-6-Copy-11" transform="translate(24.156463, 21.020187) rotate(-77.000000) translate(-24.156463, -21.020187) "></path>
                <path d="M20.9801842,19.1995218 C23.8246287,23.6758917 24.7727768,26.1864392 23.8246287,26.7311641 C22.8764805,27.275889 21.9283324,27.9103076 20.9801842,28.6344198 L20.9801842,19.1995218 Z" id="Path-6-Copy-12" transform="translate(22.580184, 23.916971) rotate(-70.000000) translate(-22.580184, -23.916971) "></path>
                <path d="M16.6011335,22.5502549 C19.445578,27.0266249 20.3937261,29.5371723 19.445578,30.0818972 C18.4974298,30.6266221 17.5492817,31.2610407 16.6011335,31.985153 L16.6011335,22.5502549 Z" id="Path-6-Copy-13" transform="translate(18.201134, 27.267704) rotate(-31.000000) translate(-18.201134, -27.267704) "></path>
                <path d="M15.0011335,24.9502549 C17.845578,29.4266249 18.7937261,31.9371723 17.845578,32.4818972 C16.8974298,33.0266221 15.9492817,33.6610407 15.0011335,34.385153 L15.0011335,24.9502549 Z" id="Path-6-Copy-14" transform="translate(16.601134, 29.667704) rotate(-31.000000) translate(-16.601134, -29.667704) "></path>
                <path d="M12.6011335,29.7502549 C15.445578,34.2266249 16.3937261,36.7371723 15.445578,37.2818972 C14.4974298,37.8266221 13.5492817,38.4610407 12.6011335,39.185153 L12.6011335,29.7502549 Z" id="Path-6-Copy-15" transform="translate(14.201134, 34.467704) rotate(-90.000000) translate(-14.201134, -34.467704) "></path>
                <path d="M10.317449,32.882551 C13.1618935,37.3589209 14.1100416,39.8694684 13.1618935,40.4141933 C12.2137453,40.9589182 11.2655972,41.5933368 10.317449,42.317449 L10.317449,32.882551 Z" id="Path-6-Copy-17" transform="translate(11.917449, 37.600000) rotate(-90.000000) translate(-11.917449, -37.600000) "></path>
                <path d="M8.71744901,36.082551 C11.5618935,40.5589209 12.5100416,43.0694684 11.5618935,43.6141933 C10.6137453,44.1589182 9.66559715,44.7933368 8.71744901,45.517449 L8.71744901,36.082551 Z" id="Path-6-Copy-18" transform="translate(10.317449, 40.800000) rotate(-90.000000) translate(-10.317449, -40.800000) "></path>
                <path d="M7.91744901,39.282551 C10.7618935,43.7589209 11.7100416,46.2694684 10.7618935,46.8141933 C9.8137453,47.3589182 8.86559715,47.9933368 7.91744901,48.717449 L7.91744901,39.282551 Z" id="Path-6-Copy-19" transform="translate(9.517449, 44.000000) rotate(-90.000000) translate(-9.517449, -44.000000) "></path>
                <path d="M6.31744901,42.482551 C9.16189345,46.9589209 10.1100416,49.4694684 9.16189345,50.0141933 C8.2137453,50.5589182 7.26559715,51.1933368 6.31744901,51.917449 L6.31744901,42.482551 Z" id="Path-6-Copy-20" transform="translate(7.917449, 47.200000) rotate(-90.000000) translate(-7.917449, -47.200000) "></path>
                <path d="M6.31744901,42.482551 C9.16189345,46.9589209 10.1100416,49.4694684 9.16189345,50.0141933 C8.2137453,50.5589182 7.26559715,51.1933368 6.31744901,51.917449 L6.31744901,42.482551 Z" id="Path-6-Copy-21" transform="translate(7.917449, 47.200000) rotate(-90.000000) translate(-7.917449, -47.200000) "></path>
                <path d="M4.71744901,45.682551 C7.56189345,50.1589209 8.5100416,52.6694684 7.56189345,53.2141933 C6.6137453,53.7589182 5.66559715,54.3933368 4.71744901,55.117449 L4.71744901,45.682551 Z" id="Path-6-Copy-22" transform="translate(6.317449, 50.400000) rotate(-110.000000) translate(-6.317449, -50.400000) "></path>
                <path d="M4.18018425,48.7995218 C7.02462869,53.2758917 7.97277684,55.7864392 7.02462869,56.3311641 C6.07648055,56.875889 5.1283324,57.5103076 4.18018425,58.2344198 L4.18018425,48.7995218 Z" id="Path-6-Copy-23" transform="translate(5.780184, 53.516971) rotate(-110.000000) translate(-5.780184, -53.516971) "></path>
                <path d="M4.61981575,51.9995218 C7.46426019,56.4758917 8.41240834,58.9864392 7.46426019,59.5311641 C6.51611205,60.075889 5.5679639,60.7103076 4.61981575,61.4344198 L4.61981575,51.9995218 Z" id="Path-6-Copy-24" transform="translate(6.219816, 56.716971) rotate(-110.000000) translate(-6.219816, -56.716971) "></path>
                <path d="M3.38018425,55.1995218 C6.22462869,59.6758917 7.17277684,62.1864392 6.22462869,62.7311641 C5.27648055,63.275889 4.3283324,63.9103076 3.38018425,64.6344198 L3.38018425,55.1995218 Z" id="Path-6-Copy-25" transform="translate(4.980184, 59.916971) rotate(-110.000000) translate(-4.980184, -59.916971) "></path>
                <path d="M13.4011335,27.3502549 C16.245578,31.8266249 17.1937261,34.3371723 16.245578,34.8818972 C15.2974298,35.4266221 14.3492817,36.0610407 13.4011335,36.785153 L13.4011335,27.3502549 Z" id="Path-6-Copy-16" transform="translate(15.001134, 32.067704) rotate(-31.000000) translate(-15.001134, -32.067704) "></path>
            </g>
            <g id="spikes-copy-4" transform="translate(31.000000, 96.000000) scale(1, -1) translate(-31.000000, -96.000000) translate(0.000000, 64.000000)" fill="#0A112D">
                <path d="M58.4,0 C61.2444444,4.47636995 62.1925926,6.98691738 61.2444444,7.53164229 C60.2962963,8.07636721 59.3481481,8.71078578 58.4,9.43489801 L58.4,0 Z" id="Path-6"></path>
                <path d="M54.2011335,0.150254944 C57.045578,4.62662489 57.9937261,7.13717232 57.045578,7.68189724 C56.0974298,8.22662215 55.1492817,8.86104072 54.2011335,9.58515296 L54.2011335,0.150254944 Z" id="Path-6-Copy" transform="translate(55.801134, 4.867704) rotate(-31.000000) translate(-55.801134, -4.867704) "></path>
                <path d="M50.2011335,1.75025494 C53.045578,6.22662489 53.9937261,8.73717232 53.045578,9.28189724 C52.0974298,9.82662215 51.1492817,10.4610407 50.2011335,11.185153 L50.2011335,1.75025494 Z" id="Path-6-Copy-2" transform="translate(51.801134, 6.467704) rotate(-31.000000) translate(-51.801134, -6.467704) "></path>
                <path d="M46.2011335,3.35025494 C49.045578,7.82662489 49.9937261,10.3371723 49.045578,10.8818972 C48.0974298,11.4266221 47.1492817,12.0610407 46.2011335,12.785153 L46.2011335,3.35025494 Z" id="Path-6-Copy-3" transform="translate(47.801134, 8.067704) rotate(-31.000000) translate(-47.801134, -8.067704) "></path>
                <path d="M42.2011335,4.95025494 C45.045578,9.42662489 45.9937261,11.9371723 45.045578,12.4818972 C44.0974298,13.0266221 43.1492817,13.6610407 42.2011335,14.385153 L42.2011335,4.95025494 Z" id="Path-6-Copy-4" transform="translate(43.801134, 9.667704) rotate(-31.000000) translate(-43.801134, -9.667704) "></path>
                <path d="M38.2011335,6.55025494 C41.045578,11.0266249 41.9937261,13.5371723 41.045578,14.0818972 C40.0974298,14.6266221 39.1492817,15.2610407 38.2011335,15.985153 L38.2011335,6.55025494 Z" id="Path-6-Copy-5" transform="translate(39.801134, 11.267704) rotate(-31.000000) translate(-39.801134, -11.267704) "></path>
                <path d="M35.0011335,8.15025494 C37.845578,12.6266249 38.7937261,15.1371723 37.845578,15.6818972 C36.8974298,16.2266221 35.9492817,16.8610407 35.0011335,17.585153 L35.0011335,8.15025494 Z" id="Path-6-Copy-6" transform="translate(36.601134, 12.867704) rotate(-31.000000) translate(-36.601134, -12.867704) "></path>
                <path d="M31.0011335,9.75025494 C33.845578,14.2266249 34.7937261,16.7371723 33.845578,17.2818972 C32.8974298,17.8266221 31.9492817,18.4610407 31.0011335,19.185153 L31.0011335,9.75025494 Z" id="Path-6-Copy-7" transform="translate(32.601134, 14.467704) rotate(-31.000000) translate(-32.601134, -14.467704) "></path>
                <path d="M28.6011335,11.3502549 C31.445578,15.8266249 32.3937261,18.3371723 31.445578,18.8818972 C30.4974298,19.4266221 29.5492817,20.0610407 28.6011335,20.785153 L28.6011335,11.3502549 Z" id="Path-6-Copy-8" transform="translate(30.201134, 16.067704) rotate(-31.000000) translate(-30.201134, -16.067704) "></path>
                <path d="M27.0011335,12.9502549 C29.845578,17.4266249 30.7937261,19.9371723 29.845578,20.4818972 C28.8974298,21.0266221 27.9492817,21.6610407 27.0011335,22.385153 L27.0011335,12.9502549 Z" id="Path-6-Copy-9" transform="translate(28.601134, 17.667704) rotate(-31.000000) translate(-28.601134, -17.667704) "></path>
                <path d="M24.6011335,16.1502549 C27.445578,20.6266249 28.3937261,23.1371723 27.445578,23.6818972 C26.4974298,24.2266221 25.5492817,24.8610407 24.6011335,25.585153 L24.6011335,16.1502549 Z" id="Path-6-Copy-10" transform="translate(26.201134, 20.867704) rotate(-31.000000) translate(-26.201134, -20.867704) "></path>
                <path d="M22.5564628,16.3027382 C25.4009072,20.7791082 26.3490554,23.2896556 25.4009072,23.8343805 C24.4527591,24.3791054 23.5046109,25.013524 22.5564628,25.7376362 L22.5564628,16.3027382 Z" id="Path-6-Copy-11" transform="translate(24.156463, 21.020187) rotate(-77.000000) translate(-24.156463, -21.020187) "></path>
                <path d="M20.9801842,19.1995218 C23.8246287,23.6758917 24.7727768,26.1864392 23.8246287,26.7311641 C22.8764805,27.275889 21.9283324,27.9103076 20.9801842,28.6344198 L20.9801842,19.1995218 Z" id="Path-6-Copy-12" transform="translate(22.580184, 23.916971) rotate(-70.000000) translate(-22.580184, -23.916971) "></path>
                <path d="M16.6011335,22.5502549 C19.445578,27.0266249 20.3937261,29.5371723 19.445578,30.0818972 C18.4974298,30.6266221 17.5492817,31.2610407 16.6011335,31.985153 L16.6011335,22.5502549 Z" id="Path-6-Copy-13" transform="translate(18.201134, 27.267704) rotate(-31.000000) translate(-18.201134, -27.267704) "></path>
                <path d="M15.0011335,24.9502549 C17.845578,29.4266249 18.7937261,31.9371723 17.845578,32.4818972 C16.8974298,33.0266221 15.9492817,33.6610407 15.0011335,34.385153 L15.0011335,24.9502549 Z" id="Path-6-Copy-14" transform="translate(16.601134, 29.667704) rotate(-31.000000) translate(-16.601134, -29.667704) "></path>
                <path d="M12.6011335,29.7502549 C15.445578,34.2266249 16.3937261,36.7371723 15.445578,37.2818972 C14.4974298,37.8266221 13.5492817,38.4610407 12.6011335,39.185153 L12.6011335,29.7502549 Z" id="Path-6-Copy-15" transform="translate(14.201134, 34.467704) rotate(-90.000000) translate(-14.201134, -34.467704) "></path>
                <path d="M10.317449,32.882551 C13.1618935,37.3589209 14.1100416,39.8694684 13.1618935,40.4141933 C12.2137453,40.9589182 11.2655972,41.5933368 10.317449,42.317449 L10.317449,32.882551 Z" id="Path-6-Copy-17" transform="translate(11.917449, 37.600000) rotate(-90.000000) translate(-11.917449, -37.600000) "></path>
                <path d="M8.71744901,36.082551 C11.5618935,40.5589209 12.5100416,43.0694684 11.5618935,43.6141933 C10.6137453,44.1589182 9.66559715,44.7933368 8.71744901,45.517449 L8.71744901,36.082551 Z" id="Path-6-Copy-18" transform="translate(10.317449, 40.800000) rotate(-90.000000) translate(-10.317449, -40.800000) "></path>
                <path d="M7.91744901,39.282551 C10.7618935,43.7589209 11.7100416,46.2694684 10.7618935,46.8141933 C9.8137453,47.3589182 8.86559715,47.9933368 7.91744901,48.717449 L7.91744901,39.282551 Z" id="Path-6-Copy-19" transform="translate(9.517449, 44.000000) rotate(-90.000000) translate(-9.517449, -44.000000) "></path>
                <path d="M6.31744901,42.482551 C9.16189345,46.9589209 10.1100416,49.4694684 9.16189345,50.0141933 C8.2137453,50.5589182 7.26559715,51.1933368 6.31744901,51.917449 L6.31744901,42.482551 Z" id="Path-6-Copy-20" transform="translate(7.917449, 47.200000) rotate(-90.000000) translate(-7.917449, -47.200000) "></path>
                <path d="M6.31744901,42.482551 C9.16189345,46.9589209 10.1100416,49.4694684 9.16189345,50.0141933 C8.2137453,50.5589182 7.26559715,51.1933368 6.31744901,51.917449 L6.31744901,42.482551 Z" id="Path-6-Copy-21" transform="translate(7.917449, 47.200000) rotate(-90.000000) translate(-7.917449, -47.200000) "></path>
                <path d="M4.71744901,45.682551 C7.56189345,50.1589209 8.5100416,52.6694684 7.56189345,53.2141933 C6.6137453,53.7589182 5.66559715,54.3933368 4.71744901,55.117449 L4.71744901,45.682551 Z" id="Path-6-Copy-22" transform="translate(6.317449, 50.400000) rotate(-110.000000) translate(-6.317449, -50.400000) "></path>
                <path d="M4.18018425,48.7995218 C7.02462869,53.2758917 7.97277684,55.7864392 7.02462869,56.3311641 C6.07648055,56.875889 5.1283324,57.5103076 4.18018425,58.2344198 L4.18018425,48.7995218 Z" id="Path-6-Copy-23" transform="translate(5.780184, 53.516971) rotate(-110.000000) translate(-5.780184, -53.516971) "></path>
                <path d="M4.61981575,51.9995218 C7.46426019,56.4758917 8.41240834,58.9864392 7.46426019,59.5311641 C6.51611205,60.075889 5.5679639,60.7103076 4.61981575,61.4344198 L4.61981575,51.9995218 Z" id="Path-6-Copy-24" transform="translate(6.219816, 56.716971) rotate(-110.000000) translate(-6.219816, -56.716971) "></path>
                <path d="M3.38018425,55.1995218 C6.22462869,59.6758917 7.17277684,62.1864392 6.22462869,62.7311641 C5.27648055,63.275889 4.3283324,63.9103076 3.38018425,64.6344198 L3.38018425,55.1995218 Z" id="Path-6-Copy-25" transform="translate(4.980184, 59.916971) rotate(-110.000000) translate(-4.980184, -59.916971) "></path>
                <path d="M13.4011335,27.3502549 C16.245578,31.8266249 17.1937261,34.3371723 16.245578,34.8818972 C15.2974298,35.4266221 14.3492817,36.0610407 13.4011335,36.785153 L13.4011335,27.3502549 Z" id="Path-6-Copy-16" transform="translate(15.001134, 32.067704) rotate(-31.000000) translate(-15.001134, -32.067704) "></path>
            </g>
        </g>
    </g>
</svg>